<?xml version="1.0" encoding="utf-8" standalone="no"?>
<!DOCTYPE svg PUBLIC "-//W3C//DTD SVG 1.1//EN"
  "http://www.w3.org/Graphics/SVG/1.1/DTD/svg11.dtd">
<!-- Created with matplotlib (https://matplotlib.org/) -->
<svg height="475.2pt" version="1.1" viewBox="0 0 1483.2 475.2" width="1483.2pt" xmlns="http://www.w3.org/2000/svg" xmlns:xlink="http://www.w3.org/1999/xlink">
 <defs>
  <style type="text/css">
*{stroke-linecap:butt;stroke-linejoin:round;}
  </style>
 </defs>
 <g id="figure_1">
  <g id="patch_1">
   <path d="M 0 475.2 
L 1483.2 475.2 
L 1483.2 0 
L 0 0 
z
" style="fill:none;"/>
  </g>
  <g id="axes_1">
   <g id="patch_2">
    <path d="M 185.4 422.928 
L 603.392727 422.928 
L 603.392727 57.024 
L 185.4 57.024 
z
" style="fill:none;"/>
   </g>
   <g id="PathCollection_1">
    <defs>
     <path d="M -5 5 
L 5 -5 
M -5 -5 
L 5 5 
" id="md8de8731ce" style="stroke:#b22222;stroke-width:1.5;"/>
    </defs>
    <g clip-path="url(#pd6e84a77a5)">
     <use style="fill:#b22222;stroke:#b22222;stroke-width:1.5;" x="227.199273" xlink:href="#md8de8731ce" y="148.5"/>
     <use style="fill:#b22222;stroke:#b22222;stroke-width:1.5;" x="272.435921" xlink:href="#md8de8731ce" y="133.942591"/>
     <use style="fill:#b22222;stroke:#b22222;stroke-width:1.5;" x="305.90385" xlink:href="#md8de8731ce" y="159.432865"/>
     <use style="fill:#b22222;stroke:#b22222;stroke-width:1.5;" x="331.555662" xlink:href="#md8de8731ce" y="178.970128"/>
     <use style="fill:#b22222;stroke:#b22222;stroke-width:1.5;" x="351.216737" xlink:href="#md8de8731ce" y="193.944648"/>
     <use style="fill:#b22222;stroke:#b22222;stroke-width:1.5;" x="366.286154" xlink:href="#md8de8731ce" y="205.422012"/>
     <use style="fill:#b22222;stroke:#b22222;stroke-width:1.5;" x="377.836252" xlink:href="#md8de8731ce" y="214.218946"/>
     <use style="fill:#b22222;stroke:#b22222;stroke-width:1.5;" x="386.688934" xlink:href="#md8de8731ce" y="220.961439"/>
     <use style="fill:#b22222;stroke:#b22222;stroke-width:1.5;" x="393.474157" xlink:href="#md8de8731ce" y="226.129287"/>
     <use style="fill:#b22222;stroke:#b22222;stroke-width:1.5;" x="398.674755" xlink:href="#md8de8731ce" y="230.090234"/>
     <use style="fill:#b22222;stroke:#b22222;stroke-width:1.5;" x="402.660803" xlink:href="#md8de8731ce" y="233.126138"/>
     <use style="fill:#b22222;stroke:#b22222;stroke-width:1.5;" x="405.715947" xlink:href="#md8de8731ce" y="235.453037"/>
     <use style="fill:#b22222;stroke:#b22222;stroke-width:1.5;" x="408.057591" xlink:href="#md8de8731ce" y="237.23651"/>
     <use style="fill:#b22222;stroke:#b22222;stroke-width:1.5;" x="409.852366" xlink:href="#md8de8731ce" y="238.60347"/>
     <use style="fill:#b22222;stroke:#b22222;stroke-width:1.5;" x="411.227989" xlink:href="#md8de8731ce" y="239.651189"/>
     <use style="fill:#b22222;stroke:#b22222;stroke-width:1.5;" x="412.282348" xlink:href="#md8de8731ce" y="240.454224"/>
     <use style="fill:#b22222;stroke:#b22222;stroke-width:1.5;" x="413.090472" xlink:href="#md8de8731ce" y="241.069717"/>
     <use style="fill:#b22222;stroke:#b22222;stroke-width:1.5;" x="413.709866" xlink:href="#md8de8731ce" y="241.541468"/>
     <use style="fill:#b22222;stroke:#b22222;stroke-width:1.5;" x="414.184606" xlink:href="#md8de8731ce" y="241.903046"/>
     <use style="fill:#b22222;stroke:#b22222;stroke-width:1.5;" x="414.548475" xlink:href="#md8de8731ce" y="242.18018"/>
     <use style="fill:#b22222;stroke:#b22222;stroke-width:1.5;" x="414.827366" xlink:href="#md8de8731ce" y="242.392593"/>
     <use style="fill:#b22222;stroke:#b22222;stroke-width:1.5;" x="415.041125" xlink:href="#md8de8731ce" y="242.555399"/>
     <use style="fill:#b22222;stroke:#b22222;stroke-width:1.5;" x="415.204962" xlink:href="#md8de8731ce" y="242.680182"/>
     <use style="fill:#b22222;stroke:#b22222;stroke-width:1.5;" x="415.330537" xlink:href="#md8de8731ce" y="242.775824"/>
     <use style="fill:#b22222;stroke:#b22222;stroke-width:1.5;" x="415.426785" xlink:href="#md8de8731ce" y="242.84913"/>
     <use style="fill:#b22222;stroke:#b22222;stroke-width:1.5;" x="415.500555" xlink:href="#md8de8731ce" y="242.905316"/>
     <use style="fill:#b22222;stroke:#b22222;stroke-width:1.5;" x="415.557097" xlink:href="#md8de8731ce" y="242.94838"/>
     <use style="fill:#b22222;stroke:#b22222;stroke-width:1.5;" x="415.600434" xlink:href="#md8de8731ce" y="242.981387"/>
     <use style="fill:#b22222;stroke:#b22222;stroke-width:1.5;" x="415.63365" xlink:href="#md8de8731ce" y="243.006685"/>
     <use style="fill:#b22222;stroke:#b22222;stroke-width:1.5;" x="415.659109" xlink:href="#md8de8731ce" y="243.026075"/>
     <use style="fill:#b22222;stroke:#b22222;stroke-width:1.5;" x="415.678622" xlink:href="#md8de8731ce" y="243.040937"/>
     <use style="fill:#b22222;stroke:#b22222;stroke-width:1.5;" x="415.693578" xlink:href="#md8de8731ce" y="243.052328"/>
     <use style="fill:#b22222;stroke:#b22222;stroke-width:1.5;" x="415.705041" xlink:href="#md8de8731ce" y="243.061059"/>
     <use style="fill:#b22222;stroke:#b22222;stroke-width:1.5;" x="415.713827" xlink:href="#md8de8731ce" y="243.067751"/>
     <use style="fill:#b22222;stroke:#b22222;stroke-width:1.5;" x="415.720561" xlink:href="#md8de8731ce" y="243.07288"/>
     <use style="fill:#b22222;stroke:#b22222;stroke-width:1.5;" x="415.725723" xlink:href="#md8de8731ce" y="243.076811"/>
     <use style="fill:#b22222;stroke:#b22222;stroke-width:1.5;" x="415.729679" xlink:href="#md8de8731ce" y="243.079824"/>
     <use style="fill:#b22222;stroke:#b22222;stroke-width:1.5;" x="415.732711" xlink:href="#md8de8731ce" y="243.082133"/>
     <use style="fill:#b22222;stroke:#b22222;stroke-width:1.5;" x="415.735035" xlink:href="#md8de8731ce" y="243.083903"/>
     <use style="fill:#b22222;stroke:#b22222;stroke-width:1.5;" x="415.736816" xlink:href="#md8de8731ce" y="243.08526"/>
     <use style="fill:#b22222;stroke:#b22222;stroke-width:1.5;" x="415.738182" xlink:href="#md8de8731ce" y="243.0863"/>
     <use style="fill:#b22222;stroke:#b22222;stroke-width:1.5;" x="415.739228" xlink:href="#md8de8731ce" y="243.087097"/>
     <use style="fill:#b22222;stroke:#b22222;stroke-width:1.5;" x="415.74003" xlink:href="#md8de8731ce" y="243.087708"/>
     <use style="fill:#b22222;stroke:#b22222;stroke-width:1.5;" x="415.740645" xlink:href="#md8de8731ce" y="243.088176"/>
     <use style="fill:#b22222;stroke:#b22222;stroke-width:1.5;" x="415.741116" xlink:href="#md8de8731ce" y="243.088535"/>
     <use style="fill:#b22222;stroke:#b22222;stroke-width:1.5;" x="415.741477" xlink:href="#md8de8731ce" y="243.08881"/>
     <use style="fill:#b22222;stroke:#b22222;stroke-width:1.5;" x="415.741754" xlink:href="#md8de8731ce" y="243.08902"/>
     <use style="fill:#b22222;stroke:#b22222;stroke-width:1.5;" x="415.741966" xlink:href="#md8de8731ce" y="243.089182"/>
     <use style="fill:#b22222;stroke:#b22222;stroke-width:1.5;" x="415.742129" xlink:href="#md8de8731ce" y="243.089306"/>
     <use style="fill:#b22222;stroke:#b22222;stroke-width:1.5;" x="415.742253" xlink:href="#md8de8731ce" y="243.089401"/>
     <use style="fill:#b22222;stroke:#b22222;stroke-width:1.5;" x="415.742349" xlink:href="#md8de8731ce" y="243.089474"/>
     <use style="fill:#b22222;stroke:#b22222;stroke-width:1.5;" x="415.742422" xlink:href="#md8de8731ce" y="243.089529"/>
     <use style="fill:#b22222;stroke:#b22222;stroke-width:1.5;" x="415.742478" xlink:href="#md8de8731ce" y="243.089572"/>
     <use style="fill:#b22222;stroke:#b22222;stroke-width:1.5;" x="415.742521" xlink:href="#md8de8731ce" y="243.089605"/>
     <use style="fill:#b22222;stroke:#b22222;stroke-width:1.5;" x="415.742554" xlink:href="#md8de8731ce" y="243.08963"/>
     <use style="fill:#b22222;stroke:#b22222;stroke-width:1.5;" x="415.742579" xlink:href="#md8de8731ce" y="243.089649"/>
     <use style="fill:#b22222;stroke:#b22222;stroke-width:1.5;" x="415.742599" xlink:href="#md8de8731ce" y="243.089664"/>
     <use style="fill:#b22222;stroke:#b22222;stroke-width:1.5;" x="415.742614" xlink:href="#md8de8731ce" y="243.089675"/>
     <use style="fill:#b22222;stroke:#b22222;stroke-width:1.5;" x="415.742625" xlink:href="#md8de8731ce" y="243.089684"/>
     <use style="fill:#b22222;stroke:#b22222;stroke-width:1.5;" x="415.742634" xlink:href="#md8de8731ce" y="243.089691"/>
     <use style="fill:#b22222;stroke:#b22222;stroke-width:1.5;" x="415.74264" xlink:href="#md8de8731ce" y="243.089696"/>
     <use style="fill:#b22222;stroke:#b22222;stroke-width:1.5;" x="415.742645" xlink:href="#md8de8731ce" y="243.0897"/>
     <use style="fill:#b22222;stroke:#b22222;stroke-width:1.5;" x="415.742649" xlink:href="#md8de8731ce" y="243.089703"/>
     <use style="fill:#b22222;stroke:#b22222;stroke-width:1.5;" x="415.742652" xlink:href="#md8de8731ce" y="243.089705"/>
     <use style="fill:#b22222;stroke:#b22222;stroke-width:1.5;" x="415.742655" xlink:href="#md8de8731ce" y="243.089707"/>
     <use style="fill:#b22222;stroke:#b22222;stroke-width:1.5;" x="415.742656" xlink:href="#md8de8731ce" y="243.089708"/>
     <use style="fill:#b22222;stroke:#b22222;stroke-width:1.5;" x="415.742658" xlink:href="#md8de8731ce" y="243.089709"/>
     <use style="fill:#b22222;stroke:#b22222;stroke-width:1.5;" x="415.742659" xlink:href="#md8de8731ce" y="243.08971"/>
     <use style="fill:#b22222;stroke:#b22222;stroke-width:1.5;" x="415.74266" xlink:href="#md8de8731ce" y="243.08971"/>
     <use style="fill:#b22222;stroke:#b22222;stroke-width:1.5;" x="415.74266" xlink:href="#md8de8731ce" y="243.089711"/>
     <use style="fill:#b22222;stroke:#b22222;stroke-width:1.5;" x="415.742661" xlink:href="#md8de8731ce" y="243.089711"/>
     <use style="fill:#b22222;stroke:#b22222;stroke-width:1.5;" x="415.742661" xlink:href="#md8de8731ce" y="243.089711"/>
     <use style="fill:#b22222;stroke:#b22222;stroke-width:1.5;" x="415.742661" xlink:href="#md8de8731ce" y="243.089712"/>
     <use style="fill:#b22222;stroke:#b22222;stroke-width:1.5;" x="415.742662" xlink:href="#md8de8731ce" y="243.089712"/>
     <use style="fill:#b22222;stroke:#b22222;stroke-width:1.5;" x="415.742662" xlink:href="#md8de8731ce" y="243.089712"/>
     <use style="fill:#b22222;stroke:#b22222;stroke-width:1.5;" x="415.742662" xlink:href="#md8de8731ce" y="243.089712"/>
     <use style="fill:#b22222;stroke:#b22222;stroke-width:1.5;" x="415.742662" xlink:href="#md8de8731ce" y="243.089712"/>
     <use style="fill:#b22222;stroke:#b22222;stroke-width:1.5;" x="415.742662" xlink:href="#md8de8731ce" y="243.089712"/>
     <use style="fill:#b22222;stroke:#b22222;stroke-width:1.5;" x="415.742662" xlink:href="#md8de8731ce" y="243.089712"/>
     <use style="fill:#b22222;stroke:#b22222;stroke-width:1.5;" x="415.742662" xlink:href="#md8de8731ce" y="243.089712"/>
     <use style="fill:#b22222;stroke:#b22222;stroke-width:1.5;" x="415.742662" xlink:href="#md8de8731ce" y="243.089712"/>
     <use style="fill:#b22222;stroke:#b22222;stroke-width:1.5;" x="415.742662" xlink:href="#md8de8731ce" y="243.089712"/>
     <use style="fill:#b22222;stroke:#b22222;stroke-width:1.5;" x="415.742662" xlink:href="#md8de8731ce" y="243.089712"/>
     <use style="fill:#b22222;stroke:#b22222;stroke-width:1.5;" x="415.742662" xlink:href="#md8de8731ce" y="243.089712"/>
     <use style="fill:#b22222;stroke:#b22222;stroke-width:1.5;" x="415.742662" xlink:href="#md8de8731ce" y="243.089712"/>
     <use style="fill:#b22222;stroke:#b22222;stroke-width:1.5;" x="415.742662" xlink:href="#md8de8731ce" y="243.089712"/>
     <use style="fill:#b22222;stroke:#b22222;stroke-width:1.5;" x="415.742662" xlink:href="#md8de8731ce" y="243.089712"/>
     <use style="fill:#b22222;stroke:#b22222;stroke-width:1.5;" x="415.742662" xlink:href="#md8de8731ce" y="243.089712"/>
     <use style="fill:#b22222;stroke:#b22222;stroke-width:1.5;" x="415.742662" xlink:href="#md8de8731ce" y="243.089712"/>
     <use style="fill:#b22222;stroke:#b22222;stroke-width:1.5;" x="415.742662" xlink:href="#md8de8731ce" y="243.089712"/>
     <use style="fill:#b22222;stroke:#b22222;stroke-width:1.5;" x="415.742662" xlink:href="#md8de8731ce" y="243.089712"/>
     <use style="fill:#b22222;stroke:#b22222;stroke-width:1.5;" x="415.742662" xlink:href="#md8de8731ce" y="243.089712"/>
     <use style="fill:#b22222;stroke:#b22222;stroke-width:1.5;" x="415.742662" xlink:href="#md8de8731ce" y="243.089712"/>
     <use style="fill:#b22222;stroke:#b22222;stroke-width:1.5;" x="415.742662" xlink:href="#md8de8731ce" y="243.089712"/>
     <use style="fill:#b22222;stroke:#b22222;stroke-width:1.5;" x="415.742662" xlink:href="#md8de8731ce" y="243.089712"/>
     <use style="fill:#b22222;stroke:#b22222;stroke-width:1.5;" x="415.742662" xlink:href="#md8de8731ce" y="243.089712"/>
     <use style="fill:#b22222;stroke:#b22222;stroke-width:1.5;" x="415.742662" xlink:href="#md8de8731ce" y="243.089712"/>
     <use style="fill:#b22222;stroke:#b22222;stroke-width:1.5;" x="415.742662" xlink:href="#md8de8731ce" y="243.089712"/>
     <use style="fill:#b22222;stroke:#b22222;stroke-width:1.5;" x="415.742662" xlink:href="#md8de8731ce" y="243.089712"/>
     <use style="fill:#b22222;stroke:#b22222;stroke-width:1.5;" x="415.742662" xlink:href="#md8de8731ce" y="243.089712"/>
     <use style="fill:#b22222;stroke:#b22222;stroke-width:1.5;" x="415.742662" xlink:href="#md8de8731ce" y="243.089712"/>
    </g>
   </g>
   <g id="matplotlib.axis_1">
    <g id="xtick_1">
     <g id="line2d_1">
      <defs>
       <path d="M 0 0 
L 0 3.5 
" id="m352b3ba4e1" style="stroke:#000000;stroke-width:0.8;"/>
      </defs>
      <g>
       <use style="stroke:#000000;stroke-width:0.8;" x="223.399339" xlink:href="#m352b3ba4e1" y="422.928"/>
      </g>
     </g>
     <g id="text_1">
      <!-- −4 -->
      <defs>
       <path d="M 10.59375 35.5 
L 73.1875 35.5 
L 73.1875 27.203125 
L 10.59375 27.203125 
z
" id="DejaVuSans-8722"/>
       <path d="M 37.796875 64.3125 
L 12.890625 25.390625 
L 37.796875 25.390625 
z
M 35.203125 72.90625 
L 47.609375 72.90625 
L 47.609375 25.390625 
L 58.015625 25.390625 
L 58.015625 17.1875 
L 47.609375 17.1875 
L 47.609375 0 
L 37.796875 0 
L 37.796875 17.1875 
L 4.890625 17.1875 
L 4.890625 26.703125 
z
" id="DejaVuSans-52"/>
      </defs>
      <g transform="translate(216.028245 437.526437)scale(0.1 -0.1)">
       <use xlink:href="#DejaVuSans-8722"/>
       <use x="83.789062" xlink:href="#DejaVuSans-52"/>
      </g>
     </g>
    </g>
    <g id="xtick_2">
     <g id="line2d_2">
      <g>
       <use style="stroke:#000000;stroke-width:0.8;" x="299.398017" xlink:href="#m352b3ba4e1" y="422.928"/>
      </g>
     </g>
     <g id="text_2">
      <!-- −2 -->
      <defs>
       <path d="M 19.1875 8.296875 
L 53.609375 8.296875 
L 53.609375 0 
L 7.328125 0 
L 7.328125 8.296875 
Q 12.9375 14.109375 22.625 23.890625 
Q 32.328125 33.6875 34.8125 36.53125 
Q 39.546875 41.84375 41.421875 45.53125 
Q 43.3125 49.21875 43.3125 52.78125 
Q 43.3125 58.59375 39.234375 62.25 
Q 35.15625 65.921875 28.609375 65.921875 
Q 23.96875 65.921875 18.8125 64.3125 
Q 13.671875 62.703125 7.8125 59.421875 
L 7.8125 69.390625 
Q 13.765625 71.78125 18.9375 73 
Q 24.125 74.21875 28.421875 74.21875 
Q 39.75 74.21875 46.484375 68.546875 
Q 53.21875 62.890625 53.21875 53.421875 
Q 53.21875 48.921875 51.53125 44.890625 
Q 49.859375 40.875 45.40625 35.40625 
Q 44.1875 33.984375 37.640625 27.21875 
Q 31.109375 20.453125 19.1875 8.296875 
z
" id="DejaVuSans-50"/>
      </defs>
      <g transform="translate(292.026923 437.526437)scale(0.1 -0.1)">
       <use xlink:href="#DejaVuSans-8722"/>
       <use x="83.789062" xlink:href="#DejaVuSans-50"/>
      </g>
     </g>
    </g>
    <g id="xtick_3">
     <g id="line2d_3">
      <g>
       <use style="stroke:#000000;stroke-width:0.8;" x="375.396694" xlink:href="#m352b3ba4e1" y="422.928"/>
      </g>
     </g>
     <g id="text_3">
      <!-- 0 -->
      <defs>
       <path d="M 31.78125 66.40625 
Q 24.171875 66.40625 20.328125 58.90625 
Q 16.5 51.421875 16.5 36.375 
Q 16.5 21.390625 20.328125 13.890625 
Q 24.171875 6.390625 31.78125 6.390625 
Q 39.453125 6.390625 43.28125 13.890625 
Q 47.125 21.390625 47.125 36.375 
Q 47.125 51.421875 43.28125 58.90625 
Q 39.453125 66.40625 31.78125 66.40625 
z
M 31.78125 74.21875 
Q 44.046875 74.21875 50.515625 64.515625 
Q 56.984375 54.828125 56.984375 36.375 
Q 56.984375 17.96875 50.515625 8.265625 
Q 44.046875 -1.421875 31.78125 -1.421875 
Q 19.53125 -1.421875 13.0625 8.265625 
Q 6.59375 17.96875 6.59375 36.375 
Q 6.59375 54.828125 13.0625 64.515625 
Q 19.53125 74.21875 31.78125 74.21875 
z
" id="DejaVuSans-48"/>
      </defs>
      <g transform="translate(372.215444 437.526437)scale(0.1 -0.1)">
       <use xlink:href="#DejaVuSans-48"/>
      </g>
     </g>
    </g>
    <g id="xtick_4">
     <g id="line2d_4">
      <g>
       <use style="stroke:#000000;stroke-width:0.8;" x="451.395372" xlink:href="#m352b3ba4e1" y="422.928"/>
      </g>
     </g>
     <g id="text_4">
      <!-- 2 -->
      <g transform="translate(448.214122 437.526437)scale(0.1 -0.1)">
       <use xlink:href="#DejaVuSans-50"/>
      </g>
     </g>
    </g>
    <g id="xtick_5">
     <g id="line2d_5">
      <g>
       <use style="stroke:#000000;stroke-width:0.8;" x="527.39405" xlink:href="#m352b3ba4e1" y="422.928"/>
      </g>
     </g>
     <g id="text_5">
      <!-- 4 -->
      <g transform="translate(524.2128 437.526437)scale(0.1 -0.1)">
       <use xlink:href="#DejaVuSans-52"/>
      </g>
     </g>
    </g>
    <g id="xtick_6">
     <g id="line2d_6">
      <g>
       <use style="stroke:#000000;stroke-width:0.8;" x="603.392727" xlink:href="#m352b3ba4e1" y="422.928"/>
      </g>
     </g>
     <g id="text_6">
      <!-- 6 -->
      <defs>
       <path d="M 33.015625 40.375 
Q 26.375 40.375 22.484375 35.828125 
Q 18.609375 31.296875 18.609375 23.390625 
Q 18.609375 15.53125 22.484375 10.953125 
Q 26.375 6.390625 33.015625 6.390625 
Q 39.65625 6.390625 43.53125 10.953125 
Q 47.40625 15.53125 47.40625 23.390625 
Q 47.40625 31.296875 43.53125 35.828125 
Q 39.65625 40.375 33.015625 40.375 
z
M 52.59375 71.296875 
L 52.59375 62.3125 
Q 48.875 64.0625 45.09375 64.984375 
Q 41.3125 65.921875 37.59375 65.921875 
Q 27.828125 65.921875 22.671875 59.328125 
Q 17.53125 52.734375 16.796875 39.40625 
Q 19.671875 43.65625 24.015625 45.921875 
Q 28.375 48.1875 33.59375 48.1875 
Q 44.578125 48.1875 50.953125 41.515625 
Q 57.328125 34.859375 57.328125 23.390625 
Q 57.328125 12.15625 50.6875 5.359375 
Q 44.046875 -1.421875 33.015625 -1.421875 
Q 20.359375 -1.421875 13.671875 8.265625 
Q 6.984375 17.96875 6.984375 36.375 
Q 6.984375 53.65625 15.1875 63.9375 
Q 23.390625 74.21875 37.203125 74.21875 
Q 40.921875 74.21875 44.703125 73.484375 
Q 48.484375 72.75 52.59375 71.296875 
z
" id="DejaVuSans-54"/>
      </defs>
      <g transform="translate(600.211477 437.526437)scale(0.1 -0.1)">
       <use xlink:href="#DejaVuSans-54"/>
      </g>
     </g>
    </g>
    <g id="text_7">
     <!-- $\theta_0$ -->
     <defs>
      <path d="M 45.515625 34.671875 
L 14.453125 34.671875 
Q 12.359375 20.0625 14.5 13.875 
Q 17.1875 6.25 24.46875 6.25 
Q 31.78125 6.25 37.359375 13.921875 
Q 42.234375 20.65625 45.515625 34.671875 
z
M 47.015625 42.96875 
Q 48.34375 56.84375 46.625 61.71875 
Q 43.953125 69.4375 36.765625 69.4375 
Q 29.296875 69.4375 23.828125 61.8125 
Q 19.53125 55.671875 16.15625 42.96875 
z
M 38.1875 76.765625 
Q 49.90625 76.765625 54.59375 66.40625 
Q 59.28125 56.109375 55.71875 37.84375 
Q 52.203125 19.625 43.453125 9.28125 
Q 34.765625 -1.125 23.046875 -1.125 
Q 11.28125 -1.125 6.640625 9.28125 
Q 2 19.625 5.515625 37.84375 
Q 9.078125 56.109375 17.71875 66.40625 
Q 26.421875 76.765625 38.1875 76.765625 
z
" id="DejaVuSans-Oblique-952"/>
     </defs>
     <g transform="translate(388.946364 451.204563)scale(0.1 -0.1)">
      <use transform="translate(0 0.234375)" xlink:href="#DejaVuSans-Oblique-952"/>
      <use transform="translate(61.181641 -16.171875)scale(0.7)" xlink:href="#DejaVuSans-48"/>
     </g>
    </g>
   </g>
   <g id="matplotlib.axis_2">
    <g id="ytick_1">
     <g id="line2d_7">
      <defs>
       <path d="M 0 0 
L -3.5 0 
" id="mbfb5bf9f91" style="stroke:#000000;stroke-width:0.8;"/>
      </defs>
      <g>
       <use style="stroke:#000000;stroke-width:0.8;" x="185.4" xlink:href="#mbfb5bf9f91" y="422.928"/>
      </g>
     </g>
     <g id="text_8">
      <!-- 0.00 -->
      <defs>
       <path d="M 10.6875 12.40625 
L 21 12.40625 
L 21 0 
L 10.6875 0 
z
" id="DejaVuSans-46"/>
      </defs>
      <g transform="translate(156.134375 426.727219)scale(0.1 -0.1)">
       <use xlink:href="#DejaVuSans-48"/>
       <use x="63.623047" xlink:href="#DejaVuSans-46"/>
       <use x="95.410156" xlink:href="#DejaVuSans-48"/>
       <use x="159.033203" xlink:href="#DejaVuSans-48"/>
      </g>
     </g>
    </g>
    <g id="ytick_2">
     <g id="line2d_8">
      <g>
       <use style="stroke:#000000;stroke-width:0.8;" x="185.4" xlink:href="#mbfb5bf9f91" y="377.19"/>
      </g>
     </g>
     <g id="text_9">
      <!-- 0.25 -->
      <defs>
       <path d="M 10.796875 72.90625 
L 49.515625 72.90625 
L 49.515625 64.59375 
L 19.828125 64.59375 
L 19.828125 46.734375 
Q 21.96875 47.46875 24.109375 47.828125 
Q 26.265625 48.1875 28.421875 48.1875 
Q 40.625 48.1875 47.75 41.5 
Q 54.890625 34.8125 54.890625 23.390625 
Q 54.890625 11.625 47.5625 5.09375 
Q 40.234375 -1.421875 26.90625 -1.421875 
Q 22.3125 -1.421875 17.546875 -0.640625 
Q 12.796875 0.140625 7.71875 1.703125 
L 7.71875 11.625 
Q 12.109375 9.234375 16.796875 8.0625 
Q 21.484375 6.890625 26.703125 6.890625 
Q 35.15625 6.890625 40.078125 11.328125 
Q 45.015625 15.765625 45.015625 23.390625 
Q 45.015625 31 40.078125 35.4375 
Q 35.15625 39.890625 26.703125 39.890625 
Q 22.75 39.890625 18.8125 39.015625 
Q 14.890625 38.140625 10.796875 36.28125 
z
" id="DejaVuSans-53"/>
      </defs>
      <g transform="translate(156.134375 380.989219)scale(0.1 -0.1)">
       <use xlink:href="#DejaVuSans-48"/>
       <use x="63.623047" xlink:href="#DejaVuSans-46"/>
       <use x="95.410156" xlink:href="#DejaVuSans-50"/>
       <use x="159.033203" xlink:href="#DejaVuSans-53"/>
      </g>
     </g>
    </g>
    <g id="ytick_3">
     <g id="line2d_9">
      <g>
       <use style="stroke:#000000;stroke-width:0.8;" x="185.4" xlink:href="#mbfb5bf9f91" y="331.452"/>
      </g>
     </g>
     <g id="text_10">
      <!-- 0.50 -->
      <g transform="translate(156.134375 335.251219)scale(0.1 -0.1)">
       <use xlink:href="#DejaVuSans-48"/>
       <use x="63.623047" xlink:href="#DejaVuSans-46"/>
       <use x="95.410156" xlink:href="#DejaVuSans-53"/>
       <use x="159.033203" xlink:href="#DejaVuSans-48"/>
      </g>
     </g>
    </g>
    <g id="ytick_4">
     <g id="line2d_10">
      <g>
       <use style="stroke:#000000;stroke-width:0.8;" x="185.4" xlink:href="#mbfb5bf9f91" y="285.714"/>
      </g>
     </g>
     <g id="text_11">
      <!-- 0.75 -->
      <defs>
       <path d="M 8.203125 72.90625 
L 55.078125 72.90625 
L 55.078125 68.703125 
L 28.609375 0 
L 18.3125 0 
L 43.21875 64.59375 
L 8.203125 64.59375 
z
" id="DejaVuSans-55"/>
      </defs>
      <g transform="translate(156.134375 289.513219)scale(0.1 -0.1)">
       <use xlink:href="#DejaVuSans-48"/>
       <use x="63.623047" xlink:href="#DejaVuSans-46"/>
       <use x="95.410156" xlink:href="#DejaVuSans-55"/>
       <use x="159.033203" xlink:href="#DejaVuSans-53"/>
      </g>
     </g>
    </g>
    <g id="ytick_5">
     <g id="line2d_11">
      <g>
       <use style="stroke:#000000;stroke-width:0.8;" x="185.4" xlink:href="#mbfb5bf9f91" y="239.976"/>
      </g>
     </g>
     <g id="text_12">
      <!-- 1.00 -->
      <defs>
       <path d="M 12.40625 8.296875 
L 28.515625 8.296875 
L 28.515625 63.921875 
L 10.984375 60.40625 
L 10.984375 69.390625 
L 28.421875 72.90625 
L 38.28125 72.90625 
L 38.28125 8.296875 
L 54.390625 8.296875 
L 54.390625 0 
L 12.40625 0 
z
" id="DejaVuSans-49"/>
      </defs>
      <g transform="translate(156.134375 243.775219)scale(0.1 -0.1)">
       <use xlink:href="#DejaVuSans-49"/>
       <use x="63.623047" xlink:href="#DejaVuSans-46"/>
       <use x="95.410156" xlink:href="#DejaVuSans-48"/>
       <use x="159.033203" xlink:href="#DejaVuSans-48"/>
      </g>
     </g>
    </g>
    <g id="ytick_6">
     <g id="line2d_12">
      <g>
       <use style="stroke:#000000;stroke-width:0.8;" x="185.4" xlink:href="#mbfb5bf9f91" y="194.238"/>
      </g>
     </g>
     <g id="text_13">
      <!-- 1.25 -->
      <g transform="translate(156.134375 198.037219)scale(0.1 -0.1)">
       <use xlink:href="#DejaVuSans-49"/>
       <use x="63.623047" xlink:href="#DejaVuSans-46"/>
       <use x="95.410156" xlink:href="#DejaVuSans-50"/>
       <use x="159.033203" xlink:href="#DejaVuSans-53"/>
      </g>
     </g>
    </g>
    <g id="ytick_7">
     <g id="line2d_13">
      <g>
       <use style="stroke:#000000;stroke-width:0.8;" x="185.4" xlink:href="#mbfb5bf9f91" y="148.5"/>
      </g>
     </g>
     <g id="text_14">
      <!-- 1.50 -->
      <g transform="translate(156.134375 152.299219)scale(0.1 -0.1)">
       <use xlink:href="#DejaVuSans-49"/>
       <use x="63.623047" xlink:href="#DejaVuSans-46"/>
       <use x="95.410156" xlink:href="#DejaVuSans-53"/>
       <use x="159.033203" xlink:href="#DejaVuSans-48"/>
      </g>
     </g>
    </g>
    <g id="ytick_8">
     <g id="line2d_14">
      <g>
       <use style="stroke:#000000;stroke-width:0.8;" x="185.4" xlink:href="#mbfb5bf9f91" y="102.762"/>
      </g>
     </g>
     <g id="text_15">
      <!-- 1.75 -->
      <g transform="translate(156.134375 106.561219)scale(0.1 -0.1)">
       <use xlink:href="#DejaVuSans-49"/>
       <use x="63.623047" xlink:href="#DejaVuSans-46"/>
       <use x="95.410156" xlink:href="#DejaVuSans-55"/>
       <use x="159.033203" xlink:href="#DejaVuSans-53"/>
      </g>
     </g>
    </g>
    <g id="ytick_9">
     <g id="line2d_15">
      <g>
       <use style="stroke:#000000;stroke-width:0.8;" x="185.4" xlink:href="#mbfb5bf9f91" y="57.024"/>
      </g>
     </g>
     <g id="text_16">
      <!-- 2.00 -->
      <g transform="translate(156.134375 60.823219)scale(0.1 -0.1)">
       <use xlink:href="#DejaVuSans-50"/>
       <use x="63.623047" xlink:href="#DejaVuSans-46"/>
       <use x="95.410156" xlink:href="#DejaVuSans-48"/>
       <use x="159.033203" xlink:href="#DejaVuSans-48"/>
      </g>
     </g>
    </g>
    <g id="text_17">
     <!-- $\theta_1$ -->
     <g transform="translate(150.054688 245.426)rotate(-90)scale(0.1 -0.1)">
      <use transform="translate(0 0.234375)" xlink:href="#DejaVuSans-Oblique-952"/>
      <use transform="translate(61.181641 -16.171875)scale(0.7)" xlink:href="#DejaVuSans-49"/>
     </g>
    </g>
   </g>
   <g id="LineCollection_1">
    <path clip-path="url(#pd6e84a77a5)" d="M 393.946471 227.16936 
L 394.776357 229.91473 
L 395.15635 230.886321 
L 397.436311 234.725695 
L 400.856251 239.166757 
L 402.756218 241.347739 
L 403.896198 242.56316 
L 406.936145 245.646152 
L 413.396033 251.310096 
L 418.71594 255.277448 
L 422.895868 257.985662 
L 424.415841 258.843975 
L 427.835782 260.568192 
L 430.875729 261.753768 
L 432.015709 262.070836 
L 433.535683 262.309537 
L 434.675663 262.337149 
L 435.815643 262.15413 
L 436.57563 261.780523 
L 436.955623 261.314182 
L 437.533932 260.10072 
L 437.335617 258.042077 
L 436.57563 255.921688 
L 435.43565 253.704682 
L 434.675663 252.418954 
L 432.015709 248.701113 
L 428.595769 244.697178 
L 425.555821 241.520532 
L 419.855921 236.300167 
L 412.636046 230.775805 
L 406.556152 227.028268 
L 402.376225 225.061605 
L 399.716271 224.209861 
L 398.196298 223.898622 
L 397.056317 223.822686 
L 395.916337 223.986398 
L 395.15635 224.326402 
L 394.396364 224.996372 
L 394.14308 225.33984 
L 393.946471 227.16936 
L 393.946471 227.16936 
" style="fill:none;stroke:#440154;stroke-width:1.5;"/>
   </g>
   <g id="LineCollection_2">
    <path clip-path="url(#pd6e84a77a5)" d="M 381.687506 218.02176 
L 382.236575 220.546912 
L 382.616569 221.770801 
L 384.252187 225.33984 
L 387.673889 230.8284 
L 392.496397 237.016072 
L 395.916337 240.890536 
L 398.956284 244.090199 
L 404.276192 249.244885 
L 411.496066 255.469179 
L 415.675993 258.752827 
L 421.375894 262.832441 
L 425.596458 265.58928 
L 431.635716 268.990233 
L 433.535683 269.911214 
L 436.955623 271.397321 
L 440.375564 272.532532 
L 442.275531 272.986488 
L 444.175498 273.20212 
L 445.695471 273.178993 
L 447.150945 272.90736 
L 447.975431 272.475891 
L 448.735418 271.839593 
L 449.349265 271.07784 
L 449.813151 269.24832 
L 449.707803 267.4188 
L 449.115412 265.173028 
L 448.355425 263.209172 
L 447.215445 260.872514 
L 446.455458 259.502304 
L 444.555491 256.432595 
L 439.99557 250.373176 
L 436.195636 245.967562 
L 433.915676 243.503878 
L 427.075795 236.827774 
L 424.415841 234.423727 
L 416.815974 228.199743 
L 412.256053 224.828001 
L 406.936145 221.262111 
L 401.455908 218.02176 
L 396.676324 215.682028 
L 392.87639 214.175261 
L 390.216436 213.43594 
L 387.936476 213.038608 
L 386.416502 212.973675 
L 385.276522 213.088849 
L 384.136542 213.414121 
L 383.376555 213.799079 
L 382.616569 214.385874 
L 381.856582 215.937572 
L 381.76727 216.19224 
L 381.687506 218.02176 
L 381.687506 218.02176 
" style="fill:none;stroke:#440154;stroke-width:1.5;"/>
   </g>
   <g id="LineCollection_3">
    <path clip-path="url(#pd6e84a77a5)" d="M 368.031131 208.87416 
L 368.556813 211.120402 
L 369.3168 213.359432 
L 370.076787 215.188495 
L 371.216767 217.5584 
L 372.356747 219.664959 
L 373.496727 221.588226 
L 374.717013 223.51032 
L 379.196628 229.74953 
L 382.236575 233.555732 
L 385.276522 237.114959 
L 389.540204 241.80552 
L 397.436311 249.673341 
L 403.516205 255.20916 
L 409.596099 260.356292 
L 417.195967 266.257016 
L 422.895868 270.320374 
L 427.455788 273.343026 
L 433.535683 277.019673 
L 438.85559 279.873769 
L 441.895537 281.317077 
L 445.315478 282.765702 
L 449.115412 284.111079 
L 452.155359 284.890777 
L 454.435319 285.283673 
L 456.335286 285.423606 
L 457.85526 285.359633 
L 459.375233 285.072845 
L 460.515213 284.653247 
L 461.655193 283.98709 
L 462.035187 283.623423 
L 462.795174 282.588992 
L 463.175167 281.812112 
L 463.560686 280.22544 
L 463.55516 278.222519 
L 463.175167 276.025389 
L 462.795174 274.569429 
L 461.474576 271.07784 
L 458.99524 266.308808 
L 457.473124 263.75976 
L 453.295339 257.754187 
L 449.401578 252.78264 
L 442.655524 245.141584 
L 436.195636 238.56271 
L 433.535683 236.016131 
L 426.315808 229.534037 
L 422.895868 226.654448 
L 416.43598 221.523209 
L 408.456119 215.762972 
L 402.376225 211.800432 
L 397.056317 208.649085 
L 391.356417 205.683802 
L 388.316469 204.299561 
L 384.896529 202.926619 
L 381.096595 201.697152 
L 379.196628 201.247965 
L 376.916668 200.886929 
L 375.016701 200.770481 
L 373.496727 200.847204 
L 371.976754 201.134743 
L 370.801488 201.55608 
L 369.696793 202.358482 
L 368.764047 203.3856 
L 368.17682 204.812202 
L 368.044594 205.21512 
L 367.872502 207.04464 
L 368.031131 208.87416 
L 368.031131 208.87416 
" style="fill:none;stroke:#440256;stroke-width:1.5;"/>
   </g>
   <g id="LineCollection_4">
    <path clip-path="url(#pd6e84a77a5)" d="M 351.376475 196.06752 
L 351.837104 198.627926 
L 352.217098 200.120538 
L 353.319756 203.3856 
L 355.637038 208.438957 
L 356.83591 210.70368 
L 360.576952 216.814455 
L 363.930977 221.6808 
L 369.696793 229.148545 
L 376.156681 236.679902 
L 382.641348 243.63504 
L 391.356417 252.211835 
L 395.536344 256.082394 
L 399.336278 259.466616 
L 404.331267 263.75976 
L 413.776026 271.338202 
L 422.135881 277.508105 
L 427.835782 281.42999 
L 432.395702 284.391204 
L 438.85559 288.295693 
L 444.555491 291.445785 
L 450.635385 294.431626 
L 454.055326 295.91797 
L 457.85526 297.383832 
L 461.655193 298.623278 
L 465.075134 299.453202 
L 467.735088 299.90178 
L 470.015048 300.092873 
L 471.915015 300.065263 
L 473.814982 299.805484 
L 475.334955 299.37144 
L 476.854929 298.662934 
L 477.614916 298.094267 
L 478.754896 296.887317 
L 479.134889 296.264928 
L 479.762797 294.8616 
L 480.131861 293.03208 
L 480.187399 291.20256 
L 479.894876 288.760268 
L 479.514883 286.986384 
L 478.754896 284.447027 
L 477.994909 282.397714 
L 477.234922 280.617698 
L 476.194101 278.39592 
L 473.054995 272.744731 
L 469.255061 266.915313 
L 465.455127 261.684424 
L 460.13522 255.039221 
L 457.475266 251.932709 
L 453.295339 247.253729 
L 445.315478 238.989886 
L 440.375564 234.195691 
L 432.395702 226.922809 
L 424.035848 219.843339 
L 414.536013 212.433417 
L 405.796165 206.19901 
L 400.096264 202.430575 
L 394.776357 199.141728 
L 388.696463 195.678084 
L 382.616569 192.567803 
L 379.196628 191.008293 
L 375.776688 189.597696 
L 371.976754 188.227718 
L 368.17682 187.11593 
L 365.516866 186.546088 
L 362.856912 186.186488 
L 360.576952 186.089264 
L 358.676985 186.211852 
L 357.157012 186.487765 
L 355.637038 186.981715 
L 354.497058 187.631748 
L 353.357078 188.543338 
L 352.977084 188.971754 
L 351.994603 190.57896 
L 351.456752 192.40848 
L 351.289471 194.238 
L 351.376475 196.06752 
L 351.376475 196.06752 
" style="fill:none;stroke:#450457;stroke-width:1.5;"/>
   </g>
   <g id="LineCollection_5">
    <path clip-path="url(#pd6e84a77a5)" d="M 330.894927 181.43136 
L 331.584475 185.0904 
L 332.837435 189.147882 
L 334.357408 192.95799 
L 335.877382 196.234753 
L 338.721517 201.55608 
L 342.717263 208.034455 
L 345.377217 211.977281 
L 348.03717 215.698068 
L 350.697124 219.240916 
L 354.043159 223.51032 
L 361.762819 232.65792 
L 370.160984 241.80552 
L 379.576621 251.295343 
L 387.936476 259.171111 
L 394.396364 264.94967 
L 400.096264 269.839422 
L 408.307419 276.5664 
L 418.335947 284.261434 
L 426.695802 290.258852 
L 433.535683 294.889558 
L 442.655524 300.618933 
L 450.255392 304.988184 
L 455.955293 308.006165 
L 462.41518 311.108682 
L 466.215114 312.751094 
L 470.015048 314.242112 
L 474.194975 315.685929 
L 478.374902 316.892137 
L 482.174836 317.697108 
L 485.214783 318.124281 
L 487.874737 318.283842 
L 490.154698 318.209596 
L 492.054664 317.953855 
L 493.954631 317.470042 
L 495.594494 316.81584 
L 496.994579 315.91357 
L 498.134559 314.928769 
L 499.274539 313.388177 
L 499.654532 312.645703 
L 500.186432 311.32728 
L 500.592779 309.49776 
L 500.742594 307.66824 
L 500.695171 305.83872 
L 500.414519 303.611557 
L 500.034526 301.704371 
L 499.164751 298.52064 
L 497.754565 294.685249 
L 495.854598 290.467777 
L 493.954631 286.779787 
L 491.674671 282.78654 
L 489.774704 279.703042 
L 486.354764 274.548249 
L 481.16646 267.4188 
L 474.194975 258.730386 
L 470.67911 254.61216 
L 462.360399 245.46456 
L 453.295339 236.233645 
L 443.736928 227.16936 
L 433.155689 217.829733 
L 423.655855 210.003557 
L 416.055987 204.09706 
L 409.976093 199.590876 
L 400.476258 192.974327 
L 395.15635 189.490266 
L 389.45645 185.94371 
L 383.756549 182.601563 
L 377.296661 179.083497 
L 370.836774 175.879072 
L 364.756879 173.221276 
L 360.196959 171.474142 
L 356.017031 170.096356 
L 351.837104 168.989136 
L 348.797157 168.385454 
L 345.75721 168.009243 
L 343.097256 167.899948 
L 340.817296 168.021873 
L 338.917329 168.320637 
L 337.397355 168.735335 
L 335.877382 169.399992 
L 334.357408 170.33969 
L 333.597421 171.029432 
L 332.457441 172.383349 
L 331.556942 174.11328 
L 331.020955 175.9428 
L 330.77703 177.77232 
L 330.750445 179.60184 
L 330.894927 181.43136 
L 330.894927 181.43136 
" style="fill:none;stroke:#46075a;stroke-width:1.5;"/>
   </g>
   <g id="LineCollection_6">
    <path clip-path="url(#pd6e84a77a5)" d="M 304.956024 161.30664 
L 305.44263 164.96568 
L 306.297223 168.62472 
L 307.757871 173.12354 
L 308.897851 176.08041 
L 311.309224 181.43136 
L 314.597752 187.67427 
L 317.355863 192.40848 
L 322.19762 199.936775 
L 327.517527 207.474203 
L 332.837435 214.48274 
L 340.189318 223.51032 
L 348.797157 233.339031 
L 355.257045 240.314995 
L 363.831582 249.1236 
L 374.256714 259.222838 
L 381.476588 265.888915 
L 391.512214 274.73688 
L 402.756218 284.105628 
L 413.01604 292.181968 
L 420.615907 297.885084 
L 427.455788 302.810845 
L 435.815643 308.560564 
L 443.415511 313.525697 
L 452.155359 318.90453 
L 460.895207 323.903875 
L 465.835121 326.543349 
L 472.675002 329.966539 
L 479.514883 333.08003 
L 484.074803 334.960227 
L 488.254731 336.522913 
L 492.434658 337.917823 
L 496.994579 339.223514 
L 501.174506 340.17648 
L 504.594446 340.753599 
L 508.014387 341.089201 
L 511.054334 341.152205 
L 513.714288 340.974566 
L 516.01245 340.5996 
L 517.894215 340.056344 
L 519.794182 339.265233 
L 521.314155 338.372377 
L 522.834129 337.137658 
L 523.594116 336.302644 
L 524.490044 335.11104 
L 525.494083 333.127272 
L 526.048167 331.452 
L 526.410097 329.62248 
L 526.57805 327.79296 
L 526.587904 325.96344 
L 526.254069 322.494506 
L 525.896976 320.47488 
L 524.734096 316.047148 
L 523.594116 312.684495 
L 522.074142 308.899277 
L 520.174175 304.767037 
L 518.654202 301.756504 
L 515.614255 296.274248 
L 512.194314 290.677367 
L 508.39438 284.938784 
L 504.594446 279.565047 
L 500.034526 273.486227 
L 496.234592 268.667481 
L 490.534691 261.773352 
L 482.55483 252.685659 
L 473.434988 242.946743 
L 466.215114 235.632501 
L 458.615246 228.266285 
L 451.015379 221.205734 
L 441.895537 213.107654 
L 435.43565 207.600996 
L 428.975762 202.277902 
L 421.755888 196.536148 
L 415.675993 191.872245 
L 406.461758 185.0904 
L 395.910981 177.77232 
L 385.656516 171.135278 
L 378.816635 166.969264 
L 373.496727 163.898562 
L 367.03684 160.36525 
L 360.576952 157.070746 
L 353.737071 153.869526 
L 347.277183 151.174004 
L 342.337269 149.345927 
L 337.777349 147.871831 
L 333.217428 146.631054 
L 329.037501 145.76996 
L 325.61756 145.274645 
L 322.577613 145.039435 
L 319.91766 145.035538 
L 317.637699 145.220989 
L 315.357739 145.624751 
L 313.457772 146.16838 
L 311.937798 146.780187 
L 310.417825 147.650096 
L 309.237007 148.5 
L 308.137864 149.594553 
L 307.377878 150.51639 
L 306.383071 152.15904 
L 305.649859 153.98856 
L 305.097917 156.523788 
L 304.954502 157.6476 
L 304.884549 159.47712 
L 304.956024 161.30664 
L 304.956024 161.30664 
" style="fill:none;stroke:#460b5e;stroke-width:1.5;"/>
   </g>
   <g id="LineCollection_7">
    <path clip-path="url(#pd6e84a77a5)" d="M 272.406117 139.3524 
L 273.178473 143.615277 
L 273.93846 146.682088 
L 275.458433 151.469028 
L 276.598413 154.540066 
L 278.49838 159.081075 
L 280.018354 162.362944 
L 282.229566 166.7952 
L 286.478241 174.447498 
L 290.747243 181.43136 
L 296.358069 189.85527 
L 300.158003 195.218265 
L 304.856951 201.55608 
L 312.697785 211.510384 
L 318.777679 218.823605 
L 325.237567 226.269279 
L 331.697455 233.427873 
L 339.297322 241.532314 
L 344.997223 247.406772 
L 356.017031 258.321152 
L 367.796826 269.411521 
L 379.196628 279.633151 
L 386.796496 286.19188 
L 397.436311 295.044979 
L 409.216106 304.406523 
L 419.855921 312.477148 
L 428.215775 318.568814 
L 435.055656 323.374838 
L 443.035517 328.792079 
L 451.395372 334.235099 
L 459.375233 339.202013 
L 468.495074 344.586404 
L 477.813814 349.7472 
L 486.354764 354.133096 
L 493.574638 357.571337 
L 500.794512 360.731683 
L 507.634393 363.416602 
L 513.334294 365.40888 
L 518.274208 366.92272 
L 523.214122 368.212959 
L 527.774043 369.154446 
L 531.95397 369.79191 
L 535.373911 370.099856 
L 538.793851 370.186299 
L 541.833798 370.038324 
L 544.493752 369.684911 
L 546.773712 369.166938 
L 549.053673 368.417149 
L 550.573646 367.7411 
L 552.473613 366.628117 
L 553.613593 365.775646 
L 555.133567 364.348264 
L 556.529189 362.55384 
L 557.558996 360.72432 
L 558.299908 358.8948 
L 558.933501 356.460913 
L 559.154633 355.23576 
L 559.342746 353.40624 
L 559.353886 349.7472 
L 558.933501 345.846115 
L 558.173514 341.97345 
L 557.340416 338.77008 
L 555.893554 334.334255 
L 554.37358 330.357166 
L 552.853607 326.806356 
L 550.95364 322.75271 
L 549.053673 319.008574 
L 546.876444 314.98632 
L 542.213792 307.105716 
L 538.033864 300.600906 
L 534.993917 296.130493 
L 530.054003 289.20876 
L 523.214122 280.202833 
L 515.234261 270.355854 
L 508.774374 262.78581 
L 502.694479 255.937978 
L 494.334625 246.903772 
L 485.214783 237.487875 
L 476.474936 228.834216 
L 465.455127 218.398315 
L 458.99524 212.49847 
L 446.533506 201.55608 
L 434.295669 191.339237 
L 425.935815 184.639523 
L 415.296 176.442073 
L 407.696132 170.808407 
L 400.856251 165.900943 
L 392.116403 159.847854 
L 385.276522 155.291693 
L 375.776688 149.23171 
L 368.17682 144.614499 
L 358.676985 139.159631 
L 349.557144 134.279032 
L 343.47725 131.236097 
L 336.637369 128.028901 
L 329.417494 124.926533 
L 324.097587 122.84698 
L 317.637699 120.601503 
L 311.937798 118.899015 
L 306.997884 117.678839 
L 303.19795 116.932545 
L 299.018023 116.336949 
L 295.598083 116.05503 
L 292.178142 116.004076 
L 289.138195 116.199254 
L 286.478241 116.599706 
L 284.198281 117.151182 
L 282.298314 117.81643 
L 280.398347 118.710946 
L 278.878374 119.642715 
L 277.111824 121.0572 
L 275.838426 122.444002 
L 275.07844 123.468939 
L 274.302148 124.71624 
L 273.45462 126.54576 
L 272.798479 128.607502 
L 272.418486 130.40726 
L 272.202327 132.03432 
L 272.092421 133.86384 
L 272.207917 137.52288 
L 272.406117 139.3524 
L 272.406117 139.3524 
" style="fill:none;stroke:#471365;stroke-width:1.5;"/>
   </g>
   <g id="LineCollection_8">
    <path clip-path="url(#pd6e84a77a5)" d="M 230.56938 108.25056 
L 231.110346 111.9096 
L 232.139187 116.624088 
L 232.899174 119.45473 
L 234.580288 124.71624 
L 236.699107 130.305242 
L 239.359061 136.425885 
L 241.639021 141.201408 
L 245.457882 148.5 
L 249.998876 156.410638 
L 254.178803 163.195864 
L 260.258698 172.41255 
L 266.718585 181.58036 
L 273.93846 191.239747 
L 280.598784 199.72656 
L 289.898182 210.997456 
L 299.154974 221.6808 
L 310.037831 233.653665 
L 317.735507 241.80552 
L 329.797488 254.088002 
L 337.397355 261.558887 
L 344.61723 268.474422 
L 353.357078 276.63258 
L 366.276853 288.2677 
L 376.916668 297.502672 
L 387.176489 306.124435 
L 399.716271 316.289382 
L 408.456119 323.13951 
L 419.095934 331.225284 
L 427.075795 337.103045 
L 439.717472 346.08816 
L 452.535352 354.776345 
L 460.895207 360.211765 
L 469.255061 365.455854 
L 477.994909 370.726847 
L 487.11475 375.984719 
L 496.614585 381.182206 
L 506.11442 386.069909 
L 512.954301 389.379131 
L 520.174175 392.668835 
L 527.39405 395.732045 
L 534.993917 398.674838 
L 541.073812 400.804443 
L 546.393719 402.475865 
L 551.713626 403.948998 
L 556.65354 405.119894 
L 561.593455 406.068867 
L 565.773382 406.673146 
L 569.953309 407.056416 
L 573.753243 407.187835 
L 577.173183 407.093577 
L 580.213131 406.808151 
L 582.873084 406.370206 
L 585.533038 405.701068 
L 587.812998 404.926567 
L 589.712965 404.083707 
L 591.992926 402.797715 
L 593.892893 401.379101 
L 595.032873 400.337317 
L 596.552846 398.641873 
L 597.692826 397.040053 
L 598.832807 394.964893 
L 599.592793 393.160407 
L 600.35278 390.674385 
L 600.732774 388.882162 
L 601.081331 386.3376 
L 601.221387 382.67856 
L 601.028649 379.01952 
L 600.560943 375.36048 
L 599.860551 371.70144 
L 598.832807 367.605113 
L 597.692826 363.820293 
L 595.971021 358.8948 
L 593.512899 352.854625 
L 591.232939 347.831154 
L 587.599832 340.5996 
L 583.253078 332.770124 
L 579.07315 325.79925 
L 573.753243 317.524586 
L 569.547941 311.32728 
L 562.353441 301.313044 
L 556.65354 293.780251 
L 551.333633 287.016292 
L 544.113759 278.185796 
L 534.903733 267.4188 
L 524.354102 255.669403 
L 515.994248 246.727971 
L 506.494413 236.922013 
L 498.894545 229.321322 
L 491.674671 222.290789 
L 483.314817 214.35663 
L 470.015048 202.185818 
L 461.023688 194.238 
L 447.595438 182.787373 
L 435.815643 173.127932 
L 425.935815 165.295158 
L 417.57596 158.8614 
L 406.131312 150.32952 
L 392.87639 140.865541 
L 381.096595 132.830022 
L 371.49929 126.54576 
L 359.436972 119.012014 
L 348.417164 112.495805 
L 340.437302 108.005249 
L 330.557474 102.735461 
L 320.677646 97.819604 
L 313.457772 94.465797 
L 306.237898 91.333459 
L 298.63803 88.303014 
L 292.938129 86.231166 
L 286.098248 84.006842 
L 280.018354 82.291791 
L 274.318453 80.946348 
L 269.758532 80.090562 
L 265.198612 79.449429 
L 261.018684 79.086279 
L 257.21875 78.983048 
L 253.79881 79.11372 
L 250.758863 79.443303 
L 247.718916 80.013363 
L 245.058962 80.7473 
L 243.158995 81.465872 
L 240.879035 82.552235 
L 239.359061 83.485065 
L 237.839088 84.589287 
L 235.939121 86.354116 
L 234.419147 88.2035 
L 233.279167 89.986184 
L 232.139187 92.383888 
L 231.3792 94.591168 
L 230.999207 96.06588 
L 230.619213 98.122368 
L 230.323131 100.93248 
L 230.289465 104.59152 
L 230.56938 108.25056 
L 230.56938 108.25056 
" style="fill:none;stroke:#481d6f;stroke-width:1.5;"/>
   </g>
   <g id="LineCollection_9">
    <path clip-path="url(#pd6e84a77a5)" d="M 185.4 98.554952 
L 187.299967 103.005905 
L 190.588006 110.08008 
L 194.899835 118.508771 
L 197.939782 124.052012 
L 201.48721 130.2048 
L 207.439617 139.90102 
L 213.042534 148.5 
L 220.617096 159.47712 
L 228.719246 170.57732 
L 237.079101 181.479043 
L 246.578936 193.303084 
L 254.178803 202.404575 
L 262.158664 211.660635 
L 270.518519 221.064328 
L 278.49838 229.787326 
L 288.084865 239.976 
L 301.297983 253.531487 
L 311.937798 264.086398 
L 324.47758 276.140449 
L 333.217428 284.312641 
L 346.137203 296.067426 
L 356.017031 304.806817 
L 367.82793 314.98632 
L 383.189332 327.79296 
L 398.196298 339.847289 
L 409.216106 348.422334 
L 422.135881 358.175267 
L 433.155689 366.242626 
L 447.595438 376.44717 
L 458.235253 383.704328 
L 468.875068 390.732018 
L 480.274869 397.999431 
L 491.674671 404.986494 
L 503.547318 411.95088 
L 515.614255 418.675818 
L 523.600887 422.928 
L 523.600887 422.928 
" style="fill:none;stroke:#472f7d;stroke-width:1.5;"/>
    <path clip-path="url(#pd6e84a77a5)" d="M 603.392727 316.442884 
L 595.412866 305.987933 
L 589.712965 298.79104 
L 583.531703 291.20256 
L 572.703837 278.39592 
L 561.213461 265.386148 
L 549.626638 252.78264 
L 536.893884 239.463863 
L 525.494083 227.954531 
L 515.614255 218.268238 
L 507.2544 210.272308 
L 494.714618 198.596711 
L 484.454797 189.312841 
L 474.574969 180.592757 
L 462.786525 170.45424 
L 447.392054 157.6476 
L 432.395702 145.628313 
L 421.375894 137.072099 
L 408.076126 127.059801 
L 397.816304 119.568972 
L 388.316469 112.818126 
L 376.916668 104.948995 
L 367.416833 98.59273 
L 355.257045 90.728195 
L 344.997223 84.334187 
L 332.457441 76.842037 
L 320.677646 70.138945 
L 312.317792 65.592588 
L 302.05797 60.263959 
L 295.527546 57.024 
L 295.527546 57.024 
" style="fill:none;stroke:#472f7d;stroke-width:1.5;"/>
   </g>
   <g id="LineCollection_10">
    <path clip-path="url(#pd6e84a77a5)" d="M 185.4 163.214651 
L 195.659821 176.058723 
L 206.67963 189.334707 
L 216.939451 201.28052 
L 224.919312 210.321309 
L 233.524425 219.85128 
L 247.338922 234.706257 
L 260.638691 248.54363 
L 270.518519 258.555601 
L 284.578274 272.434494 
L 294.838096 282.308715 
L 309.657838 296.212283 
L 320.297653 305.949201 
L 336.257375 320.181896 
L 347.114433 329.62248 
L 363.616899 343.602278 
L 375.776688 353.632439 
L 391.73641 366.449764 
L 407.696132 378.881393 
L 418.71594 387.239011 
L 432.015709 397.087038 
L 443.035517 405.042631 
L 457.85526 415.452301 
L 468.807996 422.928 
L 468.807996 422.928 
" style="fill:none;stroke:#3e4989;stroke-width:1.5;"/>
    <path clip-path="url(#pd6e84a77a5)" d="M 603.392727 272.319547 
L 592.228764 260.10072 
L 578.313164 245.349527 
L 564.154823 230.8284 
L 549.053673 215.836892 
L 534.993917 202.300531 
L 523.594116 191.603928 
L 510.67434 179.765908 
L 500.034526 170.238347 
L 484.454797 156.63204 
L 471.915015 145.965848 
L 458.235253 134.61351 
L 445.695471 124.460062 
L 429.735749 111.884297 
L 412.989861 99.10296 
L 396.676324 87.059828 
L 384.136542 78.073656 
L 371.216767 69.066082 
L 357.916998 60.063881 
L 353.334283 57.024 
L 353.334283 57.024 
" style="fill:none;stroke:#3e4989;stroke-width:1.5;"/>
   </g>
   <g id="LineCollection_11">
    <path clip-path="url(#pd6e84a77a5)" d="M 185.4 217.478009 
L 196.120166 228.99888 
L 211.83397 245.46456 
L 228.005183 261.93024 
L 244.678969 278.437782 
L 261.778671 294.906521 
L 279.299402 311.32728 
L 297.352632 327.79296 
L 315.357739 343.776072 
L 328.564584 355.23576 
L 346.89719 370.775365 
L 361.716932 383.038861 
L 378.816635 396.860012 
L 392.116403 407.36987 
L 407.316139 419.129096 
L 412.302526 422.928 
L 412.302526 422.928 
" style="fill:none;stroke:#2d708e;stroke-width:1.5;"/>
    <path clip-path="url(#pd6e84a77a5)" d="M 603.392727 224.163785 
L 591.232939 212.081302 
L 576.033203 197.315532 
L 561.213461 183.257121 
L 543.353772 166.7408 
L 525.494083 150.66521 
L 512.954301 139.62934 
L 500.414519 128.795886 
L 487.494744 117.839873 
L 474.194975 106.775494 
L 461.2752 96.232901 
L 446.563107 84.4668 
L 428.215775 70.154796 
L 415.296 60.312319 
L 410.923508 57.024 
L 410.923508 57.024 
" style="fill:none;stroke:#2d708e;stroke-width:1.5;"/>
   </g>
   <g id="LineCollection_12">
    <path clip-path="url(#pd6e84a77a5)" d="M 185.4 278.156494 
L 198.699769 291.208589 
L 217.720544 309.49776 
L 237.201853 327.79296 
L 256.838757 345.807643 
L 270.898512 358.453791 
L 285.874576 371.70144 
L 306.237898 389.350122 
L 322.19762 402.90117 
L 342.337269 419.651264 
L 346.330155 422.928 
L 346.330155 422.928 
" style="fill:none;stroke:#24aa83;stroke-width:1.5;"/>
    <path clip-path="url(#pd6e84a77a5)" d="M 603.392727 166.887857 
L 589.531695 153.98856 
L 569.953309 136.127618 
L 555.133567 122.874436 
L 534.993917 105.226017 
L 519.341541 91.78488 
L 498.894545 74.587267 
L 481.41485 60.197881 
L 477.513481 57.024 
L 477.513481 57.024 
" style="fill:none;stroke:#24aa83;stroke-width:1.5;"/>
   </g>
   <g id="LineCollection_13">
    <path clip-path="url(#pd6e84a77a5)" d="M 185.4 350.978096 
L 202.499702 366.738923 
L 222.259359 384.647188 
L 243.918982 403.911358 
L 262.158664 419.847454 
L 265.717594 422.928 
L 265.717594 422.928 
" style="fill:none;stroke:#fde725;stroke-width:1.5;"/>
    <path clip-path="url(#pd6e84a77a5)" d="M 603.392727 96.307897 
L 584.773051 79.810774 
L 566.153375 63.585972 
L 558.535923 57.024 
L 558.535923 57.024 
" style="fill:none;stroke:#fde725;stroke-width:1.5;"/>
   </g>
   <g id="patch_3">
    <path d="M 185.4 422.928 
L 185.4 57.024 
" style="fill:none;stroke:#000000;stroke-linecap:square;stroke-linejoin:miter;stroke-width:0.8;"/>
   </g>
   <g id="patch_4">
    <path d="M 603.392727 422.928 
L 603.392727 57.024 
" style="fill:none;stroke:#000000;stroke-linecap:square;stroke-linejoin:miter;stroke-width:0.8;"/>
   </g>
   <g id="patch_5">
    <path d="M 185.4 422.928 
L 603.392727 422.928 
" style="fill:none;stroke:#000000;stroke-linecap:square;stroke-linejoin:miter;stroke-width:0.8;"/>
   </g>
   <g id="patch_6">
    <path d="M 185.4 57.024 
L 603.392727 57.024 
" style="fill:none;stroke:#000000;stroke-linecap:square;stroke-linejoin:miter;stroke-width:0.8;"/>
   </g>
  </g>
  <g id="axes_2">
   <g id="patch_7">
    <path clip-path="url(#pecd3859dde)" d="M 629.517273 422.928 
L 629.517273 392.436 
L 629.517273 87.516 
L 629.517273 57.024 
L 647.812473 57.024 
L 647.812473 87.516 
L 647.812473 392.436 
L 647.812473 422.928 
z
" style="fill:#ffffff;stroke:#ffffff;stroke-linejoin:miter;stroke-width:0.01;"/>
   </g>
   <g id="matplotlib.axis_3"/>
   <g id="matplotlib.axis_4">
    <g id="ytick_10">
     <g id="line2d_16">
      <defs>
       <path d="M 0 0 
L 3.5 0 
" id="mfa233f67c6" style="stroke:#000000;stroke-width:0.8;"/>
      </defs>
      <g>
       <use style="stroke:#000000;stroke-width:0.8;" x="647.812473" xlink:href="#mfa233f67c6" y="422.928"/>
      </g>
     </g>
     <g id="text_18">
      <!-- 0.05 -->
      <g transform="translate(654.812473 426.727219)scale(0.1 -0.1)">
       <use xlink:href="#DejaVuSans-48"/>
       <use x="63.623047" xlink:href="#DejaVuSans-46"/>
       <use x="95.410156" xlink:href="#DejaVuSans-48"/>
       <use x="159.033203" xlink:href="#DejaVuSans-53"/>
      </g>
     </g>
    </g>
    <g id="ytick_11">
     <g id="line2d_17">
      <g>
       <use style="stroke:#000000;stroke-width:0.8;" x="647.812473" xlink:href="#mfa233f67c6" y="361.944"/>
      </g>
     </g>
     <g id="text_19">
      <!-- 0.14 -->
      <g transform="translate(654.812473 365.743219)scale(0.1 -0.1)">
       <use xlink:href="#DejaVuSans-48"/>
       <use x="63.623047" xlink:href="#DejaVuSans-46"/>
       <use x="95.410156" xlink:href="#DejaVuSans-49"/>
       <use x="159.033203" xlink:href="#DejaVuSans-52"/>
      </g>
     </g>
    </g>
    <g id="ytick_12">
     <g id="line2d_18">
      <g>
       <use style="stroke:#000000;stroke-width:0.8;" x="647.812473" xlink:href="#mfa233f67c6" y="300.96"/>
      </g>
     </g>
     <g id="text_20">
      <!-- 0.37 -->
      <defs>
       <path d="M 40.578125 39.3125 
Q 47.65625 37.796875 51.625 33 
Q 55.609375 28.21875 55.609375 21.1875 
Q 55.609375 10.40625 48.1875 4.484375 
Q 40.765625 -1.421875 27.09375 -1.421875 
Q 22.515625 -1.421875 17.65625 -0.515625 
Q 12.796875 0.390625 7.625 2.203125 
L 7.625 11.71875 
Q 11.71875 9.328125 16.59375 8.109375 
Q 21.484375 6.890625 26.8125 6.890625 
Q 36.078125 6.890625 40.9375 10.546875 
Q 45.796875 14.203125 45.796875 21.1875 
Q 45.796875 27.640625 41.28125 31.265625 
Q 36.765625 34.90625 28.71875 34.90625 
L 20.21875 34.90625 
L 20.21875 43.015625 
L 29.109375 43.015625 
Q 36.375 43.015625 40.234375 45.921875 
Q 44.09375 48.828125 44.09375 54.296875 
Q 44.09375 59.90625 40.109375 62.90625 
Q 36.140625 65.921875 28.71875 65.921875 
Q 24.65625 65.921875 20.015625 65.03125 
Q 15.375 64.15625 9.8125 62.3125 
L 9.8125 71.09375 
Q 15.4375 72.65625 20.34375 73.4375 
Q 25.25 74.21875 29.59375 74.21875 
Q 40.828125 74.21875 47.359375 69.109375 
Q 53.90625 64.015625 53.90625 55.328125 
Q 53.90625 49.265625 50.4375 45.09375 
Q 46.96875 40.921875 40.578125 39.3125 
z
" id="DejaVuSans-51"/>
      </defs>
      <g transform="translate(654.812473 304.759219)scale(0.1 -0.1)">
       <use xlink:href="#DejaVuSans-48"/>
       <use x="63.623047" xlink:href="#DejaVuSans-46"/>
       <use x="95.410156" xlink:href="#DejaVuSans-51"/>
       <use x="159.033203" xlink:href="#DejaVuSans-55"/>
      </g>
     </g>
    </g>
    <g id="ytick_13">
     <g id="line2d_19">
      <g>
       <use style="stroke:#000000;stroke-width:0.8;" x="647.812473" xlink:href="#mfa233f67c6" y="239.976"/>
      </g>
     </g>
     <g id="text_21">
      <!-- 1.00 -->
      <g transform="translate(654.812473 243.775219)scale(0.1 -0.1)">
       <use xlink:href="#DejaVuSans-49"/>
       <use x="63.623047" xlink:href="#DejaVuSans-46"/>
       <use x="95.410156" xlink:href="#DejaVuSans-48"/>
       <use x="159.033203" xlink:href="#DejaVuSans-48"/>
      </g>
     </g>
    </g>
    <g id="ytick_14">
     <g id="line2d_20">
      <g>
       <use style="stroke:#000000;stroke-width:0.8;" x="647.812473" xlink:href="#mfa233f67c6" y="178.992"/>
      </g>
     </g>
     <g id="text_22">
      <!-- 2.72 -->
      <g transform="translate(654.812473 182.791219)scale(0.1 -0.1)">
       <use xlink:href="#DejaVuSans-50"/>
       <use x="63.623047" xlink:href="#DejaVuSans-46"/>
       <use x="95.410156" xlink:href="#DejaVuSans-55"/>
       <use x="159.033203" xlink:href="#DejaVuSans-50"/>
      </g>
     </g>
    </g>
    <g id="ytick_15">
     <g id="line2d_21">
      <g>
       <use style="stroke:#000000;stroke-width:0.8;" x="647.812473" xlink:href="#mfa233f67c6" y="118.008"/>
      </g>
     </g>
     <g id="text_23">
      <!-- 7.39 -->
      <defs>
       <path d="M 10.984375 1.515625 
L 10.984375 10.5 
Q 14.703125 8.734375 18.5 7.8125 
Q 22.3125 6.890625 25.984375 6.890625 
Q 35.75 6.890625 40.890625 13.453125 
Q 46.046875 20.015625 46.78125 33.40625 
Q 43.953125 29.203125 39.59375 26.953125 
Q 35.25 24.703125 29.984375 24.703125 
Q 19.046875 24.703125 12.671875 31.3125 
Q 6.296875 37.9375 6.296875 49.421875 
Q 6.296875 60.640625 12.9375 67.421875 
Q 19.578125 74.21875 30.609375 74.21875 
Q 43.265625 74.21875 49.921875 64.515625 
Q 56.59375 54.828125 56.59375 36.375 
Q 56.59375 19.140625 48.40625 8.859375 
Q 40.234375 -1.421875 26.421875 -1.421875 
Q 22.703125 -1.421875 18.890625 -0.6875 
Q 15.09375 0.046875 10.984375 1.515625 
z
M 30.609375 32.421875 
Q 37.25 32.421875 41.125 36.953125 
Q 45.015625 41.5 45.015625 49.421875 
Q 45.015625 57.28125 41.125 61.84375 
Q 37.25 66.40625 30.609375 66.40625 
Q 23.96875 66.40625 20.09375 61.84375 
Q 16.21875 57.28125 16.21875 49.421875 
Q 16.21875 41.5 20.09375 36.953125 
Q 23.96875 32.421875 30.609375 32.421875 
z
" id="DejaVuSans-57"/>
      </defs>
      <g transform="translate(654.812473 121.807219)scale(0.1 -0.1)">
       <use xlink:href="#DejaVuSans-55"/>
       <use x="63.623047" xlink:href="#DejaVuSans-46"/>
       <use x="95.410156" xlink:href="#DejaVuSans-51"/>
       <use x="159.033203" xlink:href="#DejaVuSans-57"/>
      </g>
     </g>
    </g>
    <g id="ytick_16">
     <g id="line2d_22">
      <g>
       <use style="stroke:#000000;stroke-width:0.8;" x="647.812473" xlink:href="#mfa233f67c6" y="57.024"/>
      </g>
     </g>
     <g id="text_24">
      <!-- 20.09 -->
      <g transform="translate(654.812473 60.823219)scale(0.1 -0.1)">
       <use xlink:href="#DejaVuSans-50"/>
       <use x="63.623047" xlink:href="#DejaVuSans-48"/>
       <use x="127.246094" xlink:href="#DejaVuSans-46"/>
       <use x="159.033203" xlink:href="#DejaVuSans-48"/>
       <use x="222.65625" xlink:href="#DejaVuSans-57"/>
      </g>
     </g>
    </g>
   </g>
   <g id="LineCollection_14">
    <path clip-path="url(#pecd3859dde)" d="M 629.517273 422.928 
L 647.812473 422.928 
" style="fill:none;stroke:#440154;stroke-width:1.5;"/>
    <path clip-path="url(#pecd3859dde)" d="M 629.517273 392.436 
L 647.812473 392.436 
" style="fill:none;stroke:#440154;stroke-width:1.5;"/>
    <path clip-path="url(#pecd3859dde)" d="M 629.517273 361.944 
L 647.812473 361.944 
" style="fill:none;stroke:#440256;stroke-width:1.5;"/>
    <path clip-path="url(#pecd3859dde)" d="M 629.517273 331.452 
L 647.812473 331.452 
" style="fill:none;stroke:#450457;stroke-width:1.5;"/>
    <path clip-path="url(#pecd3859dde)" d="M 629.517273 300.96 
L 647.812473 300.96 
" style="fill:none;stroke:#46075a;stroke-width:1.5;"/>
    <path clip-path="url(#pecd3859dde)" d="M 629.517273 270.468 
L 647.812473 270.468 
" style="fill:none;stroke:#460b5e;stroke-width:1.5;"/>
    <path clip-path="url(#pecd3859dde)" d="M 629.517273 239.976 
L 647.812473 239.976 
" style="fill:none;stroke:#471365;stroke-width:1.5;"/>
    <path clip-path="url(#pecd3859dde)" d="M 629.517273 209.484 
L 647.812473 209.484 
" style="fill:none;stroke:#481d6f;stroke-width:1.5;"/>
    <path clip-path="url(#pecd3859dde)" d="M 629.517273 178.992 
L 647.812473 178.992 
" style="fill:none;stroke:#472f7d;stroke-width:1.5;"/>
    <path clip-path="url(#pecd3859dde)" d="M 629.517273 148.5 
L 647.812473 148.5 
" style="fill:none;stroke:#3e4989;stroke-width:1.5;"/>
    <path clip-path="url(#pecd3859dde)" d="M 629.517273 118.008 
L 647.812473 118.008 
" style="fill:none;stroke:#2d708e;stroke-width:1.5;"/>
    <path clip-path="url(#pecd3859dde)" d="M 629.517273 87.516 
L 647.812473 87.516 
" style="fill:none;stroke:#24aa83;stroke-width:1.5;"/>
    <path clip-path="url(#pecd3859dde)" d="M 629.517273 57.024 
L 647.812473 57.024 
" style="fill:none;stroke:#fde725;stroke-width:1.5;"/>
   </g>
   <g id="patch_8">
    <path d="M 629.517273 422.928 
L 629.517273 392.436 
L 629.517273 87.516 
L 629.517273 57.024 
L 647.812473 57.024 
L 647.812473 87.516 
L 647.812473 392.436 
L 647.812473 422.928 
z
" style="fill:none;stroke:#000000;stroke-linejoin:miter;stroke-width:0.8;"/>
   </g>
  </g>
  <g id="axes_3">
   <g id="patch_9">
    <path d="M 812.389091 422.928 
L 1334.88 422.928 
L 1334.88 57.024 
L 812.389091 57.024 
z
" style="fill:none;"/>
   </g>
   <g id="PathCollection_2">
    <defs>
     <path d="M -3 3 
L 3 -3 
M -3 -3 
L 3 3 
" id="mcf6555fa7b" style="stroke:#b22222;stroke-width:1.5;"/>
    </defs>
    <g clip-path="url(#p8ea174c719)">
     <use style="fill:#b22222;stroke:#b22222;stroke-width:1.5;" x="850.885661" xlink:href="#mcf6555fa7b" y="370.188118"/>
     <use style="fill:#b22222;stroke:#b22222;stroke-width:1.5;" x="891.32826" xlink:href="#mcf6555fa7b" y="336.524834"/>
     <use style="fill:#b22222;stroke:#b22222;stroke-width:1.5;" x="942.232876" xlink:href="#mcf6555fa7b" y="303.827263"/>
     <use style="fill:#b22222;stroke:#b22222;stroke-width:1.5;" x="996.853319" xlink:href="#mcf6555fa7b" y="278.447475"/>
     <use style="fill:#b22222;stroke:#b22222;stroke-width:1.5;" x="1044.858484" xlink:href="#mcf6555fa7b" y="255.365962"/>
     <use style="fill:#b22222;stroke:#b22222;stroke-width:1.5;" x="1087.725922" xlink:href="#mcf6555fa7b" y="195.857663"/>
     <use style="fill:#b22222;stroke:#b22222;stroke-width:1.5;" x="1148.786897" xlink:href="#mcf6555fa7b" y="165.114021"/>
     <use style="fill:#b22222;stroke:#b22222;stroke-width:1.5;" x="1195.627405" xlink:href="#mcf6555fa7b" y="148.398178"/>
     <use style="fill:#b22222;stroke:#b22222;stroke-width:1.5;" x="1238.070855" xlink:href="#mcf6555fa7b" y="138.862312"/>
     <use style="fill:#b22222;stroke:#b22222;stroke-width:1.5;" x="1286.399502" xlink:href="#mcf6555fa7b" y="87.832781"/>
    </g>
   </g>
   <g id="matplotlib.axis_5">
    <g id="xtick_7">
     <g id="line2d_23">
      <g>
       <use style="stroke:#000000;stroke-width:0.8;" x="837.26961" xlink:href="#m352b3ba4e1" y="422.928"/>
      </g>
     </g>
     <g id="text_25">
      <!-- 0 -->
      <g transform="translate(834.08836 437.526437)scale(0.1 -0.1)">
       <use xlink:href="#DejaVuSans-48"/>
      </g>
     </g>
    </g>
    <g id="xtick_8">
     <g id="line2d_24">
      <g>
       <use style="stroke:#000000;stroke-width:0.8;" x="936.791688" xlink:href="#m352b3ba4e1" y="422.928"/>
      </g>
     </g>
     <g id="text_26">
      <!-- 2 -->
      <g transform="translate(933.610438 437.526437)scale(0.1 -0.1)">
       <use xlink:href="#DejaVuSans-50"/>
      </g>
     </g>
    </g>
    <g id="xtick_9">
     <g id="line2d_25">
      <g>
       <use style="stroke:#000000;stroke-width:0.8;" x="1036.313766" xlink:href="#m352b3ba4e1" y="422.928"/>
      </g>
     </g>
     <g id="text_27">
      <!-- 4 -->
      <g transform="translate(1033.132516 437.526437)scale(0.1 -0.1)">
       <use xlink:href="#DejaVuSans-52"/>
      </g>
     </g>
    </g>
    <g id="xtick_10">
     <g id="line2d_26">
      <g>
       <use style="stroke:#000000;stroke-width:0.8;" x="1135.835844" xlink:href="#m352b3ba4e1" y="422.928"/>
      </g>
     </g>
     <g id="text_28">
      <!-- 6 -->
      <g transform="translate(1132.654594 437.526437)scale(0.1 -0.1)">
       <use xlink:href="#DejaVuSans-54"/>
      </g>
     </g>
    </g>
    <g id="xtick_11">
     <g id="line2d_27">
      <g>
       <use style="stroke:#000000;stroke-width:0.8;" x="1235.357922" xlink:href="#m352b3ba4e1" y="422.928"/>
      </g>
     </g>
     <g id="text_29">
      <!-- 8 -->
      <defs>
       <path d="M 31.78125 34.625 
Q 24.75 34.625 20.71875 30.859375 
Q 16.703125 27.09375 16.703125 20.515625 
Q 16.703125 13.921875 20.71875 10.15625 
Q 24.75 6.390625 31.78125 6.390625 
Q 38.8125 6.390625 42.859375 10.171875 
Q 46.921875 13.96875 46.921875 20.515625 
Q 46.921875 27.09375 42.890625 30.859375 
Q 38.875 34.625 31.78125 34.625 
z
M 21.921875 38.8125 
Q 15.578125 40.375 12.03125 44.71875 
Q 8.5 49.078125 8.5 55.328125 
Q 8.5 64.0625 14.71875 69.140625 
Q 20.953125 74.21875 31.78125 74.21875 
Q 42.671875 74.21875 48.875 69.140625 
Q 55.078125 64.0625 55.078125 55.328125 
Q 55.078125 49.078125 51.53125 44.71875 
Q 48 40.375 41.703125 38.8125 
Q 48.828125 37.15625 52.796875 32.3125 
Q 56.78125 27.484375 56.78125 20.515625 
Q 56.78125 9.90625 50.3125 4.234375 
Q 43.84375 -1.421875 31.78125 -1.421875 
Q 19.734375 -1.421875 13.25 4.234375 
Q 6.78125 9.90625 6.78125 20.515625 
Q 6.78125 27.484375 10.78125 32.3125 
Q 14.796875 37.15625 21.921875 38.8125 
z
M 18.3125 54.390625 
Q 18.3125 48.734375 21.84375 45.5625 
Q 25.390625 42.390625 31.78125 42.390625 
Q 38.140625 42.390625 41.71875 45.5625 
Q 45.3125 48.734375 45.3125 54.390625 
Q 45.3125 60.0625 41.71875 63.234375 
Q 38.140625 66.40625 31.78125 66.40625 
Q 25.390625 66.40625 21.84375 63.234375 
Q 18.3125 60.0625 18.3125 54.390625 
z
" id="DejaVuSans-56"/>
      </defs>
      <g transform="translate(1232.176672 437.526437)scale(0.1 -0.1)">
       <use xlink:href="#DejaVuSans-56"/>
      </g>
     </g>
    </g>
    <g id="xtick_12">
     <g id="line2d_28">
      <g>
       <use style="stroke:#000000;stroke-width:0.8;" x="1334.88" xlink:href="#m352b3ba4e1" y="422.928"/>
      </g>
     </g>
     <g id="text_30">
      <!-- 10 -->
      <g transform="translate(1328.5175 437.526437)scale(0.1 -0.1)">
       <use xlink:href="#DejaVuSans-49"/>
       <use x="63.623047" xlink:href="#DejaVuSans-48"/>
      </g>
     </g>
    </g>
    <g id="text_31">
     <!-- x -->
     <defs>
      <path d="M 54.890625 54.6875 
L 35.109375 28.078125 
L 55.90625 0 
L 45.3125 0 
L 29.390625 21.484375 
L 13.484375 0 
L 2.875 0 
L 24.125 28.609375 
L 4.6875 54.6875 
L 15.28125 54.6875 
L 29.78125 35.203125 
L 44.28125 54.6875 
z
" id="DejaVuSans-120"/>
     </defs>
     <g transform="translate(1070.67517 451.204563)scale(0.1 -0.1)">
      <use xlink:href="#DejaVuSans-120"/>
     </g>
    </g>
   </g>
   <g id="matplotlib.axis_6">
    <g id="ytick_17">
     <g id="line2d_29">
      <g>
       <use style="stroke:#000000;stroke-width:0.8;" x="812.389091" xlink:href="#mbfb5bf9f91" y="407.01913"/>
      </g>
     </g>
     <g id="text_32">
      <!-- 0 -->
      <g transform="translate(799.026591 410.818349)scale(0.1 -0.1)">
       <use xlink:href="#DejaVuSans-48"/>
      </g>
     </g>
    </g>
    <g id="ytick_18">
     <g id="line2d_30">
      <g>
       <use style="stroke:#000000;stroke-width:0.8;" x="812.389091" xlink:href="#mbfb5bf9f91" y="343.383652"/>
      </g>
     </g>
     <g id="text_33">
      <!-- 2 -->
      <g transform="translate(799.026591 347.182871)scale(0.1 -0.1)">
       <use xlink:href="#DejaVuSans-50"/>
      </g>
     </g>
    </g>
    <g id="ytick_19">
     <g id="line2d_31">
      <g>
       <use style="stroke:#000000;stroke-width:0.8;" x="812.389091" xlink:href="#mbfb5bf9f91" y="279.748174"/>
      </g>
     </g>
     <g id="text_34">
      <!-- 4 -->
      <g transform="translate(799.026591 283.547393)scale(0.1 -0.1)">
       <use xlink:href="#DejaVuSans-52"/>
      </g>
     </g>
    </g>
    <g id="ytick_20">
     <g id="line2d_32">
      <g>
       <use style="stroke:#000000;stroke-width:0.8;" x="812.389091" xlink:href="#mbfb5bf9f91" y="216.112696"/>
      </g>
     </g>
     <g id="text_35">
      <!-- 6 -->
      <g transform="translate(799.026591 219.911914)scale(0.1 -0.1)">
       <use xlink:href="#DejaVuSans-54"/>
      </g>
     </g>
    </g>
    <g id="ytick_21">
     <g id="line2d_33">
      <g>
       <use style="stroke:#000000;stroke-width:0.8;" x="812.389091" xlink:href="#mbfb5bf9f91" y="152.477217"/>
      </g>
     </g>
     <g id="text_36">
      <!-- 8 -->
      <g transform="translate(799.026591 156.276436)scale(0.1 -0.1)">
       <use xlink:href="#DejaVuSans-56"/>
      </g>
     </g>
    </g>
    <g id="ytick_22">
     <g id="line2d_34">
      <g>
       <use style="stroke:#000000;stroke-width:0.8;" x="812.389091" xlink:href="#mbfb5bf9f91" y="88.841739"/>
      </g>
     </g>
     <g id="text_37">
      <!-- 10 -->
      <g transform="translate(792.664091 92.640958)scale(0.1 -0.1)">
       <use xlink:href="#DejaVuSans-49"/>
       <use x="63.623047" xlink:href="#DejaVuSans-48"/>
      </g>
     </g>
    </g>
    <g id="text_38">
     <!-- y -->
     <defs>
      <path d="M 32.171875 -5.078125 
Q 28.375 -14.84375 24.75 -17.8125 
Q 21.140625 -20.796875 15.09375 -20.796875 
L 7.90625 -20.796875 
L 7.90625 -13.28125 
L 13.1875 -13.28125 
Q 16.890625 -13.28125 18.9375 -11.515625 
Q 21 -9.765625 23.484375 -3.21875 
L 25.09375 0.875 
L 2.984375 54.6875 
L 12.5 54.6875 
L 29.59375 11.921875 
L 46.6875 54.6875 
L 56.203125 54.6875 
z
" id="DejaVuSans-121"/>
     </defs>
     <g transform="translate(786.584403 242.935375)rotate(-90)scale(0.1 -0.1)">
      <use xlink:href="#DejaVuSans-121"/>
     </g>
    </g>
   </g>
   <g id="line2d_35">
    <path clip-path="url(#p8ea174c719)" d="M 850.885661 364.67843 
L 891.32826 339.25911 
L 942.232876 307.264115 
L 996.853319 272.933618 
L 1044.858484 242.76101 
L 1087.725922 215.81761 
L 1148.786897 177.439056 
L 1195.627405 147.998469 
L 1238.070855 121.321557 
L 1286.399502 90.945632 
" style="fill:none;stroke:#008080;stroke-linecap:square;stroke-width:1.5;"/>
    <defs>
     <path d="M 0 3 
C 0.795609 3 1.55874 2.683901 2.12132 2.12132 
C 2.683901 1.55874 3 0.795609 3 0 
C 3 -0.795609 2.683901 -1.55874 2.12132 -2.12132 
C 1.55874 -2.683901 0.795609 -3 0 -3 
C -0.795609 -3 -1.55874 -2.683901 -2.12132 -2.12132 
C -2.683901 -1.55874 -3 -0.795609 -3 0 
C -3 0.795609 -2.683901 1.55874 -2.12132 2.12132 
C -1.55874 2.683901 -0.795609 3 0 3 
z
" id="mc0b9a8dc5b" style="stroke:#008080;"/>
    </defs>
    <g clip-path="url(#p8ea174c719)">
     <use style="fill:#008080;stroke:#008080;" x="850.885661" xlink:href="#mc0b9a8dc5b" y="364.67843"/>
     <use style="fill:#008080;stroke:#008080;" x="891.32826" xlink:href="#mc0b9a8dc5b" y="339.25911"/>
     <use style="fill:#008080;stroke:#008080;" x="942.232876" xlink:href="#mc0b9a8dc5b" y="307.264115"/>
     <use style="fill:#008080;stroke:#008080;" x="996.853319" xlink:href="#mc0b9a8dc5b" y="272.933618"/>
     <use style="fill:#008080;stroke:#008080;" x="1044.858484" xlink:href="#mc0b9a8dc5b" y="242.76101"/>
     <use style="fill:#008080;stroke:#008080;" x="1087.725922" xlink:href="#mc0b9a8dc5b" y="215.81761"/>
     <use style="fill:#008080;stroke:#008080;" x="1148.786897" xlink:href="#mc0b9a8dc5b" y="177.439056"/>
     <use style="fill:#008080;stroke:#008080;" x="1195.627405" xlink:href="#mc0b9a8dc5b" y="147.998469"/>
     <use style="fill:#008080;stroke:#008080;" x="1238.070855" xlink:href="#mc0b9a8dc5b" y="121.321557"/>
     <use style="fill:#008080;stroke:#008080;" x="1286.399502" xlink:href="#mc0b9a8dc5b" y="90.945632"/>
    </g>
   </g>
   <g id="patch_10">
    <path d="M 812.389091 422.928 
L 812.389091 57.024 
" style="fill:none;stroke:#000000;stroke-linecap:square;stroke-linejoin:miter;stroke-width:0.8;"/>
   </g>
   <g id="patch_11">
    <path d="M 1334.88 422.928 
L 1334.88 57.024 
" style="fill:none;stroke:#000000;stroke-linecap:square;stroke-linejoin:miter;stroke-width:0.8;"/>
   </g>
   <g id="patch_12">
    <path d="M 812.389091 422.928 
L 1334.88 422.928 
" style="fill:none;stroke:#000000;stroke-linecap:square;stroke-linejoin:miter;stroke-width:0.8;"/>
   </g>
   <g id="patch_13">
    <path d="M 812.389091 57.024 
L 1334.88 57.024 
" style="fill:none;stroke:#000000;stroke-linecap:square;stroke-linejoin:miter;stroke-width:0.8;"/>
   </g>
   <g id="legend_1">
    <g id="patch_14">
     <path d="M 819.389091 94.38025 
L 947.289091 94.38025 
Q 949.289091 94.38025 949.289091 92.38025 
L 949.289091 64.024 
Q 949.289091 62.024 947.289091 62.024 
L 819.389091 62.024 
Q 817.389091 62.024 817.389091 64.024 
L 817.389091 92.38025 
Q 817.389091 94.38025 819.389091 94.38025 
z
" style="fill:#ffffff;opacity:0.8;stroke:#cccccc;stroke-linejoin:miter;"/>
    </g>
    <g id="line2d_36">
     <path d="M 821.389091 70.122437 
L 841.389091 70.122437 
" style="fill:none;stroke:#008080;stroke-linecap:square;stroke-width:1.5;"/>
    </g>
    <g id="line2d_37">
     <g>
      <use style="fill:#008080;stroke:#008080;" x="831.389091" xlink:href="#mc0b9a8dc5b" y="70.122437"/>
     </g>
    </g>
    <g id="text_39">
     <!-- $\theta_0=1.06, \theta_1=0.98$ -->
     <defs>
      <path d="M 10.59375 45.40625 
L 73.1875 45.40625 
L 73.1875 37.203125 
L 10.59375 37.203125 
z
M 10.59375 25.484375 
L 73.1875 25.484375 
L 73.1875 17.1875 
L 10.59375 17.1875 
z
" id="DejaVuSans-61"/>
      <path d="M 11.71875 12.40625 
L 22.015625 12.40625 
L 22.015625 4 
L 14.015625 -11.625 
L 7.71875 -11.625 
L 11.71875 4 
z
" id="DejaVuSans-44"/>
     </defs>
     <g transform="translate(849.389091 73.622437)scale(0.1 -0.1)">
      <use transform="translate(0 0.234375)" xlink:href="#DejaVuSans-Oblique-952"/>
      <use transform="translate(61.181641 -16.171875)scale(0.7)" xlink:href="#DejaVuSans-48"/>
      <use transform="translate(127.93457 0.234375)" xlink:href="#DejaVuSans-61"/>
      <use transform="translate(231.206055 0.234375)" xlink:href="#DejaVuSans-49"/>
      <use transform="translate(294.829102 0.234375)" xlink:href="#DejaVuSans-46"/>
      <use transform="translate(326.616211 0.234375)" xlink:href="#DejaVuSans-48"/>
      <use transform="translate(390.239258 0.234375)" xlink:href="#DejaVuSans-54"/>
      <use transform="translate(453.862305 0.234375)" xlink:href="#DejaVuSans-44"/>
      <use transform="translate(505.131836 0.234375)" xlink:href="#DejaVuSans-Oblique-952"/>
      <use transform="translate(566.313477 -16.171875)scale(0.7)" xlink:href="#DejaVuSans-49"/>
      <use transform="translate(633.066406 0.234375)" xlink:href="#DejaVuSans-61"/>
      <use transform="translate(736.337891 0.234375)" xlink:href="#DejaVuSans-48"/>
      <use transform="translate(799.960938 0.234375)" xlink:href="#DejaVuSans-46"/>
      <use transform="translate(831.748047 0.234375)" xlink:href="#DejaVuSans-57"/>
      <use transform="translate(895.371094 0.234375)" xlink:href="#DejaVuSans-56"/>
     </g>
    </g>
    <g id="PathCollection_3">
     <g>
      <use style="fill:#b22222;stroke:#b22222;stroke-width:1.5;" x="831.389091" xlink:href="#mcf6555fa7b" y="85.675563"/>
     </g>
    </g>
    <g id="text_40">
     <!-- Raw Data -->
     <defs>
      <path d="M 44.390625 34.1875 
Q 47.5625 33.109375 50.5625 29.59375 
Q 53.5625 26.078125 56.59375 19.921875 
L 66.609375 0 
L 56 0 
L 46.6875 18.703125 
Q 43.0625 26.03125 39.671875 28.421875 
Q 36.28125 30.8125 30.421875 30.8125 
L 19.671875 30.8125 
L 19.671875 0 
L 9.8125 0 
L 9.8125 72.90625 
L 32.078125 72.90625 
Q 44.578125 72.90625 50.734375 67.671875 
Q 56.890625 62.453125 56.890625 51.90625 
Q 56.890625 45.015625 53.6875 40.46875 
Q 50.484375 35.9375 44.390625 34.1875 
z
M 19.671875 64.796875 
L 19.671875 38.921875 
L 32.078125 38.921875 
Q 39.203125 38.921875 42.84375 42.21875 
Q 46.484375 45.515625 46.484375 51.90625 
Q 46.484375 58.296875 42.84375 61.546875 
Q 39.203125 64.796875 32.078125 64.796875 
z
" id="DejaVuSans-82"/>
      <path d="M 34.28125 27.484375 
Q 23.390625 27.484375 19.1875 25 
Q 14.984375 22.515625 14.984375 16.5 
Q 14.984375 11.71875 18.140625 8.90625 
Q 21.296875 6.109375 26.703125 6.109375 
Q 34.1875 6.109375 38.703125 11.40625 
Q 43.21875 16.703125 43.21875 25.484375 
L 43.21875 27.484375 
z
M 52.203125 31.203125 
L 52.203125 0 
L 43.21875 0 
L 43.21875 8.296875 
Q 40.140625 3.328125 35.546875 0.953125 
Q 30.953125 -1.421875 24.3125 -1.421875 
Q 15.921875 -1.421875 10.953125 3.296875 
Q 6 8.015625 6 15.921875 
Q 6 25.140625 12.171875 29.828125 
Q 18.359375 34.515625 30.609375 34.515625 
L 43.21875 34.515625 
L 43.21875 35.40625 
Q 43.21875 41.609375 39.140625 45 
Q 35.0625 48.390625 27.6875 48.390625 
Q 23 48.390625 18.546875 47.265625 
Q 14.109375 46.140625 10.015625 43.890625 
L 10.015625 52.203125 
Q 14.9375 54.109375 19.578125 55.046875 
Q 24.21875 56 28.609375 56 
Q 40.484375 56 46.34375 49.84375 
Q 52.203125 43.703125 52.203125 31.203125 
z
" id="DejaVuSans-97"/>
      <path d="M 4.203125 54.6875 
L 13.1875 54.6875 
L 24.421875 12.015625 
L 35.59375 54.6875 
L 46.1875 54.6875 
L 57.421875 12.015625 
L 68.609375 54.6875 
L 77.59375 54.6875 
L 63.28125 0 
L 52.6875 0 
L 40.921875 44.828125 
L 29.109375 0 
L 18.5 0 
z
" id="DejaVuSans-119"/>
      <path id="DejaVuSans-32"/>
      <path d="M 19.671875 64.796875 
L 19.671875 8.109375 
L 31.59375 8.109375 
Q 46.6875 8.109375 53.6875 14.9375 
Q 60.6875 21.78125 60.6875 36.53125 
Q 60.6875 51.171875 53.6875 57.984375 
Q 46.6875 64.796875 31.59375 64.796875 
z
M 9.8125 72.90625 
L 30.078125 72.90625 
Q 51.265625 72.90625 61.171875 64.09375 
Q 71.09375 55.28125 71.09375 36.53125 
Q 71.09375 17.671875 61.125 8.828125 
Q 51.171875 0 30.078125 0 
L 9.8125 0 
z
" id="DejaVuSans-68"/>
      <path d="M 18.3125 70.21875 
L 18.3125 54.6875 
L 36.8125 54.6875 
L 36.8125 47.703125 
L 18.3125 47.703125 
L 18.3125 18.015625 
Q 18.3125 11.328125 20.140625 9.421875 
Q 21.96875 7.515625 27.59375 7.515625 
L 36.8125 7.515625 
L 36.8125 0 
L 27.59375 0 
Q 17.1875 0 13.234375 3.875 
Q 9.28125 7.765625 9.28125 18.015625 
L 9.28125 47.703125 
L 2.6875 47.703125 
L 2.6875 54.6875 
L 9.28125 54.6875 
L 9.28125 70.21875 
z
" id="DejaVuSans-116"/>
     </defs>
     <g transform="translate(849.389091 88.300563)scale(0.1 -0.1)">
      <use xlink:href="#DejaVuSans-82"/>
      <use x="69.451172" xlink:href="#DejaVuSans-97"/>
      <use x="130.730469" xlink:href="#DejaVuSans-119"/>
      <use x="212.517578" xlink:href="#DejaVuSans-32"/>
      <use x="244.304688" xlink:href="#DejaVuSans-68"/>
      <use x="321.306641" xlink:href="#DejaVuSans-97"/>
      <use x="382.585938" xlink:href="#DejaVuSans-116"/>
      <use x="421.794922" xlink:href="#DejaVuSans-97"/>
     </g>
    </g>
   </g>
  </g>
 </g>
 <defs>
  <clipPath id="pd6e84a77a5">
   <rect height="365.904" width="417.992727" x="185.4" y="57.024"/>
  </clipPath>
  <clipPath id="pecd3859dde">
   <rect height="365.904" width="18.2952" x="629.517273" y="57.024"/>
  </clipPath>
  <clipPath id="p8ea174c719">
   <rect height="365.904" width="522.490909" x="812.389091" y="57.024"/>
  </clipPath>
 </defs>
</svg>
