<?xml version="1.0" encoding="utf-8" standalone="no"?>
<!DOCTYPE svg PUBLIC "-//W3C//DTD SVG 1.1//EN"
  "http://www.w3.org/Graphics/SVG/1.1/DTD/svg11.dtd">
<!-- Created with matplotlib (https://matplotlib.org/) -->
<svg height="403.2pt" version="1.1" viewBox="0 0 907.2 403.2" width="907.2pt" xmlns="http://www.w3.org/2000/svg" xmlns:xlink="http://www.w3.org/1999/xlink">
 <defs>
  <style type="text/css">
*{stroke-linecap:butt;stroke-linejoin:round;}
  </style>
 </defs>
 <g id="figure_1">
  <g id="patch_1">
   <path d="M 0 403.2 
L 907.2 403.2 
L 907.2 0 
L 0 0 
z
" style="fill:none;"/>
  </g>
  <g id="axes_1">
   <g id="patch_2">
    <path d="M 113.4 358.848 
L 432.981818 358.848 
L 432.981818 48.384 
L 113.4 48.384 
z
" style="fill:none;"/>
   </g>
   <g id="PathCollection_1">
    <defs>
     <path d="M -3 3 
L 3 -3 
M -3 -3 
L 3 3 
" id="m7ad3e71266" style="stroke:#b22222;stroke-width:1.5;"/>
    </defs>
    <g clip-path="url(#p400c202d11)">
     <use style="fill:#b22222;stroke:#b22222;stroke-width:1.5;" x="129.403372" xlink:href="#m7ad3e71266" y="334.971802"/>
     <use style="fill:#b22222;stroke:#b22222;stroke-width:1.5;" x="165.821781" xlink:href="#m7ad3e71266" y="305.809254"/>
     <use style="fill:#b22222;stroke:#b22222;stroke-width:1.5;" x="190.991128" xlink:href="#m7ad3e71266" y="253.862678"/>
     <use style="fill:#b22222;stroke:#b22222;stroke-width:1.5;" x="220.742012" xlink:href="#m7ad3e71266" y="255.618287"/>
     <use style="fill:#b22222;stroke:#b22222;stroke-width:1.5;" x="255.978845" xlink:href="#m7ad3e71266" y="223.978136"/>
     <use style="fill:#b22222;stroke:#b22222;stroke-width:1.5;" x="285.770096" xlink:href="#m7ad3e71266" y="172.006232"/>
     <use style="fill:#b22222;stroke:#b22222;stroke-width:1.5;" x="314.570054" xlink:href="#m7ad3e71266" y="164.936654"/>
     <use style="fill:#b22222;stroke:#b22222;stroke-width:1.5;" x="344.411155" xlink:href="#m7ad3e71266" y="126.91376"/>
     <use style="fill:#b22222;stroke:#b22222;stroke-width:1.5;" x="377.956232" xlink:href="#m7ad3e71266" y="85.252163"/>
     <use style="fill:#b22222;stroke:#b22222;stroke-width:1.5;" x="411.427994" xlink:href="#m7ad3e71266" y="70.608338"/>
    </g>
   </g>
   <g id="matplotlib.axis_1">
    <g id="xtick_1">
     <g id="line2d_1">
      <defs>
       <path d="M 0 0 
L 0 3.5 
" id="m3b7dc8e3bc" style="stroke:#000000;stroke-width:0.8;"/>
      </defs>
      <g>
       <use style="stroke:#000000;stroke-width:0.8;" x="128.618182" xlink:href="#m3b7dc8e3bc" y="358.848"/>
      </g>
     </g>
     <g id="text_1">
      <!-- 0 -->
      <defs>
       <path d="M 31.78125 66.40625 
Q 24.171875 66.40625 20.328125 58.90625 
Q 16.5 51.421875 16.5 36.375 
Q 16.5 21.390625 20.328125 13.890625 
Q 24.171875 6.390625 31.78125 6.390625 
Q 39.453125 6.390625 43.28125 13.890625 
Q 47.125 21.390625 47.125 36.375 
Q 47.125 51.421875 43.28125 58.90625 
Q 39.453125 66.40625 31.78125 66.40625 
z
M 31.78125 74.21875 
Q 44.046875 74.21875 50.515625 64.515625 
Q 56.984375 54.828125 56.984375 36.375 
Q 56.984375 17.96875 50.515625 8.265625 
Q 44.046875 -1.421875 31.78125 -1.421875 
Q 19.53125 -1.421875 13.0625 8.265625 
Q 6.59375 17.96875 6.59375 36.375 
Q 6.59375 54.828125 13.0625 64.515625 
Q 19.53125 74.21875 31.78125 74.21875 
z
" id="DejaVuSans-48"/>
      </defs>
      <g transform="translate(125.436932 373.446438)scale(0.1 -0.1)">
       <use xlink:href="#DejaVuSans-48"/>
      </g>
     </g>
    </g>
    <g id="xtick_2">
     <g id="line2d_2">
      <g>
       <use style="stroke:#000000;stroke-width:0.8;" x="189.490909" xlink:href="#m3b7dc8e3bc" y="358.848"/>
      </g>
     </g>
     <g id="text_2">
      <!-- 2 -->
      <defs>
       <path d="M 19.1875 8.296875 
L 53.609375 8.296875 
L 53.609375 0 
L 7.328125 0 
L 7.328125 8.296875 
Q 12.9375 14.109375 22.625 23.890625 
Q 32.328125 33.6875 34.8125 36.53125 
Q 39.546875 41.84375 41.421875 45.53125 
Q 43.3125 49.21875 43.3125 52.78125 
Q 43.3125 58.59375 39.234375 62.25 
Q 35.15625 65.921875 28.609375 65.921875 
Q 23.96875 65.921875 18.8125 64.3125 
Q 13.671875 62.703125 7.8125 59.421875 
L 7.8125 69.390625 
Q 13.765625 71.78125 18.9375 73 
Q 24.125 74.21875 28.421875 74.21875 
Q 39.75 74.21875 46.484375 68.546875 
Q 53.21875 62.890625 53.21875 53.421875 
Q 53.21875 48.921875 51.53125 44.890625 
Q 49.859375 40.875 45.40625 35.40625 
Q 44.1875 33.984375 37.640625 27.21875 
Q 31.109375 20.453125 19.1875 8.296875 
z
" id="DejaVuSans-50"/>
      </defs>
      <g transform="translate(186.309659 373.446438)scale(0.1 -0.1)">
       <use xlink:href="#DejaVuSans-50"/>
      </g>
     </g>
    </g>
    <g id="xtick_3">
     <g id="line2d_3">
      <g>
       <use style="stroke:#000000;stroke-width:0.8;" x="250.363636" xlink:href="#m3b7dc8e3bc" y="358.848"/>
      </g>
     </g>
     <g id="text_3">
      <!-- 4 -->
      <defs>
       <path d="M 37.796875 64.3125 
L 12.890625 25.390625 
L 37.796875 25.390625 
z
M 35.203125 72.90625 
L 47.609375 72.90625 
L 47.609375 25.390625 
L 58.015625 25.390625 
L 58.015625 17.1875 
L 47.609375 17.1875 
L 47.609375 0 
L 37.796875 0 
L 37.796875 17.1875 
L 4.890625 17.1875 
L 4.890625 26.703125 
z
" id="DejaVuSans-52"/>
      </defs>
      <g transform="translate(247.182386 373.446438)scale(0.1 -0.1)">
       <use xlink:href="#DejaVuSans-52"/>
      </g>
     </g>
    </g>
    <g id="xtick_4">
     <g id="line2d_4">
      <g>
       <use style="stroke:#000000;stroke-width:0.8;" x="311.236364" xlink:href="#m3b7dc8e3bc" y="358.848"/>
      </g>
     </g>
     <g id="text_4">
      <!-- 6 -->
      <defs>
       <path d="M 33.015625 40.375 
Q 26.375 40.375 22.484375 35.828125 
Q 18.609375 31.296875 18.609375 23.390625 
Q 18.609375 15.53125 22.484375 10.953125 
Q 26.375 6.390625 33.015625 6.390625 
Q 39.65625 6.390625 43.53125 10.953125 
Q 47.40625 15.53125 47.40625 23.390625 
Q 47.40625 31.296875 43.53125 35.828125 
Q 39.65625 40.375 33.015625 40.375 
z
M 52.59375 71.296875 
L 52.59375 62.3125 
Q 48.875 64.0625 45.09375 64.984375 
Q 41.3125 65.921875 37.59375 65.921875 
Q 27.828125 65.921875 22.671875 59.328125 
Q 17.53125 52.734375 16.796875 39.40625 
Q 19.671875 43.65625 24.015625 45.921875 
Q 28.375 48.1875 33.59375 48.1875 
Q 44.578125 48.1875 50.953125 41.515625 
Q 57.328125 34.859375 57.328125 23.390625 
Q 57.328125 12.15625 50.6875 5.359375 
Q 44.046875 -1.421875 33.015625 -1.421875 
Q 20.359375 -1.421875 13.671875 8.265625 
Q 6.984375 17.96875 6.984375 36.375 
Q 6.984375 53.65625 15.1875 63.9375 
Q 23.390625 74.21875 37.203125 74.21875 
Q 40.921875 74.21875 44.703125 73.484375 
Q 48.484375 72.75 52.59375 71.296875 
z
" id="DejaVuSans-54"/>
      </defs>
      <g transform="translate(308.055114 373.446438)scale(0.1 -0.1)">
       <use xlink:href="#DejaVuSans-54"/>
      </g>
     </g>
    </g>
    <g id="xtick_5">
     <g id="line2d_5">
      <g>
       <use style="stroke:#000000;stroke-width:0.8;" x="372.109091" xlink:href="#m3b7dc8e3bc" y="358.848"/>
      </g>
     </g>
     <g id="text_5">
      <!-- 8 -->
      <defs>
       <path d="M 31.78125 34.625 
Q 24.75 34.625 20.71875 30.859375 
Q 16.703125 27.09375 16.703125 20.515625 
Q 16.703125 13.921875 20.71875 10.15625 
Q 24.75 6.390625 31.78125 6.390625 
Q 38.8125 6.390625 42.859375 10.171875 
Q 46.921875 13.96875 46.921875 20.515625 
Q 46.921875 27.09375 42.890625 30.859375 
Q 38.875 34.625 31.78125 34.625 
z
M 21.921875 38.8125 
Q 15.578125 40.375 12.03125 44.71875 
Q 8.5 49.078125 8.5 55.328125 
Q 8.5 64.0625 14.71875 69.140625 
Q 20.953125 74.21875 31.78125 74.21875 
Q 42.671875 74.21875 48.875 69.140625 
Q 55.078125 64.0625 55.078125 55.328125 
Q 55.078125 49.078125 51.53125 44.71875 
Q 48 40.375 41.703125 38.8125 
Q 48.828125 37.15625 52.796875 32.3125 
Q 56.78125 27.484375 56.78125 20.515625 
Q 56.78125 9.90625 50.3125 4.234375 
Q 43.84375 -1.421875 31.78125 -1.421875 
Q 19.734375 -1.421875 13.25 4.234375 
Q 6.78125 9.90625 6.78125 20.515625 
Q 6.78125 27.484375 10.78125 32.3125 
Q 14.796875 37.15625 21.921875 38.8125 
z
M 18.3125 54.390625 
Q 18.3125 48.734375 21.84375 45.5625 
Q 25.390625 42.390625 31.78125 42.390625 
Q 38.140625 42.390625 41.71875 45.5625 
Q 45.3125 48.734375 45.3125 54.390625 
Q 45.3125 60.0625 41.71875 63.234375 
Q 38.140625 66.40625 31.78125 66.40625 
Q 25.390625 66.40625 21.84375 63.234375 
Q 18.3125 60.0625 18.3125 54.390625 
z
" id="DejaVuSans-56"/>
      </defs>
      <g transform="translate(368.927841 373.446438)scale(0.1 -0.1)">
       <use xlink:href="#DejaVuSans-56"/>
      </g>
     </g>
    </g>
    <g id="xtick_6">
     <g id="line2d_6">
      <g>
       <use style="stroke:#000000;stroke-width:0.8;" x="432.981818" xlink:href="#m3b7dc8e3bc" y="358.848"/>
      </g>
     </g>
     <g id="text_6">
      <!-- 10 -->
      <defs>
       <path d="M 12.40625 8.296875 
L 28.515625 8.296875 
L 28.515625 63.921875 
L 10.984375 60.40625 
L 10.984375 69.390625 
L 28.421875 72.90625 
L 38.28125 72.90625 
L 38.28125 8.296875 
L 54.390625 8.296875 
L 54.390625 0 
L 12.40625 0 
z
" id="DejaVuSans-49"/>
      </defs>
      <g transform="translate(426.619318 373.446438)scale(0.1 -0.1)">
       <use xlink:href="#DejaVuSans-49"/>
       <use x="63.623047" xlink:href="#DejaVuSans-48"/>
      </g>
     </g>
    </g>
    <g id="text_7">
     <!-- x -->
     <defs>
      <path d="M 54.890625 54.6875 
L 35.109375 28.078125 
L 55.90625 0 
L 45.3125 0 
L 29.390625 21.484375 
L 13.484375 0 
L 2.875 0 
L 24.125 28.609375 
L 4.6875 54.6875 
L 15.28125 54.6875 
L 29.78125 35.203125 
L 44.28125 54.6875 
z
" id="DejaVuSans-120"/>
     </defs>
     <g transform="translate(270.231534 387.124563)scale(0.1 -0.1)">
      <use xlink:href="#DejaVuSans-120"/>
     </g>
    </g>
   </g>
   <g id="matplotlib.axis_2">
    <g id="ytick_1">
     <g id="line2d_7">
      <defs>
       <path d="M 0 0 
L -3.5 0 
" id="mbfbfb8fb39" style="stroke:#000000;stroke-width:0.8;"/>
      </defs>
      <g>
       <use style="stroke:#000000;stroke-width:0.8;" x="113.4" xlink:href="#mbfbfb8fb39" y="345.349565"/>
      </g>
     </g>
     <g id="text_8">
      <!-- 0 -->
      <g transform="translate(100.0375 349.148784)scale(0.1 -0.1)">
       <use xlink:href="#DejaVuSans-48"/>
      </g>
     </g>
    </g>
    <g id="ytick_2">
     <g id="line2d_8">
      <g>
       <use style="stroke:#000000;stroke-width:0.8;" x="113.4" xlink:href="#mbfbfb8fb39" y="291.355826"/>
      </g>
     </g>
     <g id="text_9">
      <!-- 2 -->
      <g transform="translate(100.0375 295.155045)scale(0.1 -0.1)">
       <use xlink:href="#DejaVuSans-50"/>
      </g>
     </g>
    </g>
    <g id="ytick_3">
     <g id="line2d_9">
      <g>
       <use style="stroke:#000000;stroke-width:0.8;" x="113.4" xlink:href="#mbfbfb8fb39" y="237.362087"/>
      </g>
     </g>
     <g id="text_10">
      <!-- 4 -->
      <g transform="translate(100.0375 241.161306)scale(0.1 -0.1)">
       <use xlink:href="#DejaVuSans-52"/>
      </g>
     </g>
    </g>
    <g id="ytick_4">
     <g id="line2d_10">
      <g>
       <use style="stroke:#000000;stroke-width:0.8;" x="113.4" xlink:href="#mbfbfb8fb39" y="183.368348"/>
      </g>
     </g>
     <g id="text_11">
      <!-- 6 -->
      <g transform="translate(100.0375 187.167567)scale(0.1 -0.1)">
       <use xlink:href="#DejaVuSans-54"/>
      </g>
     </g>
    </g>
    <g id="ytick_5">
     <g id="line2d_11">
      <g>
       <use style="stroke:#000000;stroke-width:0.8;" x="113.4" xlink:href="#mbfbfb8fb39" y="129.374609"/>
      </g>
     </g>
     <g id="text_12">
      <!-- 8 -->
      <g transform="translate(100.0375 133.173827)scale(0.1 -0.1)">
       <use xlink:href="#DejaVuSans-56"/>
      </g>
     </g>
    </g>
    <g id="ytick_6">
     <g id="line2d_12">
      <g>
       <use style="stroke:#000000;stroke-width:0.8;" x="113.4" xlink:href="#mbfbfb8fb39" y="75.38087"/>
      </g>
     </g>
     <g id="text_13">
      <!-- 10 -->
      <g transform="translate(93.675 79.180088)scale(0.1 -0.1)">
       <use xlink:href="#DejaVuSans-49"/>
       <use x="63.623047" xlink:href="#DejaVuSans-48"/>
      </g>
     </g>
    </g>
    <g id="text_14">
     <!-- y -->
     <defs>
      <path d="M 32.171875 -5.078125 
Q 28.375 -14.84375 24.75 -17.8125 
Q 21.140625 -20.796875 15.09375 -20.796875 
L 7.90625 -20.796875 
L 7.90625 -13.28125 
L 13.1875 -13.28125 
Q 16.890625 -13.28125 18.9375 -11.515625 
Q 21 -9.765625 23.484375 -3.21875 
L 25.09375 0.875 
L 2.984375 54.6875 
L 12.5 54.6875 
L 29.59375 11.921875 
L 46.6875 54.6875 
L 56.203125 54.6875 
z
" id="DejaVuSans-121"/>
     </defs>
     <g transform="translate(87.595312 206.575375)rotate(-90)scale(0.1 -0.1)">
      <use xlink:href="#DejaVuSans-121"/>
     </g>
    </g>
   </g>
   <g id="line2d_13">
    <path clip-path="url(#p400c202d11)" d="M 159.054545 334.550817 
L 159.054545 334.550817 
L 159.054545 334.550817 
L 159.054545 334.550817 
L 159.054545 334.550817 
L 159.054545 334.550817 
L 159.054545 334.550817 
L 159.054545 334.550817 
L 159.054545 334.550817 
L 159.054545 334.550817 
" style="fill:none;stroke:#008080;stroke-linecap:square;stroke-width:1.5;"/>
    <defs>
     <path d="M 0 3 
C 0.795609 3 1.55874 2.683901 2.12132 2.12132 
C 2.683901 1.55874 3 0.795609 3 0 
C 3 -0.795609 2.683901 -1.55874 2.12132 -2.12132 
C 1.55874 -2.683901 0.795609 -3 0 -3 
C -0.795609 -3 -1.55874 -2.683901 -2.12132 -2.12132 
C -2.683901 -1.55874 -3 -0.795609 -3 0 
C -3 0.795609 -2.683901 1.55874 -2.12132 2.12132 
C -1.55874 2.683901 -0.795609 3 0 3 
z
" id="m2f82e137e1" style="stroke:#008080;"/>
    </defs>
    <g clip-path="url(#p400c202d11)">
     <use style="fill:#008080;stroke:#008080;" x="159.054545" xlink:href="#m2f82e137e1" y="334.550817"/>
     <use style="fill:#008080;stroke:#008080;" x="159.054545" xlink:href="#m2f82e137e1" y="334.550817"/>
     <use style="fill:#008080;stroke:#008080;" x="159.054545" xlink:href="#m2f82e137e1" y="334.550817"/>
     <use style="fill:#008080;stroke:#008080;" x="159.054545" xlink:href="#m2f82e137e1" y="334.550817"/>
     <use style="fill:#008080;stroke:#008080;" x="159.054545" xlink:href="#m2f82e137e1" y="334.550817"/>
     <use style="fill:#008080;stroke:#008080;" x="159.054545" xlink:href="#m2f82e137e1" y="334.550817"/>
     <use style="fill:#008080;stroke:#008080;" x="159.054545" xlink:href="#m2f82e137e1" y="334.550817"/>
     <use style="fill:#008080;stroke:#008080;" x="159.054545" xlink:href="#m2f82e137e1" y="334.550817"/>
     <use style="fill:#008080;stroke:#008080;" x="159.054545" xlink:href="#m2f82e137e1" y="334.550817"/>
     <use style="fill:#008080;stroke:#008080;" x="159.054545" xlink:href="#m2f82e137e1" y="334.550817"/>
    </g>
   </g>
   <g id="line2d_14">
    <path clip-path="url(#p400c202d11)" d="M 129.403372 339.810899 
L 165.821781 333.350318 
L 190.991128 328.885306 
L 220.742012 323.607536 
L 255.978845 317.356565 
L 285.770096 312.071633 
L 314.570054 306.962555 
L 344.411155 301.66878 
L 377.956232 295.717924 
L 411.427994 289.780074 
" style="fill:none;stroke:#008080;stroke-linecap:square;stroke-width:1.5;"/>
    <g clip-path="url(#p400c202d11)">
     <use style="fill:#008080;stroke:#008080;" x="129.403372" xlink:href="#m2f82e137e1" y="339.810899"/>
     <use style="fill:#008080;stroke:#008080;" x="165.821781" xlink:href="#m2f82e137e1" y="333.350318"/>
     <use style="fill:#008080;stroke:#008080;" x="190.991128" xlink:href="#m2f82e137e1" y="328.885306"/>
     <use style="fill:#008080;stroke:#008080;" x="220.742012" xlink:href="#m2f82e137e1" y="323.607536"/>
     <use style="fill:#008080;stroke:#008080;" x="255.978845" xlink:href="#m2f82e137e1" y="317.356565"/>
     <use style="fill:#008080;stroke:#008080;" x="285.770096" xlink:href="#m2f82e137e1" y="312.071633"/>
     <use style="fill:#008080;stroke:#008080;" x="314.570054" xlink:href="#m2f82e137e1" y="306.962555"/>
     <use style="fill:#008080;stroke:#008080;" x="344.411155" xlink:href="#m2f82e137e1" y="301.66878"/>
     <use style="fill:#008080;stroke:#008080;" x="377.956232" xlink:href="#m2f82e137e1" y="295.717924"/>
     <use style="fill:#008080;stroke:#008080;" x="411.427994" xlink:href="#m2f82e137e1" y="289.780074"/>
    </g>
   </g>
   <g id="patch_3">
    <path d="M 113.4 358.848 
L 113.4 48.384 
" style="fill:none;stroke:#000000;stroke-linecap:square;stroke-linejoin:miter;stroke-width:0.8;"/>
   </g>
   <g id="patch_4">
    <path d="M 432.981818 358.848 
L 432.981818 48.384 
" style="fill:none;stroke:#000000;stroke-linecap:square;stroke-linejoin:miter;stroke-width:0.8;"/>
   </g>
   <g id="patch_5">
    <path d="M 113.4 358.848 
L 432.981818 358.848 
" style="fill:none;stroke:#000000;stroke-linecap:square;stroke-linejoin:miter;stroke-width:0.8;"/>
   </g>
   <g id="patch_6">
    <path d="M 113.4 48.384 
L 432.981818 48.384 
" style="fill:none;stroke:#000000;stroke-linecap:square;stroke-linejoin:miter;stroke-width:0.8;"/>
   </g>
   <g id="text_15">
    <!-- $\theta_0 = 0.2, \theta_1=0.2$ -->
    <defs>
     <path d="M 45.515625 34.671875 
L 14.453125 34.671875 
Q 12.359375 20.0625 14.5 13.875 
Q 17.1875 6.25 24.46875 6.25 
Q 31.78125 6.25 37.359375 13.921875 
Q 42.234375 20.65625 45.515625 34.671875 
z
M 47.015625 42.96875 
Q 48.34375 56.84375 46.625 61.71875 
Q 43.953125 69.4375 36.765625 69.4375 
Q 29.296875 69.4375 23.828125 61.8125 
Q 19.53125 55.671875 16.15625 42.96875 
z
M 38.1875 76.765625 
Q 49.90625 76.765625 54.59375 66.40625 
Q 59.28125 56.109375 55.71875 37.84375 
Q 52.203125 19.625 43.453125 9.28125 
Q 34.765625 -1.125 23.046875 -1.125 
Q 11.28125 -1.125 6.640625 9.28125 
Q 2 19.625 5.515625 37.84375 
Q 9.078125 56.109375 17.71875 66.40625 
Q 26.421875 76.765625 38.1875 76.765625 
z
" id="DejaVuSans-Oblique-952"/>
     <path d="M 10.59375 45.40625 
L 73.1875 45.40625 
L 73.1875 37.203125 
L 10.59375 37.203125 
z
M 10.59375 25.484375 
L 73.1875 25.484375 
L 73.1875 17.1875 
L 10.59375 17.1875 
z
" id="DejaVuSans-61"/>
     <path d="M 10.6875 12.40625 
L 21 12.40625 
L 21 0 
L 10.6875 0 
z
" id="DejaVuSans-46"/>
     <path d="M 11.71875 12.40625 
L 22.015625 12.40625 
L 22.015625 4 
L 14.015625 -11.625 
L 7.71875 -11.625 
L 11.71875 4 
z
" id="DejaVuSans-44"/>
    </defs>
    <g transform="translate(223.270909 42.384)scale(0.12 -0.12)">
     <use transform="translate(0 0.234375)" xlink:href="#DejaVuSans-Oblique-952"/>
     <use transform="translate(61.181641 -16.171875)scale(0.7)" xlink:href="#DejaVuSans-48"/>
     <use transform="translate(127.93457 0.234375)" xlink:href="#DejaVuSans-61"/>
     <use transform="translate(231.206055 0.234375)" xlink:href="#DejaVuSans-48"/>
     <use transform="translate(294.829102 0.234375)" xlink:href="#DejaVuSans-46"/>
     <use transform="translate(326.538086 0.234375)" xlink:href="#DejaVuSans-50"/>
     <use transform="translate(390.161133 0.234375)" xlink:href="#DejaVuSans-44"/>
     <use transform="translate(441.430664 0.234375)" xlink:href="#DejaVuSans-Oblique-952"/>
     <use transform="translate(502.612305 -16.171875)scale(0.7)" xlink:href="#DejaVuSans-49"/>
     <use transform="translate(569.365234 0.234375)" xlink:href="#DejaVuSans-61"/>
     <use transform="translate(672.636719 0.234375)" xlink:href="#DejaVuSans-48"/>
     <use transform="translate(736.259766 0.234375)" xlink:href="#DejaVuSans-46"/>
     <use transform="translate(767.96875 0.234375)" xlink:href="#DejaVuSans-50"/>
    </g>
   </g>
   <g id="legend_1">
    <g id="patch_7">
     <path d="M 120.4 100.418375 
L 202.46875 100.418375 
Q 204.46875 100.418375 204.46875 98.418375 
L 204.46875 55.384 
Q 204.46875 53.384 202.46875 53.384 
L 120.4 53.384 
Q 118.4 53.384 118.4 55.384 
L 118.4 98.418375 
Q 118.4 100.418375 120.4 100.418375 
z
" style="fill:#ffffff;opacity:0.8;stroke:#cccccc;stroke-linejoin:miter;"/>
    </g>
    <g id="line2d_15">
     <path d="M 122.4 61.482438 
L 142.4 61.482438 
" style="fill:none;stroke:#008080;stroke-linecap:square;stroke-width:1.5;"/>
    </g>
    <g id="line2d_16">
     <g>
      <use style="fill:#008080;stroke:#008080;" x="132.4" xlink:href="#m2f82e137e1" y="61.482438"/>
     </g>
    </g>
    <g id="text_16">
     <!-- Prediction -->
     <defs>
      <path d="M 19.671875 64.796875 
L 19.671875 37.40625 
L 32.078125 37.40625 
Q 38.96875 37.40625 42.71875 40.96875 
Q 46.484375 44.53125 46.484375 51.125 
Q 46.484375 57.671875 42.71875 61.234375 
Q 38.96875 64.796875 32.078125 64.796875 
z
M 9.8125 72.90625 
L 32.078125 72.90625 
Q 44.34375 72.90625 50.609375 67.359375 
Q 56.890625 61.8125 56.890625 51.125 
Q 56.890625 40.328125 50.609375 34.8125 
Q 44.34375 29.296875 32.078125 29.296875 
L 19.671875 29.296875 
L 19.671875 0 
L 9.8125 0 
z
" id="DejaVuSans-80"/>
      <path d="M 41.109375 46.296875 
Q 39.59375 47.171875 37.8125 47.578125 
Q 36.03125 48 33.890625 48 
Q 26.265625 48 22.1875 43.046875 
Q 18.109375 38.09375 18.109375 28.8125 
L 18.109375 0 
L 9.078125 0 
L 9.078125 54.6875 
L 18.109375 54.6875 
L 18.109375 46.1875 
Q 20.953125 51.171875 25.484375 53.578125 
Q 30.03125 56 36.53125 56 
Q 37.453125 56 38.578125 55.875 
Q 39.703125 55.765625 41.0625 55.515625 
z
" id="DejaVuSans-114"/>
      <path d="M 56.203125 29.59375 
L 56.203125 25.203125 
L 14.890625 25.203125 
Q 15.484375 15.921875 20.484375 11.0625 
Q 25.484375 6.203125 34.421875 6.203125 
Q 39.59375 6.203125 44.453125 7.46875 
Q 49.3125 8.734375 54.109375 11.28125 
L 54.109375 2.78125 
Q 49.265625 0.734375 44.1875 -0.34375 
Q 39.109375 -1.421875 33.890625 -1.421875 
Q 20.796875 -1.421875 13.15625 6.1875 
Q 5.515625 13.8125 5.515625 26.8125 
Q 5.515625 40.234375 12.765625 48.109375 
Q 20.015625 56 32.328125 56 
Q 43.359375 56 49.78125 48.890625 
Q 56.203125 41.796875 56.203125 29.59375 
z
M 47.21875 32.234375 
Q 47.125 39.59375 43.09375 43.984375 
Q 39.0625 48.390625 32.421875 48.390625 
Q 24.90625 48.390625 20.390625 44.140625 
Q 15.875 39.890625 15.1875 32.171875 
z
" id="DejaVuSans-101"/>
      <path d="M 45.40625 46.390625 
L 45.40625 75.984375 
L 54.390625 75.984375 
L 54.390625 0 
L 45.40625 0 
L 45.40625 8.203125 
Q 42.578125 3.328125 38.25 0.953125 
Q 33.9375 -1.421875 27.875 -1.421875 
Q 17.96875 -1.421875 11.734375 6.484375 
Q 5.515625 14.40625 5.515625 27.296875 
Q 5.515625 40.1875 11.734375 48.09375 
Q 17.96875 56 27.875 56 
Q 33.9375 56 38.25 53.625 
Q 42.578125 51.265625 45.40625 46.390625 
z
M 14.796875 27.296875 
Q 14.796875 17.390625 18.875 11.75 
Q 22.953125 6.109375 30.078125 6.109375 
Q 37.203125 6.109375 41.296875 11.75 
Q 45.40625 17.390625 45.40625 27.296875 
Q 45.40625 37.203125 41.296875 42.84375 
Q 37.203125 48.484375 30.078125 48.484375 
Q 22.953125 48.484375 18.875 42.84375 
Q 14.796875 37.203125 14.796875 27.296875 
z
" id="DejaVuSans-100"/>
      <path d="M 9.421875 54.6875 
L 18.40625 54.6875 
L 18.40625 0 
L 9.421875 0 
z
M 9.421875 75.984375 
L 18.40625 75.984375 
L 18.40625 64.59375 
L 9.421875 64.59375 
z
" id="DejaVuSans-105"/>
      <path d="M 48.78125 52.59375 
L 48.78125 44.1875 
Q 44.96875 46.296875 41.140625 47.34375 
Q 37.3125 48.390625 33.40625 48.390625 
Q 24.65625 48.390625 19.8125 42.84375 
Q 14.984375 37.3125 14.984375 27.296875 
Q 14.984375 17.28125 19.8125 11.734375 
Q 24.65625 6.203125 33.40625 6.203125 
Q 37.3125 6.203125 41.140625 7.25 
Q 44.96875 8.296875 48.78125 10.40625 
L 48.78125 2.09375 
Q 45.015625 0.34375 40.984375 -0.53125 
Q 36.96875 -1.421875 32.421875 -1.421875 
Q 20.0625 -1.421875 12.78125 6.34375 
Q 5.515625 14.109375 5.515625 27.296875 
Q 5.515625 40.671875 12.859375 48.328125 
Q 20.21875 56 33.015625 56 
Q 37.15625 56 41.109375 55.140625 
Q 45.0625 54.296875 48.78125 52.59375 
z
" id="DejaVuSans-99"/>
      <path d="M 18.3125 70.21875 
L 18.3125 54.6875 
L 36.8125 54.6875 
L 36.8125 47.703125 
L 18.3125 47.703125 
L 18.3125 18.015625 
Q 18.3125 11.328125 20.140625 9.421875 
Q 21.96875 7.515625 27.59375 7.515625 
L 36.8125 7.515625 
L 36.8125 0 
L 27.59375 0 
Q 17.1875 0 13.234375 3.875 
Q 9.28125 7.765625 9.28125 18.015625 
L 9.28125 47.703125 
L 2.6875 47.703125 
L 2.6875 54.6875 
L 9.28125 54.6875 
L 9.28125 70.21875 
z
" id="DejaVuSans-116"/>
      <path d="M 30.609375 48.390625 
Q 23.390625 48.390625 19.1875 42.75 
Q 14.984375 37.109375 14.984375 27.296875 
Q 14.984375 17.484375 19.15625 11.84375 
Q 23.34375 6.203125 30.609375 6.203125 
Q 37.796875 6.203125 41.984375 11.859375 
Q 46.1875 17.53125 46.1875 27.296875 
Q 46.1875 37.015625 41.984375 42.703125 
Q 37.796875 48.390625 30.609375 48.390625 
z
M 30.609375 56 
Q 42.328125 56 49.015625 48.375 
Q 55.71875 40.765625 55.71875 27.296875 
Q 55.71875 13.875 49.015625 6.21875 
Q 42.328125 -1.421875 30.609375 -1.421875 
Q 18.84375 -1.421875 12.171875 6.21875 
Q 5.515625 13.875 5.515625 27.296875 
Q 5.515625 40.765625 12.171875 48.375 
Q 18.84375 56 30.609375 56 
z
" id="DejaVuSans-111"/>
      <path d="M 54.890625 33.015625 
L 54.890625 0 
L 45.90625 0 
L 45.90625 32.71875 
Q 45.90625 40.484375 42.875 44.328125 
Q 39.84375 48.1875 33.796875 48.1875 
Q 26.515625 48.1875 22.3125 43.546875 
Q 18.109375 38.921875 18.109375 30.90625 
L 18.109375 0 
L 9.078125 0 
L 9.078125 54.6875 
L 18.109375 54.6875 
L 18.109375 46.1875 
Q 21.34375 51.125 25.703125 53.5625 
Q 30.078125 56 35.796875 56 
Q 45.21875 56 50.046875 50.171875 
Q 54.890625 44.34375 54.890625 33.015625 
z
" id="DejaVuSans-110"/>
     </defs>
     <g transform="translate(150.4 64.982438)scale(0.1 -0.1)">
      <use xlink:href="#DejaVuSans-80"/>
      <use x="60.287109" xlink:href="#DejaVuSans-114"/>
      <use x="101.369141" xlink:href="#DejaVuSans-101"/>
      <use x="162.892578" xlink:href="#DejaVuSans-100"/>
      <use x="226.369141" xlink:href="#DejaVuSans-105"/>
      <use x="254.152344" xlink:href="#DejaVuSans-99"/>
      <use x="309.132812" xlink:href="#DejaVuSans-116"/>
      <use x="348.341797" xlink:href="#DejaVuSans-105"/>
      <use x="376.125" xlink:href="#DejaVuSans-111"/>
      <use x="437.306641" xlink:href="#DejaVuSans-110"/>
     </g>
    </g>
    <g id="line2d_17">
     <path d="M 122.4 76.160563 
L 142.4 76.160563 
" style="fill:none;stroke:#008080;stroke-linecap:square;stroke-width:1.5;"/>
    </g>
    <g id="line2d_18">
     <g>
      <use style="fill:#008080;stroke:#008080;" x="132.4" xlink:href="#m2f82e137e1" y="76.160563"/>
     </g>
    </g>
    <g id="text_17">
     <!-- Prediction -->
     <g transform="translate(150.4 79.660563)scale(0.1 -0.1)">
      <use xlink:href="#DejaVuSans-80"/>
      <use x="60.287109" xlink:href="#DejaVuSans-114"/>
      <use x="101.369141" xlink:href="#DejaVuSans-101"/>
      <use x="162.892578" xlink:href="#DejaVuSans-100"/>
      <use x="226.369141" xlink:href="#DejaVuSans-105"/>
      <use x="254.152344" xlink:href="#DejaVuSans-99"/>
      <use x="309.132812" xlink:href="#DejaVuSans-116"/>
      <use x="348.341797" xlink:href="#DejaVuSans-105"/>
      <use x="376.125" xlink:href="#DejaVuSans-111"/>
      <use x="437.306641" xlink:href="#DejaVuSans-110"/>
     </g>
    </g>
    <g id="PathCollection_2">
     <g>
      <use style="fill:#b22222;stroke:#b22222;stroke-width:1.5;" x="132.4" xlink:href="#m7ad3e71266" y="91.713687"/>
     </g>
    </g>
    <g id="text_18">
     <!-- Raw Data -->
     <defs>
      <path d="M 44.390625 34.1875 
Q 47.5625 33.109375 50.5625 29.59375 
Q 53.5625 26.078125 56.59375 19.921875 
L 66.609375 0 
L 56 0 
L 46.6875 18.703125 
Q 43.0625 26.03125 39.671875 28.421875 
Q 36.28125 30.8125 30.421875 30.8125 
L 19.671875 30.8125 
L 19.671875 0 
L 9.8125 0 
L 9.8125 72.90625 
L 32.078125 72.90625 
Q 44.578125 72.90625 50.734375 67.671875 
Q 56.890625 62.453125 56.890625 51.90625 
Q 56.890625 45.015625 53.6875 40.46875 
Q 50.484375 35.9375 44.390625 34.1875 
z
M 19.671875 64.796875 
L 19.671875 38.921875 
L 32.078125 38.921875 
Q 39.203125 38.921875 42.84375 42.21875 
Q 46.484375 45.515625 46.484375 51.90625 
Q 46.484375 58.296875 42.84375 61.546875 
Q 39.203125 64.796875 32.078125 64.796875 
z
" id="DejaVuSans-82"/>
      <path d="M 34.28125 27.484375 
Q 23.390625 27.484375 19.1875 25 
Q 14.984375 22.515625 14.984375 16.5 
Q 14.984375 11.71875 18.140625 8.90625 
Q 21.296875 6.109375 26.703125 6.109375 
Q 34.1875 6.109375 38.703125 11.40625 
Q 43.21875 16.703125 43.21875 25.484375 
L 43.21875 27.484375 
z
M 52.203125 31.203125 
L 52.203125 0 
L 43.21875 0 
L 43.21875 8.296875 
Q 40.140625 3.328125 35.546875 0.953125 
Q 30.953125 -1.421875 24.3125 -1.421875 
Q 15.921875 -1.421875 10.953125 3.296875 
Q 6 8.015625 6 15.921875 
Q 6 25.140625 12.171875 29.828125 
Q 18.359375 34.515625 30.609375 34.515625 
L 43.21875 34.515625 
L 43.21875 35.40625 
Q 43.21875 41.609375 39.140625 45 
Q 35.0625 48.390625 27.6875 48.390625 
Q 23 48.390625 18.546875 47.265625 
Q 14.109375 46.140625 10.015625 43.890625 
L 10.015625 52.203125 
Q 14.9375 54.109375 19.578125 55.046875 
Q 24.21875 56 28.609375 56 
Q 40.484375 56 46.34375 49.84375 
Q 52.203125 43.703125 52.203125 31.203125 
z
" id="DejaVuSans-97"/>
      <path d="M 4.203125 54.6875 
L 13.1875 54.6875 
L 24.421875 12.015625 
L 35.59375 54.6875 
L 46.1875 54.6875 
L 57.421875 12.015625 
L 68.609375 54.6875 
L 77.59375 54.6875 
L 63.28125 0 
L 52.6875 0 
L 40.921875 44.828125 
L 29.109375 0 
L 18.5 0 
z
" id="DejaVuSans-119"/>
      <path id="DejaVuSans-32"/>
      <path d="M 19.671875 64.796875 
L 19.671875 8.109375 
L 31.59375 8.109375 
Q 46.6875 8.109375 53.6875 14.9375 
Q 60.6875 21.78125 60.6875 36.53125 
Q 60.6875 51.171875 53.6875 57.984375 
Q 46.6875 64.796875 31.59375 64.796875 
z
M 9.8125 72.90625 
L 30.078125 72.90625 
Q 51.265625 72.90625 61.171875 64.09375 
Q 71.09375 55.28125 71.09375 36.53125 
Q 71.09375 17.671875 61.125 8.828125 
Q 51.171875 0 30.078125 0 
L 9.8125 0 
z
" id="DejaVuSans-68"/>
     </defs>
     <g transform="translate(150.4 94.338687)scale(0.1 -0.1)">
      <use xlink:href="#DejaVuSans-82"/>
      <use x="69.451172" xlink:href="#DejaVuSans-97"/>
      <use x="130.730469" xlink:href="#DejaVuSans-119"/>
      <use x="212.517578" xlink:href="#DejaVuSans-32"/>
      <use x="244.304688" xlink:href="#DejaVuSans-68"/>
      <use x="321.306641" xlink:href="#DejaVuSans-97"/>
      <use x="382.585938" xlink:href="#DejaVuSans-116"/>
      <use x="421.794922" xlink:href="#DejaVuSans-97"/>
     </g>
    </g>
   </g>
  </g>
  <g id="axes_2">
   <g id="patch_8">
    <path d="M 496.898182 358.848 
L 816.48 358.848 
L 816.48 48.384 
L 496.898182 48.384 
z
" style="fill:none;"/>
   </g>
   <g id="PathCollection_3">
    <g clip-path="url(#pcbb7b0a3fb)">
     <use style="fill:#b22222;stroke:#b22222;stroke-width:1.5;" x="512.901554" xlink:href="#m7ad3e71266" y="334.971802"/>
     <use style="fill:#b22222;stroke:#b22222;stroke-width:1.5;" x="549.319963" xlink:href="#m7ad3e71266" y="305.809254"/>
     <use style="fill:#b22222;stroke:#b22222;stroke-width:1.5;" x="574.48931" xlink:href="#m7ad3e71266" y="253.862678"/>
     <use style="fill:#b22222;stroke:#b22222;stroke-width:1.5;" x="604.240194" xlink:href="#m7ad3e71266" y="255.618287"/>
     <use style="fill:#b22222;stroke:#b22222;stroke-width:1.5;" x="639.477027" xlink:href="#m7ad3e71266" y="223.978136"/>
     <use style="fill:#b22222;stroke:#b22222;stroke-width:1.5;" x="669.268278" xlink:href="#m7ad3e71266" y="172.006232"/>
     <use style="fill:#b22222;stroke:#b22222;stroke-width:1.5;" x="698.068236" xlink:href="#m7ad3e71266" y="164.936654"/>
     <use style="fill:#b22222;stroke:#b22222;stroke-width:1.5;" x="727.909337" xlink:href="#m7ad3e71266" y="126.91376"/>
     <use style="fill:#b22222;stroke:#b22222;stroke-width:1.5;" x="761.454413" xlink:href="#m7ad3e71266" y="85.252163"/>
     <use style="fill:#b22222;stroke:#b22222;stroke-width:1.5;" x="794.926176" xlink:href="#m7ad3e71266" y="70.608338"/>
    </g>
   </g>
   <g id="matplotlib.axis_3">
    <g id="xtick_7">
     <g id="line2d_19">
      <g>
       <use style="stroke:#000000;stroke-width:0.8;" x="512.116364" xlink:href="#m3b7dc8e3bc" y="358.848"/>
      </g>
     </g>
     <g id="text_19">
      <!-- 0 -->
      <g transform="translate(508.935114 373.446438)scale(0.1 -0.1)">
       <use xlink:href="#DejaVuSans-48"/>
      </g>
     </g>
    </g>
    <g id="xtick_8">
     <g id="line2d_20">
      <g>
       <use style="stroke:#000000;stroke-width:0.8;" x="572.989091" xlink:href="#m3b7dc8e3bc" y="358.848"/>
      </g>
     </g>
     <g id="text_20">
      <!-- 2 -->
      <g transform="translate(569.807841 373.446438)scale(0.1 -0.1)">
       <use xlink:href="#DejaVuSans-50"/>
      </g>
     </g>
    </g>
    <g id="xtick_9">
     <g id="line2d_21">
      <g>
       <use style="stroke:#000000;stroke-width:0.8;" x="633.861818" xlink:href="#m3b7dc8e3bc" y="358.848"/>
      </g>
     </g>
     <g id="text_21">
      <!-- 4 -->
      <g transform="translate(630.680568 373.446438)scale(0.1 -0.1)">
       <use xlink:href="#DejaVuSans-52"/>
      </g>
     </g>
    </g>
    <g id="xtick_10">
     <g id="line2d_22">
      <g>
       <use style="stroke:#000000;stroke-width:0.8;" x="694.734545" xlink:href="#m3b7dc8e3bc" y="358.848"/>
      </g>
     </g>
     <g id="text_22">
      <!-- 6 -->
      <g transform="translate(691.553295 373.446438)scale(0.1 -0.1)">
       <use xlink:href="#DejaVuSans-54"/>
      </g>
     </g>
    </g>
    <g id="xtick_11">
     <g id="line2d_23">
      <g>
       <use style="stroke:#000000;stroke-width:0.8;" x="755.607273" xlink:href="#m3b7dc8e3bc" y="358.848"/>
      </g>
     </g>
     <g id="text_23">
      <!-- 8 -->
      <g transform="translate(752.426023 373.446438)scale(0.1 -0.1)">
       <use xlink:href="#DejaVuSans-56"/>
      </g>
     </g>
    </g>
    <g id="xtick_12">
     <g id="line2d_24">
      <g>
       <use style="stroke:#000000;stroke-width:0.8;" x="816.48" xlink:href="#m3b7dc8e3bc" y="358.848"/>
      </g>
     </g>
     <g id="text_24">
      <!-- 10 -->
      <g transform="translate(810.1175 373.446438)scale(0.1 -0.1)">
       <use xlink:href="#DejaVuSans-49"/>
       <use x="63.623047" xlink:href="#DejaVuSans-48"/>
      </g>
     </g>
    </g>
    <g id="text_25">
     <!-- x -->
     <g transform="translate(653.729716 387.124563)scale(0.1 -0.1)">
      <use xlink:href="#DejaVuSans-120"/>
     </g>
    </g>
   </g>
   <g id="matplotlib.axis_4">
    <g id="ytick_7">
     <g id="line2d_25">
      <g>
       <use style="stroke:#000000;stroke-width:0.8;" x="496.898182" xlink:href="#mbfbfb8fb39" y="345.349565"/>
      </g>
     </g>
     <g id="text_26">
      <!-- 0 -->
      <g transform="translate(483.535682 349.148784)scale(0.1 -0.1)">
       <use xlink:href="#DejaVuSans-48"/>
      </g>
     </g>
    </g>
    <g id="ytick_8">
     <g id="line2d_26">
      <g>
       <use style="stroke:#000000;stroke-width:0.8;" x="496.898182" xlink:href="#mbfbfb8fb39" y="291.355826"/>
      </g>
     </g>
     <g id="text_27">
      <!-- 2 -->
      <g transform="translate(483.535682 295.155045)scale(0.1 -0.1)">
       <use xlink:href="#DejaVuSans-50"/>
      </g>
     </g>
    </g>
    <g id="ytick_9">
     <g id="line2d_27">
      <g>
       <use style="stroke:#000000;stroke-width:0.8;" x="496.898182" xlink:href="#mbfbfb8fb39" y="237.362087"/>
      </g>
     </g>
     <g id="text_28">
      <!-- 4 -->
      <g transform="translate(483.535682 241.161306)scale(0.1 -0.1)">
       <use xlink:href="#DejaVuSans-52"/>
      </g>
     </g>
    </g>
    <g id="ytick_10">
     <g id="line2d_28">
      <g>
       <use style="stroke:#000000;stroke-width:0.8;" x="496.898182" xlink:href="#mbfbfb8fb39" y="183.368348"/>
      </g>
     </g>
     <g id="text_29">
      <!-- 6 -->
      <g transform="translate(483.535682 187.167567)scale(0.1 -0.1)">
       <use xlink:href="#DejaVuSans-54"/>
      </g>
     </g>
    </g>
    <g id="ytick_11">
     <g id="line2d_29">
      <g>
       <use style="stroke:#000000;stroke-width:0.8;" x="496.898182" xlink:href="#mbfbfb8fb39" y="129.374609"/>
      </g>
     </g>
     <g id="text_30">
      <!-- 8 -->
      <g transform="translate(483.535682 133.173827)scale(0.1 -0.1)">
       <use xlink:href="#DejaVuSans-56"/>
      </g>
     </g>
    </g>
    <g id="ytick_12">
     <g id="line2d_30">
      <g>
       <use style="stroke:#000000;stroke-width:0.8;" x="496.898182" xlink:href="#mbfbfb8fb39" y="75.38087"/>
      </g>
     </g>
     <g id="text_31">
      <!-- 10 -->
      <g transform="translate(477.173182 79.180088)scale(0.1 -0.1)">
       <use xlink:href="#DejaVuSans-49"/>
       <use x="63.623047" xlink:href="#DejaVuSans-48"/>
      </g>
     </g>
    </g>
    <g id="text_32">
     <!-- y -->
     <g transform="translate(471.093494 206.575375)rotate(-90)scale(0.1 -0.1)">
      <use xlink:href="#DejaVuSans-121"/>
     </g>
    </g>
   </g>
   <g id="line2d_31">
    <path clip-path="url(#pcbb7b0a3fb)" d="M 542.552727 321.052383 
L 542.552727 321.052383 
L 542.552727 321.052383 
L 542.552727 321.052383 
L 542.552727 321.052383 
L 542.552727 321.052383 
L 542.552727 321.052383 
L 542.552727 321.052383 
L 542.552727 321.052383 
L 542.552727 321.052383 
" style="fill:none;stroke:#008080;stroke-linecap:square;stroke-width:1.5;"/>
    <g clip-path="url(#pcbb7b0a3fb)">
     <use style="fill:#008080;stroke:#008080;" x="542.552727" xlink:href="#m2f82e137e1" y="321.052383"/>
     <use style="fill:#008080;stroke:#008080;" x="542.552727" xlink:href="#m2f82e137e1" y="321.052383"/>
     <use style="fill:#008080;stroke:#008080;" x="542.552727" xlink:href="#m2f82e137e1" y="321.052383"/>
     <use style="fill:#008080;stroke:#008080;" x="542.552727" xlink:href="#m2f82e137e1" y="321.052383"/>
     <use style="fill:#008080;stroke:#008080;" x="542.552727" xlink:href="#m2f82e137e1" y="321.052383"/>
     <use style="fill:#008080;stroke:#008080;" x="542.552727" xlink:href="#m2f82e137e1" y="321.052383"/>
     <use style="fill:#008080;stroke:#008080;" x="542.552727" xlink:href="#m2f82e137e1" y="321.052383"/>
     <use style="fill:#008080;stroke:#008080;" x="542.552727" xlink:href="#m2f82e137e1" y="321.052383"/>
     <use style="fill:#008080;stroke:#008080;" x="542.552727" xlink:href="#m2f82e137e1" y="321.052383"/>
     <use style="fill:#008080;stroke:#008080;" x="542.552727" xlink:href="#m2f82e137e1" y="321.052383"/>
    </g>
   </g>
   <g id="line2d_32">
    <path clip-path="url(#pcbb7b0a3fb)" d="M 512.901554 352.612875 
L 549.319963 313.849387 
L 574.48931 287.059317 
L 604.240194 255.392693 
L 639.477027 217.886865 
L 669.268278 186.177275 
L 698.068236 155.52281 
L 727.909337 123.760159 
L 761.454413 88.055024 
L 794.926176 52.427925 
" style="fill:none;stroke:#008080;stroke-linecap:square;stroke-width:1.5;"/>
    <g clip-path="url(#pcbb7b0a3fb)">
     <use style="fill:#008080;stroke:#008080;" x="512.901554" xlink:href="#m2f82e137e1" y="352.612875"/>
     <use style="fill:#008080;stroke:#008080;" x="549.319963" xlink:href="#m2f82e137e1" y="313.849387"/>
     <use style="fill:#008080;stroke:#008080;" x="574.48931" xlink:href="#m2f82e137e1" y="287.059317"/>
     <use style="fill:#008080;stroke:#008080;" x="604.240194" xlink:href="#m2f82e137e1" y="255.392693"/>
     <use style="fill:#008080;stroke:#008080;" x="639.477027" xlink:href="#m2f82e137e1" y="217.886865"/>
     <use style="fill:#008080;stroke:#008080;" x="669.268278" xlink:href="#m2f82e137e1" y="186.177275"/>
     <use style="fill:#008080;stroke:#008080;" x="698.068236" xlink:href="#m2f82e137e1" y="155.52281"/>
     <use style="fill:#008080;stroke:#008080;" x="727.909337" xlink:href="#m2f82e137e1" y="123.760159"/>
     <use style="fill:#008080;stroke:#008080;" x="761.454413" xlink:href="#m2f82e137e1" y="88.055024"/>
     <use style="fill:#008080;stroke:#008080;" x="794.926176" xlink:href="#m2f82e137e1" y="52.427925"/>
    </g>
   </g>
   <g id="patch_9">
    <path d="M 496.898182 358.848 
L 496.898182 48.384 
" style="fill:none;stroke:#000000;stroke-linecap:square;stroke-linejoin:miter;stroke-width:0.8;"/>
   </g>
   <g id="patch_10">
    <path d="M 816.48 358.848 
L 816.48 48.384 
" style="fill:none;stroke:#000000;stroke-linecap:square;stroke-linejoin:miter;stroke-width:0.8;"/>
   </g>
   <g id="patch_11">
    <path d="M 496.898182 358.848 
L 816.48 358.848 
" style="fill:none;stroke:#000000;stroke-linecap:square;stroke-linejoin:miter;stroke-width:0.8;"/>
   </g>
   <g id="patch_12">
    <path d="M 496.898182 48.384 
L 816.48 48.384 
" style="fill:none;stroke:#000000;stroke-linecap:square;stroke-linejoin:miter;stroke-width:0.8;"/>
   </g>
   <g id="text_33">
    <!-- $\theta_0 = -0.3, \theta_1=1.2$ -->
    <defs>
     <path d="M 10.59375 35.5 
L 73.1875 35.5 
L 73.1875 27.203125 
L 10.59375 27.203125 
z
" id="DejaVuSans-8722"/>
     <path d="M 40.578125 39.3125 
Q 47.65625 37.796875 51.625 33 
Q 55.609375 28.21875 55.609375 21.1875 
Q 55.609375 10.40625 48.1875 4.484375 
Q 40.765625 -1.421875 27.09375 -1.421875 
Q 22.515625 -1.421875 17.65625 -0.515625 
Q 12.796875 0.390625 7.625 2.203125 
L 7.625 11.71875 
Q 11.71875 9.328125 16.59375 8.109375 
Q 21.484375 6.890625 26.8125 6.890625 
Q 36.078125 6.890625 40.9375 10.546875 
Q 45.796875 14.203125 45.796875 21.1875 
Q 45.796875 27.640625 41.28125 31.265625 
Q 36.765625 34.90625 28.71875 34.90625 
L 20.21875 34.90625 
L 20.21875 43.015625 
L 29.109375 43.015625 
Q 36.375 43.015625 40.234375 45.921875 
Q 44.09375 48.828125 44.09375 54.296875 
Q 44.09375 59.90625 40.109375 62.90625 
Q 36.140625 65.921875 28.71875 65.921875 
Q 24.65625 65.921875 20.015625 65.03125 
Q 15.375 64.15625 9.8125 62.3125 
L 9.8125 71.09375 
Q 15.4375 72.65625 20.34375 73.4375 
Q 25.25 74.21875 29.59375 74.21875 
Q 40.828125 74.21875 47.359375 69.109375 
Q 53.90625 64.015625 53.90625 55.328125 
Q 53.90625 49.265625 50.4375 45.09375 
Q 46.96875 40.921875 40.578125 39.3125 
z
" id="DejaVuSans-51"/>
    </defs>
    <g transform="translate(599.389091 42.384)scale(0.12 -0.12)">
     <use transform="translate(0 0.234375)" xlink:href="#DejaVuSans-Oblique-952"/>
     <use transform="translate(61.181641 -16.171875)scale(0.7)" xlink:href="#DejaVuSans-48"/>
     <use transform="translate(127.93457 0.234375)" xlink:href="#DejaVuSans-61"/>
     <use transform="translate(250.688477 0.234375)" xlink:href="#DejaVuSans-8722"/>
     <use transform="translate(353.959961 0.234375)" xlink:href="#DejaVuSans-48"/>
     <use transform="translate(417.583008 0.234375)" xlink:href="#DejaVuSans-46"/>
     <use transform="translate(449.370117 0.234375)" xlink:href="#DejaVuSans-51"/>
     <use transform="translate(512.993164 0.234375)" xlink:href="#DejaVuSans-44"/>
     <use transform="translate(564.262695 0.234375)" xlink:href="#DejaVuSans-Oblique-952"/>
     <use transform="translate(625.444336 -16.171875)scale(0.7)" xlink:href="#DejaVuSans-49"/>
     <use transform="translate(692.197266 0.234375)" xlink:href="#DejaVuSans-61"/>
     <use transform="translate(795.46875 0.234375)" xlink:href="#DejaVuSans-49"/>
     <use transform="translate(859.091797 0.234375)" xlink:href="#DejaVuSans-46"/>
     <use transform="translate(890.800781 0.234375)" xlink:href="#DejaVuSans-50"/>
    </g>
   </g>
   <g id="legend_2">
    <g id="patch_13">
     <path d="M 503.898182 100.418375 
L 585.966932 100.418375 
Q 587.966932 100.418375 587.966932 98.418375 
L 587.966932 55.384 
Q 587.966932 53.384 585.966932 53.384 
L 503.898182 53.384 
Q 501.898182 53.384 501.898182 55.384 
L 501.898182 98.418375 
Q 501.898182 100.418375 503.898182 100.418375 
z
" style="fill:#ffffff;opacity:0.8;stroke:#cccccc;stroke-linejoin:miter;"/>
    </g>
    <g id="line2d_33">
     <path d="M 505.898182 61.482438 
L 525.898182 61.482438 
" style="fill:none;stroke:#008080;stroke-linecap:square;stroke-width:1.5;"/>
    </g>
    <g id="line2d_34">
     <g>
      <use style="fill:#008080;stroke:#008080;" x="515.898182" xlink:href="#m2f82e137e1" y="61.482438"/>
     </g>
    </g>
    <g id="text_34">
     <!-- Prediction -->
     <g transform="translate(533.898182 64.982438)scale(0.1 -0.1)">
      <use xlink:href="#DejaVuSans-80"/>
      <use x="60.287109" xlink:href="#DejaVuSans-114"/>
      <use x="101.369141" xlink:href="#DejaVuSans-101"/>
      <use x="162.892578" xlink:href="#DejaVuSans-100"/>
      <use x="226.369141" xlink:href="#DejaVuSans-105"/>
      <use x="254.152344" xlink:href="#DejaVuSans-99"/>
      <use x="309.132812" xlink:href="#DejaVuSans-116"/>
      <use x="348.341797" xlink:href="#DejaVuSans-105"/>
      <use x="376.125" xlink:href="#DejaVuSans-111"/>
      <use x="437.306641" xlink:href="#DejaVuSans-110"/>
     </g>
    </g>
    <g id="line2d_35">
     <path d="M 505.898182 76.160563 
L 525.898182 76.160563 
" style="fill:none;stroke:#008080;stroke-linecap:square;stroke-width:1.5;"/>
    </g>
    <g id="line2d_36">
     <g>
      <use style="fill:#008080;stroke:#008080;" x="515.898182" xlink:href="#m2f82e137e1" y="76.160563"/>
     </g>
    </g>
    <g id="text_35">
     <!-- Prediction -->
     <g transform="translate(533.898182 79.660563)scale(0.1 -0.1)">
      <use xlink:href="#DejaVuSans-80"/>
      <use x="60.287109" xlink:href="#DejaVuSans-114"/>
      <use x="101.369141" xlink:href="#DejaVuSans-101"/>
      <use x="162.892578" xlink:href="#DejaVuSans-100"/>
      <use x="226.369141" xlink:href="#DejaVuSans-105"/>
      <use x="254.152344" xlink:href="#DejaVuSans-99"/>
      <use x="309.132812" xlink:href="#DejaVuSans-116"/>
      <use x="348.341797" xlink:href="#DejaVuSans-105"/>
      <use x="376.125" xlink:href="#DejaVuSans-111"/>
      <use x="437.306641" xlink:href="#DejaVuSans-110"/>
     </g>
    </g>
    <g id="PathCollection_4">
     <g>
      <use style="fill:#b22222;stroke:#b22222;stroke-width:1.5;" x="515.898182" xlink:href="#m7ad3e71266" y="91.713687"/>
     </g>
    </g>
    <g id="text_36">
     <!-- Raw Data -->
     <g transform="translate(533.898182 94.338687)scale(0.1 -0.1)">
      <use xlink:href="#DejaVuSans-82"/>
      <use x="69.451172" xlink:href="#DejaVuSans-97"/>
      <use x="130.730469" xlink:href="#DejaVuSans-119"/>
      <use x="212.517578" xlink:href="#DejaVuSans-32"/>
      <use x="244.304688" xlink:href="#DejaVuSans-68"/>
      <use x="321.306641" xlink:href="#DejaVuSans-97"/>
      <use x="382.585938" xlink:href="#DejaVuSans-116"/>
      <use x="421.794922" xlink:href="#DejaVuSans-97"/>
     </g>
    </g>
   </g>
  </g>
 </g>
 <defs>
  <clipPath id="p400c202d11">
   <rect height="310.464" width="319.581818" x="113.4" y="48.384"/>
  </clipPath>
  <clipPath id="pcbb7b0a3fb">
   <rect height="310.464" width="319.581818" x="496.898182" y="48.384"/>
  </clipPath>
 </defs>
</svg>
