<?xml version="1.0" encoding="utf-8" standalone="no"?>
<!DOCTYPE svg PUBLIC "-//W3C//DTD SVG 1.1//EN"
  "http://www.w3.org/Graphics/SVG/1.1/DTD/svg11.dtd">
<!-- Created with matplotlib (https://matplotlib.org/) -->
<svg height="475.2pt" version="1.1" viewBox="0 0 1483.2 475.2" width="1483.2pt" xmlns="http://www.w3.org/2000/svg" xmlns:xlink="http://www.w3.org/1999/xlink">
 <defs>
  <style type="text/css">
*{stroke-linecap:butt;stroke-linejoin:round;}
  </style>
 </defs>
 <g id="figure_1">
  <g id="patch_1">
   <path d="M 0 475.2 
L 1483.2 475.2 
L 1483.2 0 
L 0 0 
z
" style="fill:none;"/>
  </g>
  <g id="axes_1">
   <g id="patch_2">
    <path d="M 185.4 422.928 
L 603.392727 422.928 
L 603.392727 57.024 
L 185.4 57.024 
z
" style="fill:none;"/>
   </g>
   <g id="PathCollection_1">
    <defs>
     <path d="M -5 5 
L 5 -5 
M -5 -5 
L 5 5 
" id="m0a27068c03" style="stroke:#b22222;stroke-width:1.5;"/>
    </defs>
    <g clip-path="url(#p580a3bf977)">
     <use style="fill:#b22222;stroke:#b22222;stroke-width:1.5;" x="227.199273" xlink:href="#m0a27068c03" y="148.5"/>
     <use style="fill:#b22222;stroke:#b22222;stroke-width:1.5;" x="272.753567" xlink:href="#m0a27068c03" y="136.921537"/>
     <use style="fill:#b22222;stroke:#b22222;stroke-width:1.5;" x="306.326144" xlink:href="#m0a27068c03" y="162.195079"/>
     <use style="fill:#b22222;stroke:#b22222;stroke-width:1.5;" x="331.884303" xlink:href="#m0a27068c03" y="181.435342"/>
     <use style="fill:#b22222;stroke:#b22222;stroke-width:1.5;" x="351.341239" xlink:href="#m0a27068c03" y="196.082585"/>
     <use style="fill:#b22222;stroke:#b22222;stroke-width:1.5;" x="366.153432" xlink:href="#m0a27068c03" y="207.23325"/>
     <use style="fill:#b22222;stroke:#b22222;stroke-width:1.5;" x="377.42967" xlink:href="#m0a27068c03" y="215.722038"/>
     <use style="fill:#b22222;stroke:#b22222;stroke-width:1.5;" x="386.014054" xlink:href="#m0a27068c03" y="222.18439"/>
     <use style="fill:#b22222;stroke:#b22222;stroke-width:1.5;" x="392.549181" xlink:href="#m0a27068c03" y="227.104054"/>
     <use style="fill:#b22222;stroke:#b22222;stroke-width:1.5;" x="397.524248" xlink:href="#m0a27068c03" y="230.8493"/>
     <use style="fill:#b22222;stroke:#b22222;stroke-width:1.5;" x="401.311671" xlink:href="#m0a27068c03" y="233.700484"/>
     <use style="fill:#b22222;stroke:#b22222;stroke-width:1.5;" x="404.194963" xlink:href="#m0a27068c03" y="235.871035"/>
     <use style="fill:#b22222;stroke:#b22222;stroke-width:1.5;" x="406.389958" xlink:href="#m0a27068c03" y="237.523435"/>
     <use style="fill:#b22222;stroke:#b22222;stroke-width:1.5;" x="408.060966" xlink:href="#m0a27068c03" y="238.781375"/>
     <use style="fill:#b22222;stroke:#b22222;stroke-width:1.5;" x="409.333072" xlink:href="#m0a27068c03" y="239.73902"/>
     <use style="fill:#b22222;stroke:#b22222;stroke-width:1.5;" x="410.301502" xlink:href="#m0a27068c03" y="240.468057"/>
     <use style="fill:#b22222;stroke:#b22222;stroke-width:1.5;" x="411.03875" xlink:href="#m0a27068c03" y="241.023059"/>
     <use style="fill:#b22222;stroke:#b22222;stroke-width:1.5;" x="411.600002" xlink:href="#m0a27068c03" y="241.445572"/>
     <use style="fill:#b22222;stroke:#b22222;stroke-width:1.5;" x="412.027272" xlink:href="#m0a27068c03" y="241.767222"/>
     <use style="fill:#b22222;stroke:#b22222;stroke-width:1.5;" x="412.352545" xlink:href="#m0a27068c03" y="242.012089"/>
     <use style="fill:#b22222;stroke:#b22222;stroke-width:1.5;" x="412.600169" xlink:href="#m0a27068c03" y="242.198501"/>
     <use style="fill:#b22222;stroke:#b22222;stroke-width:1.5;" x="412.78868" xlink:href="#m0a27068c03" y="242.340413"/>
     <use style="fill:#b22222;stroke:#b22222;stroke-width:1.5;" x="412.932191" xlink:href="#m0a27068c03" y="242.448448"/>
     <use style="fill:#b22222;stroke:#b22222;stroke-width:1.5;" x="413.041442" xlink:href="#m0a27068c03" y="242.530693"/>
     <use style="fill:#b22222;stroke:#b22222;stroke-width:1.5;" x="413.124613" xlink:href="#m0a27068c03" y="242.593304"/>
     <use style="fill:#b22222;stroke:#b22222;stroke-width:1.5;" x="413.18793" xlink:href="#m0a27068c03" y="242.640969"/>
     <use style="fill:#b22222;stroke:#b22222;stroke-width:1.5;" x="413.236131" xlink:href="#m0a27068c03" y="242.677255"/>
     <use style="fill:#b22222;stroke:#b22222;stroke-width:1.5;" x="413.272826" xlink:href="#m0a27068c03" y="242.70488"/>
     <use style="fill:#b22222;stroke:#b22222;stroke-width:1.5;" x="413.300762" xlink:href="#m0a27068c03" y="242.725909"/>
     <use style="fill:#b22222;stroke:#b22222;stroke-width:1.5;" x="413.322028" xlink:href="#m0a27068c03" y="242.741919"/>
     <use style="fill:#b22222;stroke:#b22222;stroke-width:1.5;" x="413.338218" xlink:href="#m0a27068c03" y="242.754107"/>
     <use style="fill:#b22222;stroke:#b22222;stroke-width:1.5;" x="413.350543" xlink:href="#m0a27068c03" y="242.763385"/>
     <use style="fill:#b22222;stroke:#b22222;stroke-width:1.5;" x="413.359926" xlink:href="#m0a27068c03" y="242.770448"/>
     <use style="fill:#b22222;stroke:#b22222;stroke-width:1.5;" x="413.367069" xlink:href="#m0a27068c03" y="242.775825"/>
     <use style="fill:#b22222;stroke:#b22222;stroke-width:1.5;" x="413.372506" xlink:href="#m0a27068c03" y="242.779919"/>
     <use style="fill:#b22222;stroke:#b22222;stroke-width:1.5;" x="413.376646" xlink:href="#m0a27068c03" y="242.783035"/>
     <use style="fill:#b22222;stroke:#b22222;stroke-width:1.5;" x="413.379798" xlink:href="#m0a27068c03" y="242.785408"/>
     <use style="fill:#b22222;stroke:#b22222;stroke-width:1.5;" x="413.382197" xlink:href="#m0a27068c03" y="242.787214"/>
     <use style="fill:#b22222;stroke:#b22222;stroke-width:1.5;" x="413.384023" xlink:href="#m0a27068c03" y="242.788589"/>
     <use style="fill:#b22222;stroke:#b22222;stroke-width:1.5;" x="413.385413" xlink:href="#m0a27068c03" y="242.789636"/>
     <use style="fill:#b22222;stroke:#b22222;stroke-width:1.5;" x="413.386472" xlink:href="#m0a27068c03" y="242.790432"/>
     <use style="fill:#b22222;stroke:#b22222;stroke-width:1.5;" x="413.387278" xlink:href="#m0a27068c03" y="242.791039"/>
     <use style="fill:#b22222;stroke:#b22222;stroke-width:1.5;" x="413.387891" xlink:href="#m0a27068c03" y="242.791501"/>
     <use style="fill:#b22222;stroke:#b22222;stroke-width:1.5;" x="413.388358" xlink:href="#m0a27068c03" y="242.791852"/>
     <use style="fill:#b22222;stroke:#b22222;stroke-width:1.5;" x="413.388714" xlink:href="#m0a27068c03" y="242.79212"/>
     <use style="fill:#b22222;stroke:#b22222;stroke-width:1.5;" x="413.388984" xlink:href="#m0a27068c03" y="242.792324"/>
     <use style="fill:#b22222;stroke:#b22222;stroke-width:1.5;" x="413.38919" xlink:href="#m0a27068c03" y="242.792479"/>
     <use style="fill:#b22222;stroke:#b22222;stroke-width:1.5;" x="413.389347" xlink:href="#m0a27068c03" y="242.792597"/>
     <use style="fill:#b22222;stroke:#b22222;stroke-width:1.5;" x="413.389467" xlink:href="#m0a27068c03" y="242.792687"/>
     <use style="fill:#b22222;stroke:#b22222;stroke-width:1.5;" x="413.389558" xlink:href="#m0a27068c03" y="242.792755"/>
     <use style="fill:#b22222;stroke:#b22222;stroke-width:1.5;" x="413.389627" xlink:href="#m0a27068c03" y="242.792807"/>
     <use style="fill:#b22222;stroke:#b22222;stroke-width:1.5;" x="413.38968" xlink:href="#m0a27068c03" y="242.792847"/>
     <use style="fill:#b22222;stroke:#b22222;stroke-width:1.5;" x="413.38972" xlink:href="#m0a27068c03" y="242.792877"/>
     <use style="fill:#b22222;stroke:#b22222;stroke-width:1.5;" x="413.38975" xlink:href="#m0a27068c03" y="242.7929"/>
     <use style="fill:#b22222;stroke:#b22222;stroke-width:1.5;" x="413.389773" xlink:href="#m0a27068c03" y="242.792918"/>
     <use style="fill:#b22222;stroke:#b22222;stroke-width:1.5;" x="413.389791" xlink:href="#m0a27068c03" y="242.792931"/>
     <use style="fill:#b22222;stroke:#b22222;stroke-width:1.5;" x="413.389805" xlink:href="#m0a27068c03" y="242.792941"/>
     <use style="fill:#b22222;stroke:#b22222;stroke-width:1.5;" x="413.389815" xlink:href="#m0a27068c03" y="242.792949"/>
     <use style="fill:#b22222;stroke:#b22222;stroke-width:1.5;" x="413.389823" xlink:href="#m0a27068c03" y="242.792955"/>
     <use style="fill:#b22222;stroke:#b22222;stroke-width:1.5;" x="413.389829" xlink:href="#m0a27068c03" y="242.792959"/>
     <use style="fill:#b22222;stroke:#b22222;stroke-width:1.5;" x="413.389833" xlink:href="#m0a27068c03" y="242.792963"/>
     <use style="fill:#b22222;stroke:#b22222;stroke-width:1.5;" x="413.389837" xlink:href="#m0a27068c03" y="242.792965"/>
     <use style="fill:#b22222;stroke:#b22222;stroke-width:1.5;" x="413.389839" xlink:href="#m0a27068c03" y="242.792967"/>
     <use style="fill:#b22222;stroke:#b22222;stroke-width:1.5;" x="413.389841" xlink:href="#m0a27068c03" y="242.792969"/>
     <use style="fill:#b22222;stroke:#b22222;stroke-width:1.5;" x="413.389843" xlink:href="#m0a27068c03" y="242.79297"/>
     <use style="fill:#b22222;stroke:#b22222;stroke-width:1.5;" x="413.389844" xlink:href="#m0a27068c03" y="242.792971"/>
     <use style="fill:#b22222;stroke:#b22222;stroke-width:1.5;" x="413.389845" xlink:href="#m0a27068c03" y="242.792971"/>
     <use style="fill:#b22222;stroke:#b22222;stroke-width:1.5;" x="413.389845" xlink:href="#m0a27068c03" y="242.792972"/>
     <use style="fill:#b22222;stroke:#b22222;stroke-width:1.5;" x="413.389846" xlink:href="#m0a27068c03" y="242.792972"/>
     <use style="fill:#b22222;stroke:#b22222;stroke-width:1.5;" x="413.389846" xlink:href="#m0a27068c03" y="242.792973"/>
     <use style="fill:#b22222;stroke:#b22222;stroke-width:1.5;" x="413.389847" xlink:href="#m0a27068c03" y="242.792973"/>
     <use style="fill:#b22222;stroke:#b22222;stroke-width:1.5;" x="413.389847" xlink:href="#m0a27068c03" y="242.792973"/>
     <use style="fill:#b22222;stroke:#b22222;stroke-width:1.5;" x="413.389847" xlink:href="#m0a27068c03" y="242.792973"/>
     <use style="fill:#b22222;stroke:#b22222;stroke-width:1.5;" x="413.389847" xlink:href="#m0a27068c03" y="242.792973"/>
     <use style="fill:#b22222;stroke:#b22222;stroke-width:1.5;" x="413.389847" xlink:href="#m0a27068c03" y="242.792973"/>
     <use style="fill:#b22222;stroke:#b22222;stroke-width:1.5;" x="413.389847" xlink:href="#m0a27068c03" y="242.792973"/>
     <use style="fill:#b22222;stroke:#b22222;stroke-width:1.5;" x="413.389847" xlink:href="#m0a27068c03" y="242.792973"/>
     <use style="fill:#b22222;stroke:#b22222;stroke-width:1.5;" x="413.389847" xlink:href="#m0a27068c03" y="242.792973"/>
     <use style="fill:#b22222;stroke:#b22222;stroke-width:1.5;" x="413.389847" xlink:href="#m0a27068c03" y="242.792973"/>
     <use style="fill:#b22222;stroke:#b22222;stroke-width:1.5;" x="413.389847" xlink:href="#m0a27068c03" y="242.792973"/>
     <use style="fill:#b22222;stroke:#b22222;stroke-width:1.5;" x="413.389848" xlink:href="#m0a27068c03" y="242.792973"/>
     <use style="fill:#b22222;stroke:#b22222;stroke-width:1.5;" x="413.389848" xlink:href="#m0a27068c03" y="242.792973"/>
     <use style="fill:#b22222;stroke:#b22222;stroke-width:1.5;" x="413.389848" xlink:href="#m0a27068c03" y="242.792973"/>
     <use style="fill:#b22222;stroke:#b22222;stroke-width:1.5;" x="413.389848" xlink:href="#m0a27068c03" y="242.792973"/>
     <use style="fill:#b22222;stroke:#b22222;stroke-width:1.5;" x="413.389848" xlink:href="#m0a27068c03" y="242.792973"/>
     <use style="fill:#b22222;stroke:#b22222;stroke-width:1.5;" x="413.389848" xlink:href="#m0a27068c03" y="242.792973"/>
     <use style="fill:#b22222;stroke:#b22222;stroke-width:1.5;" x="413.389848" xlink:href="#m0a27068c03" y="242.792973"/>
     <use style="fill:#b22222;stroke:#b22222;stroke-width:1.5;" x="413.389848" xlink:href="#m0a27068c03" y="242.792973"/>
     <use style="fill:#b22222;stroke:#b22222;stroke-width:1.5;" x="413.389848" xlink:href="#m0a27068c03" y="242.792973"/>
     <use style="fill:#b22222;stroke:#b22222;stroke-width:1.5;" x="413.389848" xlink:href="#m0a27068c03" y="242.792973"/>
     <use style="fill:#b22222;stroke:#b22222;stroke-width:1.5;" x="413.389848" xlink:href="#m0a27068c03" y="242.792973"/>
     <use style="fill:#b22222;stroke:#b22222;stroke-width:1.5;" x="413.389848" xlink:href="#m0a27068c03" y="242.792973"/>
     <use style="fill:#b22222;stroke:#b22222;stroke-width:1.5;" x="413.389848" xlink:href="#m0a27068c03" y="242.792973"/>
     <use style="fill:#b22222;stroke:#b22222;stroke-width:1.5;" x="413.389848" xlink:href="#m0a27068c03" y="242.792973"/>
     <use style="fill:#b22222;stroke:#b22222;stroke-width:1.5;" x="413.389848" xlink:href="#m0a27068c03" y="242.792973"/>
     <use style="fill:#b22222;stroke:#b22222;stroke-width:1.5;" x="413.389848" xlink:href="#m0a27068c03" y="242.792973"/>
     <use style="fill:#b22222;stroke:#b22222;stroke-width:1.5;" x="413.389848" xlink:href="#m0a27068c03" y="242.792973"/>
     <use style="fill:#b22222;stroke:#b22222;stroke-width:1.5;" x="413.389848" xlink:href="#m0a27068c03" y="242.792973"/>
     <use style="fill:#b22222;stroke:#b22222;stroke-width:1.5;" x="413.389848" xlink:href="#m0a27068c03" y="242.792973"/>
     <use style="fill:#b22222;stroke:#b22222;stroke-width:1.5;" x="413.389848" xlink:href="#m0a27068c03" y="242.792973"/>
     <use style="fill:#b22222;stroke:#b22222;stroke-width:1.5;" x="413.389848" xlink:href="#m0a27068c03" y="242.792973"/>
    </g>
   </g>
   <g id="matplotlib.axis_1">
    <g id="xtick_1">
     <g id="line2d_1">
      <defs>
       <path d="M 0 0 
L 0 3.5 
" id="m7659ee2c2d" style="stroke:#000000;stroke-width:0.8;"/>
      </defs>
      <g>
       <use style="stroke:#000000;stroke-width:0.8;" x="223.399339" xlink:href="#m7659ee2c2d" y="422.928"/>
      </g>
     </g>
     <g id="text_1">
      <!-- −4 -->
      <defs>
       <path d="M 10.59375 35.5 
L 73.1875 35.5 
L 73.1875 27.203125 
L 10.59375 27.203125 
z
" id="DejaVuSans-8722"/>
       <path d="M 37.796875 64.3125 
L 12.890625 25.390625 
L 37.796875 25.390625 
z
M 35.203125 72.90625 
L 47.609375 72.90625 
L 47.609375 25.390625 
L 58.015625 25.390625 
L 58.015625 17.1875 
L 47.609375 17.1875 
L 47.609375 0 
L 37.796875 0 
L 37.796875 17.1875 
L 4.890625 17.1875 
L 4.890625 26.703125 
z
" id="DejaVuSans-52"/>
      </defs>
      <g transform="translate(216.028245 437.526437)scale(0.1 -0.1)">
       <use xlink:href="#DejaVuSans-8722"/>
       <use x="83.789062" xlink:href="#DejaVuSans-52"/>
      </g>
     </g>
    </g>
    <g id="xtick_2">
     <g id="line2d_2">
      <g>
       <use style="stroke:#000000;stroke-width:0.8;" x="299.398017" xlink:href="#m7659ee2c2d" y="422.928"/>
      </g>
     </g>
     <g id="text_2">
      <!-- −2 -->
      <defs>
       <path d="M 19.1875 8.296875 
L 53.609375 8.296875 
L 53.609375 0 
L 7.328125 0 
L 7.328125 8.296875 
Q 12.9375 14.109375 22.625 23.890625 
Q 32.328125 33.6875 34.8125 36.53125 
Q 39.546875 41.84375 41.421875 45.53125 
Q 43.3125 49.21875 43.3125 52.78125 
Q 43.3125 58.59375 39.234375 62.25 
Q 35.15625 65.921875 28.609375 65.921875 
Q 23.96875 65.921875 18.8125 64.3125 
Q 13.671875 62.703125 7.8125 59.421875 
L 7.8125 69.390625 
Q 13.765625 71.78125 18.9375 73 
Q 24.125 74.21875 28.421875 74.21875 
Q 39.75 74.21875 46.484375 68.546875 
Q 53.21875 62.890625 53.21875 53.421875 
Q 53.21875 48.921875 51.53125 44.890625 
Q 49.859375 40.875 45.40625 35.40625 
Q 44.1875 33.984375 37.640625 27.21875 
Q 31.109375 20.453125 19.1875 8.296875 
z
" id="DejaVuSans-50"/>
      </defs>
      <g transform="translate(292.026923 437.526437)scale(0.1 -0.1)">
       <use xlink:href="#DejaVuSans-8722"/>
       <use x="83.789062" xlink:href="#DejaVuSans-50"/>
      </g>
     </g>
    </g>
    <g id="xtick_3">
     <g id="line2d_3">
      <g>
       <use style="stroke:#000000;stroke-width:0.8;" x="375.396694" xlink:href="#m7659ee2c2d" y="422.928"/>
      </g>
     </g>
     <g id="text_3">
      <!-- 0 -->
      <defs>
       <path d="M 31.78125 66.40625 
Q 24.171875 66.40625 20.328125 58.90625 
Q 16.5 51.421875 16.5 36.375 
Q 16.5 21.390625 20.328125 13.890625 
Q 24.171875 6.390625 31.78125 6.390625 
Q 39.453125 6.390625 43.28125 13.890625 
Q 47.125 21.390625 47.125 36.375 
Q 47.125 51.421875 43.28125 58.90625 
Q 39.453125 66.40625 31.78125 66.40625 
z
M 31.78125 74.21875 
Q 44.046875 74.21875 50.515625 64.515625 
Q 56.984375 54.828125 56.984375 36.375 
Q 56.984375 17.96875 50.515625 8.265625 
Q 44.046875 -1.421875 31.78125 -1.421875 
Q 19.53125 -1.421875 13.0625 8.265625 
Q 6.59375 17.96875 6.59375 36.375 
Q 6.59375 54.828125 13.0625 64.515625 
Q 19.53125 74.21875 31.78125 74.21875 
z
" id="DejaVuSans-48"/>
      </defs>
      <g transform="translate(372.215444 437.526437)scale(0.1 -0.1)">
       <use xlink:href="#DejaVuSans-48"/>
      </g>
     </g>
    </g>
    <g id="xtick_4">
     <g id="line2d_4">
      <g>
       <use style="stroke:#000000;stroke-width:0.8;" x="451.395372" xlink:href="#m7659ee2c2d" y="422.928"/>
      </g>
     </g>
     <g id="text_4">
      <!-- 2 -->
      <g transform="translate(448.214122 437.526437)scale(0.1 -0.1)">
       <use xlink:href="#DejaVuSans-50"/>
      </g>
     </g>
    </g>
    <g id="xtick_5">
     <g id="line2d_5">
      <g>
       <use style="stroke:#000000;stroke-width:0.8;" x="527.39405" xlink:href="#m7659ee2c2d" y="422.928"/>
      </g>
     </g>
     <g id="text_5">
      <!-- 4 -->
      <g transform="translate(524.2128 437.526437)scale(0.1 -0.1)">
       <use xlink:href="#DejaVuSans-52"/>
      </g>
     </g>
    </g>
    <g id="xtick_6">
     <g id="line2d_6">
      <g>
       <use style="stroke:#000000;stroke-width:0.8;" x="603.392727" xlink:href="#m7659ee2c2d" y="422.928"/>
      </g>
     </g>
     <g id="text_6">
      <!-- 6 -->
      <defs>
       <path d="M 33.015625 40.375 
Q 26.375 40.375 22.484375 35.828125 
Q 18.609375 31.296875 18.609375 23.390625 
Q 18.609375 15.53125 22.484375 10.953125 
Q 26.375 6.390625 33.015625 6.390625 
Q 39.65625 6.390625 43.53125 10.953125 
Q 47.40625 15.53125 47.40625 23.390625 
Q 47.40625 31.296875 43.53125 35.828125 
Q 39.65625 40.375 33.015625 40.375 
z
M 52.59375 71.296875 
L 52.59375 62.3125 
Q 48.875 64.0625 45.09375 64.984375 
Q 41.3125 65.921875 37.59375 65.921875 
Q 27.828125 65.921875 22.671875 59.328125 
Q 17.53125 52.734375 16.796875 39.40625 
Q 19.671875 43.65625 24.015625 45.921875 
Q 28.375 48.1875 33.59375 48.1875 
Q 44.578125 48.1875 50.953125 41.515625 
Q 57.328125 34.859375 57.328125 23.390625 
Q 57.328125 12.15625 50.6875 5.359375 
Q 44.046875 -1.421875 33.015625 -1.421875 
Q 20.359375 -1.421875 13.671875 8.265625 
Q 6.984375 17.96875 6.984375 36.375 
Q 6.984375 53.65625 15.1875 63.9375 
Q 23.390625 74.21875 37.203125 74.21875 
Q 40.921875 74.21875 44.703125 73.484375 
Q 48.484375 72.75 52.59375 71.296875 
z
" id="DejaVuSans-54"/>
      </defs>
      <g transform="translate(600.211477 437.526437)scale(0.1 -0.1)">
       <use xlink:href="#DejaVuSans-54"/>
      </g>
     </g>
    </g>
    <g id="text_7">
     <!-- $\theta_0$ -->
     <defs>
      <path d="M 45.515625 34.671875 
L 14.453125 34.671875 
Q 12.359375 20.0625 14.5 13.875 
Q 17.1875 6.25 24.46875 6.25 
Q 31.78125 6.25 37.359375 13.921875 
Q 42.234375 20.65625 45.515625 34.671875 
z
M 47.015625 42.96875 
Q 48.34375 56.84375 46.625 61.71875 
Q 43.953125 69.4375 36.765625 69.4375 
Q 29.296875 69.4375 23.828125 61.8125 
Q 19.53125 55.671875 16.15625 42.96875 
z
M 38.1875 76.765625 
Q 49.90625 76.765625 54.59375 66.40625 
Q 59.28125 56.109375 55.71875 37.84375 
Q 52.203125 19.625 43.453125 9.28125 
Q 34.765625 -1.125 23.046875 -1.125 
Q 11.28125 -1.125 6.640625 9.28125 
Q 2 19.625 5.515625 37.84375 
Q 9.078125 56.109375 17.71875 66.40625 
Q 26.421875 76.765625 38.1875 76.765625 
z
" id="DejaVuSans-Oblique-952"/>
     </defs>
     <g transform="translate(388.946364 451.204563)scale(0.1 -0.1)">
      <use transform="translate(0 0.234375)" xlink:href="#DejaVuSans-Oblique-952"/>
      <use transform="translate(61.181641 -16.171875)scale(0.7)" xlink:href="#DejaVuSans-48"/>
     </g>
    </g>
   </g>
   <g id="matplotlib.axis_2">
    <g id="ytick_1">
     <g id="line2d_7">
      <defs>
       <path d="M 0 0 
L -3.5 0 
" id="m1ba8a44bd9" style="stroke:#000000;stroke-width:0.8;"/>
      </defs>
      <g>
       <use style="stroke:#000000;stroke-width:0.8;" x="185.4" xlink:href="#m1ba8a44bd9" y="422.928"/>
      </g>
     </g>
     <g id="text_8">
      <!-- 0.00 -->
      <defs>
       <path d="M 10.6875 12.40625 
L 21 12.40625 
L 21 0 
L 10.6875 0 
z
" id="DejaVuSans-46"/>
      </defs>
      <g transform="translate(156.134375 426.727219)scale(0.1 -0.1)">
       <use xlink:href="#DejaVuSans-48"/>
       <use x="63.623047" xlink:href="#DejaVuSans-46"/>
       <use x="95.410156" xlink:href="#DejaVuSans-48"/>
       <use x="159.033203" xlink:href="#DejaVuSans-48"/>
      </g>
     </g>
    </g>
    <g id="ytick_2">
     <g id="line2d_8">
      <g>
       <use style="stroke:#000000;stroke-width:0.8;" x="185.4" xlink:href="#m1ba8a44bd9" y="377.19"/>
      </g>
     </g>
     <g id="text_9">
      <!-- 0.25 -->
      <defs>
       <path d="M 10.796875 72.90625 
L 49.515625 72.90625 
L 49.515625 64.59375 
L 19.828125 64.59375 
L 19.828125 46.734375 
Q 21.96875 47.46875 24.109375 47.828125 
Q 26.265625 48.1875 28.421875 48.1875 
Q 40.625 48.1875 47.75 41.5 
Q 54.890625 34.8125 54.890625 23.390625 
Q 54.890625 11.625 47.5625 5.09375 
Q 40.234375 -1.421875 26.90625 -1.421875 
Q 22.3125 -1.421875 17.546875 -0.640625 
Q 12.796875 0.140625 7.71875 1.703125 
L 7.71875 11.625 
Q 12.109375 9.234375 16.796875 8.0625 
Q 21.484375 6.890625 26.703125 6.890625 
Q 35.15625 6.890625 40.078125 11.328125 
Q 45.015625 15.765625 45.015625 23.390625 
Q 45.015625 31 40.078125 35.4375 
Q 35.15625 39.890625 26.703125 39.890625 
Q 22.75 39.890625 18.8125 39.015625 
Q 14.890625 38.140625 10.796875 36.28125 
z
" id="DejaVuSans-53"/>
      </defs>
      <g transform="translate(156.134375 380.989219)scale(0.1 -0.1)">
       <use xlink:href="#DejaVuSans-48"/>
       <use x="63.623047" xlink:href="#DejaVuSans-46"/>
       <use x="95.410156" xlink:href="#DejaVuSans-50"/>
       <use x="159.033203" xlink:href="#DejaVuSans-53"/>
      </g>
     </g>
    </g>
    <g id="ytick_3">
     <g id="line2d_9">
      <g>
       <use style="stroke:#000000;stroke-width:0.8;" x="185.4" xlink:href="#m1ba8a44bd9" y="331.452"/>
      </g>
     </g>
     <g id="text_10">
      <!-- 0.50 -->
      <g transform="translate(156.134375 335.251219)scale(0.1 -0.1)">
       <use xlink:href="#DejaVuSans-48"/>
       <use x="63.623047" xlink:href="#DejaVuSans-46"/>
       <use x="95.410156" xlink:href="#DejaVuSans-53"/>
       <use x="159.033203" xlink:href="#DejaVuSans-48"/>
      </g>
     </g>
    </g>
    <g id="ytick_4">
     <g id="line2d_10">
      <g>
       <use style="stroke:#000000;stroke-width:0.8;" x="185.4" xlink:href="#m1ba8a44bd9" y="285.714"/>
      </g>
     </g>
     <g id="text_11">
      <!-- 0.75 -->
      <defs>
       <path d="M 8.203125 72.90625 
L 55.078125 72.90625 
L 55.078125 68.703125 
L 28.609375 0 
L 18.3125 0 
L 43.21875 64.59375 
L 8.203125 64.59375 
z
" id="DejaVuSans-55"/>
      </defs>
      <g transform="translate(156.134375 289.513219)scale(0.1 -0.1)">
       <use xlink:href="#DejaVuSans-48"/>
       <use x="63.623047" xlink:href="#DejaVuSans-46"/>
       <use x="95.410156" xlink:href="#DejaVuSans-55"/>
       <use x="159.033203" xlink:href="#DejaVuSans-53"/>
      </g>
     </g>
    </g>
    <g id="ytick_5">
     <g id="line2d_11">
      <g>
       <use style="stroke:#000000;stroke-width:0.8;" x="185.4" xlink:href="#m1ba8a44bd9" y="239.976"/>
      </g>
     </g>
     <g id="text_12">
      <!-- 1.00 -->
      <defs>
       <path d="M 12.40625 8.296875 
L 28.515625 8.296875 
L 28.515625 63.921875 
L 10.984375 60.40625 
L 10.984375 69.390625 
L 28.421875 72.90625 
L 38.28125 72.90625 
L 38.28125 8.296875 
L 54.390625 8.296875 
L 54.390625 0 
L 12.40625 0 
z
" id="DejaVuSans-49"/>
      </defs>
      <g transform="translate(156.134375 243.775219)scale(0.1 -0.1)">
       <use xlink:href="#DejaVuSans-49"/>
       <use x="63.623047" xlink:href="#DejaVuSans-46"/>
       <use x="95.410156" xlink:href="#DejaVuSans-48"/>
       <use x="159.033203" xlink:href="#DejaVuSans-48"/>
      </g>
     </g>
    </g>
    <g id="ytick_6">
     <g id="line2d_12">
      <g>
       <use style="stroke:#000000;stroke-width:0.8;" x="185.4" xlink:href="#m1ba8a44bd9" y="194.238"/>
      </g>
     </g>
     <g id="text_13">
      <!-- 1.25 -->
      <g transform="translate(156.134375 198.037219)scale(0.1 -0.1)">
       <use xlink:href="#DejaVuSans-49"/>
       <use x="63.623047" xlink:href="#DejaVuSans-46"/>
       <use x="95.410156" xlink:href="#DejaVuSans-50"/>
       <use x="159.033203" xlink:href="#DejaVuSans-53"/>
      </g>
     </g>
    </g>
    <g id="ytick_7">
     <g id="line2d_13">
      <g>
       <use style="stroke:#000000;stroke-width:0.8;" x="185.4" xlink:href="#m1ba8a44bd9" y="148.5"/>
      </g>
     </g>
     <g id="text_14">
      <!-- 1.50 -->
      <g transform="translate(156.134375 152.299219)scale(0.1 -0.1)">
       <use xlink:href="#DejaVuSans-49"/>
       <use x="63.623047" xlink:href="#DejaVuSans-46"/>
       <use x="95.410156" xlink:href="#DejaVuSans-53"/>
       <use x="159.033203" xlink:href="#DejaVuSans-48"/>
      </g>
     </g>
    </g>
    <g id="ytick_8">
     <g id="line2d_14">
      <g>
       <use style="stroke:#000000;stroke-width:0.8;" x="185.4" xlink:href="#m1ba8a44bd9" y="102.762"/>
      </g>
     </g>
     <g id="text_15">
      <!-- 1.75 -->
      <g transform="translate(156.134375 106.561219)scale(0.1 -0.1)">
       <use xlink:href="#DejaVuSans-49"/>
       <use x="63.623047" xlink:href="#DejaVuSans-46"/>
       <use x="95.410156" xlink:href="#DejaVuSans-55"/>
       <use x="159.033203" xlink:href="#DejaVuSans-53"/>
      </g>
     </g>
    </g>
    <g id="ytick_9">
     <g id="line2d_15">
      <g>
       <use style="stroke:#000000;stroke-width:0.8;" x="185.4" xlink:href="#m1ba8a44bd9" y="57.024"/>
      </g>
     </g>
     <g id="text_16">
      <!-- 2.00 -->
      <g transform="translate(156.134375 60.823219)scale(0.1 -0.1)">
       <use xlink:href="#DejaVuSans-50"/>
       <use x="63.623047" xlink:href="#DejaVuSans-46"/>
       <use x="95.410156" xlink:href="#DejaVuSans-48"/>
       <use x="159.033203" xlink:href="#DejaVuSans-48"/>
      </g>
     </g>
    </g>
    <g id="text_17">
     <!-- $\theta_1$ -->
     <g transform="translate(150.054688 245.426)rotate(-90)scale(0.1 -0.1)">
      <use transform="translate(0 0.234375)" xlink:href="#DejaVuSans-Oblique-952"/>
      <use transform="translate(61.181641 -16.171875)scale(0.7)" xlink:href="#DejaVuSans-49"/>
     </g>
    </g>
   </g>
   <g id="LineCollection_1"/>
   <g id="LineCollection_2">
    <path clip-path="url(#p580a3bf977)" d="M 388.683809 225.33984 
L 389.836443 228.767451 
L 390.216436 229.516089 
L 391.73641 232.188981 
L 392.496397 233.339554 
L 394.776357 236.49051 
L 399.352261 241.80552 
L 406.176159 248.383217 
L 409.216106 251.016216 
L 416.43598 256.480923 
L 422.515874 260.28482 
L 426.695802 262.395083 
L 430.115742 263.763694 
L 432.395702 264.312653 
L 433.915676 264.49727 
L 435.055656 264.479175 
L 436.195636 264.248764 
L 437.203577 263.75976 
L 437.71561 262.977429 
L 438.142249 261.93024 
L 438.070799 260.10072 
L 437.335617 257.780932 
L 436.57563 256.076527 
L 434.675663 252.771841 
L 430.495736 247.230778 
L 424.795835 241.123655 
L 420.995901 237.549401 
L 416.43598 233.682798 
L 412.636046 230.737044 
L 406.556152 226.665198 
L 402.376225 224.308517 
L 399.716271 223.028402 
L 396.206744 221.6808 
L 394.01637 221.204644 
L 392.496397 221.071205 
L 391.356417 221.144915 
L 390.216436 221.456669 
L 389.760727 221.6808 
L 389.076456 222.590441 
L 388.660195 223.51032 
L 388.683809 225.33984 
L 388.683809 225.33984 
" style="fill:none;stroke:#440154;stroke-width:1.5;"/>
   </g>
   <g id="LineCollection_3">
    <path clip-path="url(#p580a3bf977)" d="M 371.972405 212.5332 
L 372.356747 214.763425 
L 372.73674 216.19588 
L 374.256714 219.917857 
L 376.536674 224.05512 
L 378.816635 227.576342 
L 382.236575 232.209247 
L 384.136542 234.584464 
L 390.216436 241.430634 
L 392.496397 243.804711 
L 399.716271 250.735367 
L 402.376225 253.101665 
L 409.216106 258.792989 
L 415.296 263.410241 
L 418.357834 265.58928 
L 425.555821 270.227648 
L 429.735749 272.645023 
L 432.395702 274.035229 
L 435.815643 275.666358 
L 439.235583 277.081656 
L 442.655524 278.228443 
L 444.555491 278.697383 
L 446.835451 279.062095 
L 448.735418 279.157465 
L 450.255392 279.032878 
L 451.395372 278.773447 
L 452.535352 278.290165 
L 453.295339 277.668296 
L 454.203408 276.5664 
L 454.763958 274.73688 
L 454.796217 272.90736 
L 454.435319 270.837255 
L 453.675332 268.42996 
L 452.915345 266.572971 
L 451.775365 264.225685 
L 451.015379 262.854148 
L 449.374178 260.10072 
L 444.935484 253.887697 
L 441.895537 250.130161 
L 438.85559 246.645142 
L 434.295669 241.786379 
L 426.315808 234.178506 
L 419.475927 228.332786 
L 414.15602 224.158585 
L 410.356086 221.364785 
L 403.896198 217.01534 
L 399.581471 214.36272 
L 393.636377 211.172268 
L 390.976423 209.924556 
L 387.556483 208.504359 
L 384.136542 207.368704 
L 381.856582 206.808556 
L 379.576621 206.484391 
L 377.676655 206.436004 
L 376.156681 206.611878 
L 374.698079 207.04464 
L 373.876721 207.581589 
L 373.116734 208.299014 
L 372.65582 208.87416 
L 372.036831 210.70368 
L 371.972405 212.5332 
L 371.972405 212.5332 
" style="fill:none;stroke:#440256;stroke-width:1.5;"/>
   </g>
   <g id="LineCollection_4">
    <path clip-path="url(#p580a3bf977)" d="M 353.995599 199.72656 
L 354.497058 202.534802 
L 354.877051 203.962299 
L 355.637038 206.201825 
L 356.397025 208.082859 
L 357.596175 210.70368 
L 360.653518 216.19224 
L 364.756879 222.359709 
L 368.323794 227.16936 
L 374.636707 234.795669 
L 381.037901 241.80552 
L 389.45645 250.177592 
L 394.225307 254.61216 
L 403.136212 262.309048 
L 410.736079 268.359182 
L 416.43598 272.609322 
L 420.235914 275.292083 
L 426.695802 279.593579 
L 431.255722 282.423747 
L 437.71561 286.101997 
L 443.415511 288.991791 
L 446.835451 290.53507 
L 450.635385 292.062142 
L 454.435319 293.359002 
L 457.85526 294.257087 
L 460.895207 294.817968 
L 463.175167 295.00505 
L 465.075134 294.977613 
L 466.595107 294.790809 
L 468.115081 294.369841 
L 469.255061 293.86459 
L 470.539318 293.03208 
L 471.535021 291.860283 
L 471.972293 291.20256 
L 472.620008 289.37304 
L 472.837718 287.54352 
L 472.675002 285.117094 
L 472.295008 283.101494 
L 471.915015 281.650133 
L 470.7797 278.39592 
L 468.495074 273.579089 
L 467.128353 271.07784 
L 463.175167 264.876597 
L 460.13522 260.636248 
L 457.85526 257.669082 
L 453.675332 252.563615 
L 447.215445 245.342149 
L 439.615577 237.611191 
L 433.155689 231.533734 
L 428.595769 227.473952 
L 425.175828 224.559147 
L 419.095934 219.595727 
L 411.116073 213.543466 
L 405.416172 209.519489 
L 400.856251 206.487807 
L 394.776357 202.720857 
L 389.076456 199.487058 
L 382.996562 196.419935 
L 379.576621 194.893597 
L 376.156681 193.527517 
L 372.356747 192.225919 
L 368.936807 191.333546 
L 365.89686 190.776969 
L 363.616899 190.573637 
L 361.716932 190.601685 
L 360.196959 190.802372 
L 358.676985 191.216531 
L 357.537005 191.712581 
L 356.397025 192.421593 
L 355.637038 193.219266 
L 354.877051 194.253915 
L 354.192966 196.06752 
L 353.94758 197.89704 
L 353.995599 199.72656 
L 353.995599 199.72656 
" style="fill:none;stroke:#450457;stroke-width:1.5;"/>
   </g>
   <g id="LineCollection_5">
    <path clip-path="url(#p580a3bf977)" d="M 332.744984 185.0904 
L 333.469585 188.74944 
L 334.737402 192.71799 
L 336.257375 196.427577 
L 338.157342 200.34468 
L 340.437302 204.485866 
L 342.337269 207.639717 
L 345.526281 212.5332 
L 351.077117 220.180552 
L 356.648151 227.16936 
L 364.376886 236.041663 
L 368.013684 239.976 
L 376.991521 249.1236 
L 386.796496 258.366041 
L 396.296331 266.683998 
L 401.996231 271.41406 
L 410.869364 278.39592 
L 420.995901 285.800194 
L 430.115742 291.948923 
L 436.955623 296.235838 
L 441.895537 299.138475 
L 448.355425 302.676979 
L 454.815312 305.894529 
L 460.895207 308.556223 
L 465.455127 310.30088 
L 469.635055 311.671063 
L 473.814982 312.761528 
L 476.854929 313.348782 
L 479.894876 313.69641 
L 482.55483 313.769044 
L 484.83479 313.602364 
L 486.734757 313.252307 
L 488.254731 312.747433 
L 489.774704 311.993698 
L 490.914684 311.213144 
L 492.054664 310.035411 
L 492.814651 308.925712 
L 493.574638 307.232764 
L 493.959662 305.83872 
L 494.182344 304.0092 
L 494.185612 302.17968 
L 493.954631 300.007081 
L 493.574638 297.993634 
L 492.737279 294.8616 
L 491.294678 290.94845 
L 489.394711 286.772978 
L 487.494744 283.134982 
L 485.214783 279.203479 
L 482.934823 275.588537 
L 480.274869 271.653779 
L 477.994909 268.472893 
L 474.194975 263.457198 
L 468.473162 256.44168 
L 460.515213 247.48602 
L 456.887777 243.63504 
L 447.595438 234.335965 
L 438.475597 225.866506 
L 433.535683 221.507281 
L 424.035848 213.570727 
L 417.195967 208.182616 
L 409.976093 202.787943 
L 402.376225 197.433701 
L 394.396364 192.177936 
L 386.416502 187.328255 
L 381.856582 184.747845 
L 375.016701 181.168775 
L 368.936807 178.323979 
L 364.756879 176.574555 
L 360.576952 175.023557 
L 356.397025 173.69931 
L 352.597091 172.744958 
L 349.557144 172.178121 
L 346.517197 171.862242 
L 343.857243 171.824954 
L 341.577283 172.029838 
L 339.677316 172.436418 
L 338.157342 172.99975 
L 336.637369 173.811123 
L 335.877382 174.372512 
L 334.737402 175.528992 
L 334.357408 176.001629 
L 333.397789 177.77232 
L 332.837435 179.682336 
L 332.606287 181.43136 
L 332.587463 183.26088 
L 332.744984 185.0904 
L 332.744984 185.0904 
" style="fill:none;stroke:#46075a;stroke-width:1.5;"/>
   </g>
   <g id="LineCollection_6">
    <path clip-path="url(#p580a3bf977)" d="M 306.5746 166.7952 
L 307.377878 170.775149 
L 308.335155 174.11328 
L 310.037831 178.712721 
L 311.190528 181.43136 
L 313.864802 186.91992 
L 317.257706 192.982505 
L 320.297653 197.929083 
L 325.237567 205.263936 
L 330.937468 212.999648 
L 336.637369 220.197239 
L 343.097256 227.847182 
L 349.17715 234.667757 
L 357.632224 243.63504 
L 367.416833 253.38045 
L 375.396694 260.911683 
L 382.996562 267.77327 
L 392.496397 275.94588 
L 398.956284 281.265584 
L 406.176159 286.993154 
L 412.636046 291.922751 
L 420.995901 298.036228 
L 427.075795 302.294342 
L 436.955623 308.848084 
L 443.415511 312.895699 
L 448.735418 316.068567 
L 455.195306 319.729373 
L 461.2752 322.963526 
L 468.115081 326.334897 
L 474.574969 329.222789 
L 479.514883 331.215116 
L 483.69481 332.725559 
L 487.874737 334.061758 
L 492.434658 335.293781 
L 496.614585 336.15044 
L 500.034526 336.639571 
L 503.074473 336.866115 
L 505.734426 336.858643 
L 508.014387 336.659266 
L 510.294347 336.235955 
L 512.194314 335.669921 
L 513.714288 335.037954 
L 515.234261 334.131278 
L 516.374241 333.278022 
L 517.514221 332.087874 
L 518.274208 331.087136 
L 519.117095 329.62248 
L 519.815581 327.79296 
L 520.239247 325.96344 
L 520.452313 324.13392 
L 520.496394 322.3044 
L 520.399598 320.47488 
L 519.864433 316.81584 
L 518.962208 313.1568 
L 517.514221 308.846993 
L 515.994248 305.097942 
L 514.474274 301.781646 
L 511.814321 296.613107 
L 508.014387 290.109896 
L 505.220631 285.714 
L 499.654532 277.697065 
L 495.094612 271.615601 
L 491.674671 267.273788 
L 484.454797 258.626305 
L 480.654863 254.298887 
L 473.054995 246.034333 
L 468.115081 240.901927 
L 461.655193 234.429579 
L 451.395372 224.68506 
L 443.415511 217.490038 
L 434.675663 209.969884 
L 426.315808 203.101752 
L 416.43598 195.391901 
L 408.076126 189.195111 
L 401.996231 184.877714 
L 392.116403 178.218616 
L 386.036509 174.338439 
L 380.716602 171.095044 
L 374.636707 167.558588 
L 368.556813 164.21954 
L 362.096926 160.904419 
L 355.177054 157.6476 
L 348.797157 154.971901 
L 343.47725 152.997045 
L 338.917329 151.526996 
L 334.357408 150.291643 
L 330.177481 149.437888 
L 326.75754 148.950463 
L 323.717593 148.724495 
L 321.05764 148.731261 
L 318.777679 148.928627 
L 316.497719 149.347961 
L 314.597752 149.908481 
L 313.077779 150.548308 
L 311.557805 151.44508 
L 310.417825 152.305889 
L 309.277845 153.479725 
L 308.517858 154.486679 
L 307.732202 155.81808 
L 306.997884 157.687608 
L 306.565704 159.47712 
L 306.337678 161.30664 
L 306.281266 163.13616 
L 306.367783 164.96568 
L 306.5746 166.7952 
L 306.5746 166.7952 
" style="fill:none;stroke:#460b5e;stroke-width:1.5;"/>
   </g>
   <g id="LineCollection_7">
    <path clip-path="url(#p580a3bf977)" d="M 273.451673 141.18192 
L 273.93846 144.849641 
L 274.718919 148.5 
L 275.838426 152.427592 
L 277.3584 156.778123 
L 278.878374 160.550866 
L 280.398347 163.959685 
L 282.678307 168.639207 
L 286.478241 175.610266 
L 288.831946 179.60184 
L 293.698116 187.255933 
L 298.63803 194.454617 
L 304.717924 202.722006 
L 308.897851 208.116332 
L 313.931367 214.36272 
L 322.577613 224.523491 
L 328.657507 231.330869 
L 336.705431 239.976 
L 347.458884 250.95312 
L 358.806077 261.93024 
L 370.836774 272.970412 
L 382.616569 283.236692 
L 390.216436 289.601539 
L 401.616238 298.770987 
L 413.01604 307.50572 
L 419.855921 312.535349 
L 427.455788 317.945071 
L 435.43565 323.416209 
L 443.415511 328.667834 
L 451.775365 333.927154 
L 460.515213 339.147754 
L 469.635055 344.273864 
L 478.754896 349.029426 
L 485.214783 352.164265 
L 492.434658 355.411173 
L 499.654532 358.342122 
L 504.97444 360.281813 
L 509.914354 361.886595 
L 514.854268 363.279501 
L 519.794182 364.433187 
L 523.974109 365.165002 
L 527.774043 365.622063 
L 531.193983 365.822221 
L 534.233931 365.792441 
L 536.893884 365.570111 
L 539.553838 365.124355 
L 541.833798 364.526674 
L 543.733765 363.803937 
L 545.633732 362.849779 
L 546.773712 362.114888 
L 548.493376 360.72432 
L 549.81366 359.269852 
L 550.573646 358.217636 
L 551.333633 356.960556 
L 552.121295 355.23576 
L 552.853607 352.791282 
L 553.2336 350.662611 
L 553.348427 349.7472 
L 553.44921 347.91768 
L 553.315245 344.25864 
L 552.817056 340.5996 
L 552.024162 336.94056 
L 550.95364 333.187095 
L 549.433666 328.840006 
L 547.913693 325.064808 
L 546.013726 320.835299 
L 544.493752 317.735613 
L 542.091813 313.1568 
L 537.859353 305.83872 
L 532.713957 297.781117 
L 528.53403 291.68966 
L 525.114089 286.946823 
L 519.794182 279.907559 
L 512.954301 271.356423 
L 508.774374 266.361773 
L 503.074473 259.776961 
L 494.714618 250.548106 
L 485.97477 241.359144 
L 476.854929 232.202552 
L 467.355094 223.078488 
L 457.475266 213.993349 
L 447.215445 204.959046 
L 436.195636 195.683264 
L 425.30075 186.91992 
L 413.353887 177.77232 
L 401.236245 168.981958 
L 394.396364 164.236938 
L 385.276522 158.155094 
L 378.056648 153.548137 
L 368.556813 147.780549 
L 360.196959 142.988029 
L 350.697124 137.910492 
L 344.61723 134.87745 
L 337.777349 131.682512 
L 330.557474 128.594651 
L 325.237567 126.526131 
L 318.777679 124.295612 
L 313.077779 122.606667 
L 308.137864 121.400534 
L 303.957937 120.599538 
L 299.77801 120.039118 
L 296.358069 119.790802 
L 293.318122 119.767008 
L 290.278175 119.971192 
L 287.618221 120.37916 
L 285.338261 120.936568 
L 283.438294 121.616409 
L 281.538327 122.515896 
L 280.018354 123.465227 
L 278.44111 124.71624 
L 276.978407 126.295537 
L 276.21842 127.35135 
L 275.458433 128.610666 
L 274.698446 130.251624 
L 273.93846 132.745943 
L 273.558466 134.828789 
L 273.444818 135.69336 
L 273.334001 137.52288 
L 273.451673 141.18192 
L 273.451673 141.18192 
" style="fill:none;stroke:#471365;stroke-width:1.5;"/>
   </g>
   <g id="LineCollection_8">
    <path clip-path="url(#p580a3bf977)" d="M 231.697303 110.08008 
L 232.139187 114.067897 
L 232.899174 118.196219 
L 233.65916 121.374801 
L 234.79914 125.312994 
L 236.319114 129.792675 
L 237.459094 132.786236 
L 239.430964 137.52288 
L 242.399008 143.870639 
L 245.058962 149.070068 
L 248.478902 155.265464 
L 251.51885 160.426685 
L 255.318783 166.53695 
L 258.358731 171.191142 
L 262.918651 177.881763 
L 269.758532 187.353168 
L 276.598413 196.307846 
L 284.578274 206.222387 
L 290.658169 213.462578 
L 297.49805 221.329965 
L 303.19795 227.68155 
L 312.317792 237.507749 
L 319.537666 245.02328 
L 326.377547 251.94482 
L 334.737402 260.172256 
L 346.89719 271.697854 
L 357.157012 281.059036 
L 367.03684 289.779637 
L 378.816635 299.815092 
L 387.176489 306.708501 
L 397.516698 314.98632 
L 411.116073 325.442768 
L 419.855921 331.915989 
L 431.255722 340.064632 
L 439.99557 346.088532 
L 452.535352 354.367273 
L 462.035187 360.35845 
L 470.015048 365.189005 
L 479.134889 370.479509 
L 488.634724 375.712167 
L 498.134559 380.638724 
L 504.97444 383.978088 
L 511.814321 387.133332 
L 519.414188 390.405095 
L 527.014056 393.400794 
L 532.823175 395.4852 
L 539.553838 397.63961 
L 545.633732 399.324689 
L 551.333633 400.635717 
L 555.893554 401.469978 
L 560.453474 402.081708 
L 564.633402 402.4168 
L 568.433336 402.493785 
L 571.853276 402.339147 
L 574.893223 401.988305 
L 577.93317 401.397475 
L 580.213131 400.757073 
L 582.493091 399.892836 
L 584.393058 398.983977 
L 586.293025 397.820648 
L 587.812998 396.670445 
L 589.332972 395.264351 
L 590.852945 393.472852 
L 591.992926 391.760455 
L 593.132906 389.488118 
L 593.892893 387.442016 
L 594.272886 386.146506 
L 594.652879 384.449903 
L 595.104428 380.84904 
L 595.16576 377.19 
L 594.90566 373.53096 
L 594.272886 369.331087 
L 593.512899 365.773699 
L 592.372919 361.559361 
L 591.232939 357.990778 
L 589.712965 353.799142 
L 588.192992 350.031997 
L 586.463474 346.08816 
L 582.873084 338.709772 
L 578.950083 331.452 
L 574.133236 323.310931 
L 569.953309 316.713448 
L 563.837232 307.66824 
L 556.65354 297.741462 
L 550.95364 290.270523 
L 545.253739 283.097461 
L 538.346097 274.73688 
L 528.53403 263.412745 
L 519.034195 252.952182 
L 512.954301 246.491081 
L 504.594446 237.859969 
L 493.574638 226.90402 
L 482.174836 216.021534 
L 470.015048 204.877025 
L 457.935398 194.238 
L 444.555491 182.936952 
L 432.395702 173.081444 
L 422.895868 165.647672 
L 413.776026 158.729424 
L 403.136212 150.926045 
L 394.396364 144.730472 
L 381.856582 136.196013 
L 373.496727 130.737362 
L 365.136873 125.471543 
L 356.397025 120.17889 
L 347.277183 114.898805 
L 338.157342 109.879145 
L 328.277514 104.76274 
L 321.437633 101.433219 
L 314.597752 98.288553 
L 306.997884 95.029461 
L 299.398017 92.047949 
L 293.529241 89.95536 
L 286.858235 87.836642 
L 280.77834 86.167722 
L 275.07844 84.876066 
L 270.518519 84.057067 
L 265.958598 83.465933 
L 261.778671 83.153019 
L 257.978737 83.099644 
L 254.558797 83.279047 
L 251.51885 83.655373 
L 248.858896 84.183288 
L 246.578936 84.827538 
L 244.298975 85.686733 
L 242.399008 86.598683 
L 240.499041 87.754395 
L 238.979068 88.906346 
L 237.459094 90.312775 
L 235.939121 92.101359 
L 234.79914 93.811023 
L 233.65916 96.072436 
L 232.899174 98.106646 
L 232.51918 99.400025 
L 232.139187 101.082118 
L 231.685347 104.59152 
L 231.609833 108.25056 
L 231.697303 110.08008 
L 231.697303 110.08008 
" style="fill:none;stroke:#481d6f;stroke-width:1.5;"/>
   </g>
   <g id="LineCollection_9">
    <path clip-path="url(#p580a3bf977)" d="M 185.4 99.01894 
L 186.919974 102.842857 
L 190.084175 110.08008 
L 193.759855 117.648061 
L 197.559788 124.843255 
L 202.119709 132.860206 
L 206.299636 139.778595 
L 211.619544 148.111993 
L 215.799471 154.361134 
L 222.259359 163.598431 
L 229.09924 172.920792 
L 235.939121 181.855942 
L 243.918982 191.864904 
L 250.408357 199.72656 
L 261.018684 212.099274 
L 267.89733 219.85128 
L 279.656233 232.65792 
L 292.178142 245.752553 
L 303.957937 257.619812 
L 313.077779 266.534411 
L 323.3376 276.300619 
L 331.697455 284.061146 
L 345.377217 296.39999 
L 354.497058 304.390052 
L 367.796826 315.718448 
L 379.956615 325.754599 
L 389.45645 333.384367 
L 403.896198 344.63251 
L 417.195967 354.627647 
L 427.455788 362.10051 
L 437.335617 369.09754 
L 447.975431 376.414551 
L 458.615246 383.500303 
L 469.635055 390.589906 
L 481.034856 397.648532 
L 492.814651 404.636208 
L 504.97444 411.498263 
L 513.714288 416.202247 
L 523.594116 421.27608 
L 526.930591 422.928 
L 526.930591 422.928 
" style="fill:none;stroke:#472f7d;stroke-width:1.5;"/>
    <path clip-path="url(#p580a3bf977)" d="M 603.392727 320.416419 
L 595.290811 309.49776 
L 586.293025 297.976307 
L 578.313164 288.190815 
L 571.473283 280.07952 
L 561.213461 268.342868 
L 552.853607 259.107827 
L 544.113759 249.735929 
L 535.753904 241.019205 
L 525.704071 230.8284 
L 512.194314 217.598369 
L 500.034526 206.103675 
L 489.394711 196.342297 
L 480.654863 188.523547 
L 466.975101 176.630427 
L 456.715279 167.972966 
L 444.128799 157.6476 
L 429.355755 145.945757 
L 417.195967 136.637275 
L 405.796165 128.173623 
L 392.116403 118.362076 
L 380.716602 110.46841 
L 371.216767 104.093683 
L 359.056979 96.208102 
L 348.797157 89.797821 
L 336.257375 82.286348 
L 324.857574 75.776782 
L 316.117726 71.004292 
L 306.237898 65.848761 
L 295.766418 60.68304 
L 287.903357 57.024 
L 287.903357 57.024 
" style="fill:none;stroke:#472f7d;stroke-width:1.5;"/>
   </g>
   <g id="LineCollection_10">
    <path clip-path="url(#p580a3bf977)" d="M 185.4 165.196788 
L 195.279828 177.562915 
L 202.119709 185.854421 
L 211.23955 196.612753 
L 221.499372 208.347031 
L 230.196152 218.02176 
L 243.538988 232.417903 
L 252.490537 241.80552 
L 266.84658 256.44168 
L 281.689051 271.07784 
L 297.118056 285.801499 
L 312.317792 299.851041 
L 323.3376 309.773362 
L 338.157342 322.779197 
L 352.612518 335.11104 
L 368.936807 348.622698 
L 382.616569 359.62226 
L 396.296331 370.331052 
L 411.116073 381.605659 
L 424.945047 391.82616 
L 440.755557 403.146091 
L 455.575299 413.405916 
L 466.595107 420.811083 
L 469.79745 422.928 
L 469.79745 422.928 
" style="fill:none;stroke:#3e4989;stroke-width:1.5;"/>
    <path clip-path="url(#p580a3bf977)" d="M 603.392727 275.118582 
L 595.032873 265.866247 
L 586.673018 256.824316 
L 577.93317 247.577919 
L 568.813329 238.139189 
L 554.277601 223.51032 
L 539.173845 208.805011 
L 523.974109 194.476326 
L 513.714288 185.052631 
L 497.754565 170.776327 
L 487.11475 161.503422 
L 476.474936 152.421654 
L 465.835121 143.525995 
L 454.055326 133.885622 
L 443.415511 125.370864 
L 431.255722 115.851093 
L 420.235914 107.423123 
L 406.635149 97.27344 
L 390.976423 85.944653 
L 376.156681 75.569808 
L 365.136873 68.077541 
L 354.497058 61.029452 
L 348.327584 57.024 
L 348.327584 57.024 
" style="fill:none;stroke:#3e4989;stroke-width:1.5;"/>
   </g>
   <g id="LineCollection_11">
    <path clip-path="url(#p580a3bf977)" d="M 185.4 219.388875 
L 195.659821 230.361519 
L 206.299636 241.509124 
L 216.939451 252.434052 
L 227.95926 263.529258 
L 238.979068 274.410997 
L 250.378869 285.45587 
L 261.778671 296.293419 
L 273.558466 307.284856 
L 285.718255 318.418266 
L 297.878043 329.342091 
L 310.037831 340.06322 
L 323.348415 351.57672 
L 341.577283 366.968811 
L 356.777018 379.486345 
L 373.116734 392.62487 
L 388.411299 404.6328 
L 406.556152 418.510243 
L 412.438812 422.928 
L 412.438812 422.928 
" style="fill:none;stroke:#2d708e;stroke-width:1.5;"/>
    <path clip-path="url(#p580a3bf977)" d="M 603.392727 226.634641 
L 589.188997 212.5332 
L 572.613263 196.507313 
L 560.525436 185.0904 
L 543.353772 169.251368 
L 530.433997 157.608159 
L 512.574307 141.893748 
L 498.894545 130.138639 
L 481.034856 115.155929 
L 464.315147 101.489411 
L 450.635385 90.561938 
L 436.955623 79.860602 
L 422.135881 68.519635 
L 408.456119 58.283914 
L 406.754012 57.024 
L 406.754012 57.024 
" style="fill:none;stroke:#2d708e;stroke-width:1.5;"/>
   </g>
   <g id="LineCollection_12">
    <path clip-path="url(#p580a3bf977)" d="M 185.4 279.793508 
L 198.699769 292.753844 
L 211.999537 305.491458 
L 225.679299 318.370853 
L 239.359061 331.032192 
L 253.418817 343.826631 
L 267.858565 356.743284 
L 281.918321 369.107188 
L 297.878043 382.897076 
L 317.257706 399.297188 
L 337.017362 415.640205 
L 345.978691 422.928 
L 345.978691 422.928 
" style="fill:none;stroke:#24aa83;stroke-width:1.5;"/>
    <path clip-path="url(#p580a3bf977)" d="M 603.392727 169.35877 
L 588.572985 155.611557 
L 569.953309 138.69142 
L 552.853607 123.481921 
L 537.494618 110.08008 
L 517.514221 93.008103 
L 499.654532 78.081685 
L 482.880325 64.34208 
L 473.807995 57.024 
L 473.807995 57.024 
" style="fill:none;stroke:#24aa83;stroke-width:1.5;"/>
   </g>
   <g id="LineCollection_13">
    <path clip-path="url(#p580a3bf977)" d="M 185.4 352.199333 
L 204.750935 369.87192 
L 226.439286 389.297981 
L 244.298975 405.005274 
L 265.042003 422.928 
L 265.042003 422.928 
" style="fill:none;stroke:#fde725;stroke-width:1.5;"/>
    <path clip-path="url(#p580a3bf977)" d="M 603.392727 98.997347 
L 581.733104 79.929305 
L 563.113428 63.83717 
L 555.134755 57.024 
L 555.134755 57.024 
" style="fill:none;stroke:#fde725;stroke-width:1.5;"/>
   </g>
   <g id="patch_3">
    <path d="M 185.4 422.928 
L 185.4 57.024 
" style="fill:none;stroke:#000000;stroke-linecap:square;stroke-linejoin:miter;stroke-width:0.8;"/>
   </g>
   <g id="patch_4">
    <path d="M 603.392727 422.928 
L 603.392727 57.024 
" style="fill:none;stroke:#000000;stroke-linecap:square;stroke-linejoin:miter;stroke-width:0.8;"/>
   </g>
   <g id="patch_5">
    <path d="M 185.4 422.928 
L 603.392727 422.928 
" style="fill:none;stroke:#000000;stroke-linecap:square;stroke-linejoin:miter;stroke-width:0.8;"/>
   </g>
   <g id="patch_6">
    <path d="M 185.4 57.024 
L 603.392727 57.024 
" style="fill:none;stroke:#000000;stroke-linecap:square;stroke-linejoin:miter;stroke-width:0.8;"/>
   </g>
   <g id="text_18">
    <!-- Trajectory of $\vec\theta$ -->
    <defs>
     <path d="M -0.296875 72.90625 
L 61.375 72.90625 
L 61.375 64.59375 
L 35.5 64.59375 
L 35.5 0 
L 25.59375 0 
L 25.59375 64.59375 
L -0.296875 64.59375 
z
" id="DejaVuSans-84"/>
     <path d="M 41.109375 46.296875 
Q 39.59375 47.171875 37.8125 47.578125 
Q 36.03125 48 33.890625 48 
Q 26.265625 48 22.1875 43.046875 
Q 18.109375 38.09375 18.109375 28.8125 
L 18.109375 0 
L 9.078125 0 
L 9.078125 54.6875 
L 18.109375 54.6875 
L 18.109375 46.1875 
Q 20.953125 51.171875 25.484375 53.578125 
Q 30.03125 56 36.53125 56 
Q 37.453125 56 38.578125 55.875 
Q 39.703125 55.765625 41.0625 55.515625 
z
" id="DejaVuSans-114"/>
     <path d="M 34.28125 27.484375 
Q 23.390625 27.484375 19.1875 25 
Q 14.984375 22.515625 14.984375 16.5 
Q 14.984375 11.71875 18.140625 8.90625 
Q 21.296875 6.109375 26.703125 6.109375 
Q 34.1875 6.109375 38.703125 11.40625 
Q 43.21875 16.703125 43.21875 25.484375 
L 43.21875 27.484375 
z
M 52.203125 31.203125 
L 52.203125 0 
L 43.21875 0 
L 43.21875 8.296875 
Q 40.140625 3.328125 35.546875 0.953125 
Q 30.953125 -1.421875 24.3125 -1.421875 
Q 15.921875 -1.421875 10.953125 3.296875 
Q 6 8.015625 6 15.921875 
Q 6 25.140625 12.171875 29.828125 
Q 18.359375 34.515625 30.609375 34.515625 
L 43.21875 34.515625 
L 43.21875 35.40625 
Q 43.21875 41.609375 39.140625 45 
Q 35.0625 48.390625 27.6875 48.390625 
Q 23 48.390625 18.546875 47.265625 
Q 14.109375 46.140625 10.015625 43.890625 
L 10.015625 52.203125 
Q 14.9375 54.109375 19.578125 55.046875 
Q 24.21875 56 28.609375 56 
Q 40.484375 56 46.34375 49.84375 
Q 52.203125 43.703125 52.203125 31.203125 
z
" id="DejaVuSans-97"/>
     <path d="M 9.421875 54.6875 
L 18.40625 54.6875 
L 18.40625 -0.984375 
Q 18.40625 -11.421875 14.421875 -16.109375 
Q 10.453125 -20.796875 1.609375 -20.796875 
L -1.8125 -20.796875 
L -1.8125 -13.1875 
L 0.59375 -13.1875 
Q 5.71875 -13.1875 7.5625 -10.8125 
Q 9.421875 -8.453125 9.421875 -0.984375 
z
M 9.421875 75.984375 
L 18.40625 75.984375 
L 18.40625 64.59375 
L 9.421875 64.59375 
z
" id="DejaVuSans-106"/>
     <path d="M 56.203125 29.59375 
L 56.203125 25.203125 
L 14.890625 25.203125 
Q 15.484375 15.921875 20.484375 11.0625 
Q 25.484375 6.203125 34.421875 6.203125 
Q 39.59375 6.203125 44.453125 7.46875 
Q 49.3125 8.734375 54.109375 11.28125 
L 54.109375 2.78125 
Q 49.265625 0.734375 44.1875 -0.34375 
Q 39.109375 -1.421875 33.890625 -1.421875 
Q 20.796875 -1.421875 13.15625 6.1875 
Q 5.515625 13.8125 5.515625 26.8125 
Q 5.515625 40.234375 12.765625 48.109375 
Q 20.015625 56 32.328125 56 
Q 43.359375 56 49.78125 48.890625 
Q 56.203125 41.796875 56.203125 29.59375 
z
M 47.21875 32.234375 
Q 47.125 39.59375 43.09375 43.984375 
Q 39.0625 48.390625 32.421875 48.390625 
Q 24.90625 48.390625 20.390625 44.140625 
Q 15.875 39.890625 15.1875 32.171875 
z
" id="DejaVuSans-101"/>
     <path d="M 48.78125 52.59375 
L 48.78125 44.1875 
Q 44.96875 46.296875 41.140625 47.34375 
Q 37.3125 48.390625 33.40625 48.390625 
Q 24.65625 48.390625 19.8125 42.84375 
Q 14.984375 37.3125 14.984375 27.296875 
Q 14.984375 17.28125 19.8125 11.734375 
Q 24.65625 6.203125 33.40625 6.203125 
Q 37.3125 6.203125 41.140625 7.25 
Q 44.96875 8.296875 48.78125 10.40625 
L 48.78125 2.09375 
Q 45.015625 0.34375 40.984375 -0.53125 
Q 36.96875 -1.421875 32.421875 -1.421875 
Q 20.0625 -1.421875 12.78125 6.34375 
Q 5.515625 14.109375 5.515625 27.296875 
Q 5.515625 40.671875 12.859375 48.328125 
Q 20.21875 56 33.015625 56 
Q 37.15625 56 41.109375 55.140625 
Q 45.0625 54.296875 48.78125 52.59375 
z
" id="DejaVuSans-99"/>
     <path d="M 18.3125 70.21875 
L 18.3125 54.6875 
L 36.8125 54.6875 
L 36.8125 47.703125 
L 18.3125 47.703125 
L 18.3125 18.015625 
Q 18.3125 11.328125 20.140625 9.421875 
Q 21.96875 7.515625 27.59375 7.515625 
L 36.8125 7.515625 
L 36.8125 0 
L 27.59375 0 
Q 17.1875 0 13.234375 3.875 
Q 9.28125 7.765625 9.28125 18.015625 
L 9.28125 47.703125 
L 2.6875 47.703125 
L 2.6875 54.6875 
L 9.28125 54.6875 
L 9.28125 70.21875 
z
" id="DejaVuSans-116"/>
     <path d="M 30.609375 48.390625 
Q 23.390625 48.390625 19.1875 42.75 
Q 14.984375 37.109375 14.984375 27.296875 
Q 14.984375 17.484375 19.15625 11.84375 
Q 23.34375 6.203125 30.609375 6.203125 
Q 37.796875 6.203125 41.984375 11.859375 
Q 46.1875 17.53125 46.1875 27.296875 
Q 46.1875 37.015625 41.984375 42.703125 
Q 37.796875 48.390625 30.609375 48.390625 
z
M 30.609375 56 
Q 42.328125 56 49.015625 48.375 
Q 55.71875 40.765625 55.71875 27.296875 
Q 55.71875 13.875 49.015625 6.21875 
Q 42.328125 -1.421875 30.609375 -1.421875 
Q 18.84375 -1.421875 12.171875 6.21875 
Q 5.515625 13.875 5.515625 27.296875 
Q 5.515625 40.765625 12.171875 48.375 
Q 18.84375 56 30.609375 56 
z
" id="DejaVuSans-111"/>
     <path d="M 32.171875 -5.078125 
Q 28.375 -14.84375 24.75 -17.8125 
Q 21.140625 -20.796875 15.09375 -20.796875 
L 7.90625 -20.796875 
L 7.90625 -13.28125 
L 13.1875 -13.28125 
Q 16.890625 -13.28125 18.9375 -11.515625 
Q 21 -9.765625 23.484375 -3.21875 
L 25.09375 0.875 
L 2.984375 54.6875 
L 12.5 54.6875 
L 29.59375 11.921875 
L 46.6875 54.6875 
L 56.203125 54.6875 
z
" id="DejaVuSans-121"/>
     <path id="DejaVuSans-32"/>
     <path d="M 37.109375 75.984375 
L 37.109375 68.5 
L 28.515625 68.5 
Q 23.6875 68.5 21.796875 66.546875 
Q 19.921875 64.59375 19.921875 59.515625 
L 19.921875 54.6875 
L 34.71875 54.6875 
L 34.71875 47.703125 
L 19.921875 47.703125 
L 19.921875 0 
L 10.890625 0 
L 10.890625 47.703125 
L 2.296875 47.703125 
L 2.296875 54.6875 
L 10.890625 54.6875 
L 10.890625 58.5 
Q 10.890625 67.625 15.140625 71.796875 
Q 19.390625 75.984375 28.609375 75.984375 
z
" id="DejaVuSans-102"/>
     <path d="M -47.015625 63.53125 
L -47.015625 68.40625 
L -10.84375 68.40625 
L -17.28125 75.984375 
L -11.140625 75.984375 
L -2.59375 65.96875 
L -11.140625 55.953125 
L -17.28125 55.953125 
L -10.84375 63.53125 
z
" id="DejaVuSans-8407"/>
    </defs>
    <g transform="translate(350.596364 51.024)scale(0.12 -0.12)">
     <use transform="translate(0 0.703125)" xlink:href="#DejaVuSans-84"/>
     <use transform="translate(61.083984 0.703125)" xlink:href="#DejaVuSans-114"/>
     <use transform="translate(102.197266 0.703125)" xlink:href="#DejaVuSans-97"/>
     <use transform="translate(163.476562 0.703125)" xlink:href="#DejaVuSans-106"/>
     <use transform="translate(191.259766 0.703125)" xlink:href="#DejaVuSans-101"/>
     <use transform="translate(252.783203 0.703125)" xlink:href="#DejaVuSans-99"/>
     <use transform="translate(307.763672 0.703125)" xlink:href="#DejaVuSans-116"/>
     <use transform="translate(346.972656 0.703125)" xlink:href="#DejaVuSans-111"/>
     <use transform="translate(408.154297 0.703125)" xlink:href="#DejaVuSans-114"/>
     <use transform="translate(449.267578 0.703125)" xlink:href="#DejaVuSans-121"/>
     <use transform="translate(508.447266 0.703125)" xlink:href="#DejaVuSans-32"/>
     <use transform="translate(540.234375 0.703125)" xlink:href="#DejaVuSans-111"/>
     <use transform="translate(601.416016 0.703125)" xlink:href="#DejaVuSans-102"/>
     <use transform="translate(636.621094 0.703125)" xlink:href="#DejaVuSans-32"/>
     <use transform="translate(728.740234 34.015625)" xlink:href="#DejaVuSans-8407"/>
     <use transform="translate(668.408203 0.703125)" xlink:href="#DejaVuSans-Oblique-952"/>
    </g>
   </g>
  </g>
  <g id="axes_2">
   <g id="patch_7">
    <path clip-path="url(#p5f1e98317c)" d="M 629.517273 422.928 
L 629.517273 392.436 
L 629.517273 87.516 
L 629.517273 57.024 
L 647.812473 57.024 
L 647.812473 87.516 
L 647.812473 392.436 
L 647.812473 422.928 
z
" style="fill:#ffffff;stroke:#ffffff;stroke-linejoin:miter;stroke-width:0.01;"/>
   </g>
   <g id="matplotlib.axis_3"/>
   <g id="matplotlib.axis_4">
    <g id="ytick_10">
     <g id="line2d_16">
      <defs>
       <path d="M 0 0 
L 3.5 0 
" id="m7e966d8d79" style="stroke:#000000;stroke-width:0.8;"/>
      </defs>
      <g>
       <use style="stroke:#000000;stroke-width:0.8;" x="647.812473" xlink:href="#m7e966d8d79" y="422.928"/>
      </g>
     </g>
     <g id="text_19">
      <!-- 0.05 -->
      <g transform="translate(654.812473 426.727219)scale(0.1 -0.1)">
       <use xlink:href="#DejaVuSans-48"/>
       <use x="63.623047" xlink:href="#DejaVuSans-46"/>
       <use x="95.410156" xlink:href="#DejaVuSans-48"/>
       <use x="159.033203" xlink:href="#DejaVuSans-53"/>
      </g>
     </g>
    </g>
    <g id="ytick_11">
     <g id="line2d_17">
      <g>
       <use style="stroke:#000000;stroke-width:0.8;" x="647.812473" xlink:href="#m7e966d8d79" y="361.944"/>
      </g>
     </g>
     <g id="text_20">
      <!-- 0.14 -->
      <g transform="translate(654.812473 365.743219)scale(0.1 -0.1)">
       <use xlink:href="#DejaVuSans-48"/>
       <use x="63.623047" xlink:href="#DejaVuSans-46"/>
       <use x="95.410156" xlink:href="#DejaVuSans-49"/>
       <use x="159.033203" xlink:href="#DejaVuSans-52"/>
      </g>
     </g>
    </g>
    <g id="ytick_12">
     <g id="line2d_18">
      <g>
       <use style="stroke:#000000;stroke-width:0.8;" x="647.812473" xlink:href="#m7e966d8d79" y="300.96"/>
      </g>
     </g>
     <g id="text_21">
      <!-- 0.37 -->
      <defs>
       <path d="M 40.578125 39.3125 
Q 47.65625 37.796875 51.625 33 
Q 55.609375 28.21875 55.609375 21.1875 
Q 55.609375 10.40625 48.1875 4.484375 
Q 40.765625 -1.421875 27.09375 -1.421875 
Q 22.515625 -1.421875 17.65625 -0.515625 
Q 12.796875 0.390625 7.625 2.203125 
L 7.625 11.71875 
Q 11.71875 9.328125 16.59375 8.109375 
Q 21.484375 6.890625 26.8125 6.890625 
Q 36.078125 6.890625 40.9375 10.546875 
Q 45.796875 14.203125 45.796875 21.1875 
Q 45.796875 27.640625 41.28125 31.265625 
Q 36.765625 34.90625 28.71875 34.90625 
L 20.21875 34.90625 
L 20.21875 43.015625 
L 29.109375 43.015625 
Q 36.375 43.015625 40.234375 45.921875 
Q 44.09375 48.828125 44.09375 54.296875 
Q 44.09375 59.90625 40.109375 62.90625 
Q 36.140625 65.921875 28.71875 65.921875 
Q 24.65625 65.921875 20.015625 65.03125 
Q 15.375 64.15625 9.8125 62.3125 
L 9.8125 71.09375 
Q 15.4375 72.65625 20.34375 73.4375 
Q 25.25 74.21875 29.59375 74.21875 
Q 40.828125 74.21875 47.359375 69.109375 
Q 53.90625 64.015625 53.90625 55.328125 
Q 53.90625 49.265625 50.4375 45.09375 
Q 46.96875 40.921875 40.578125 39.3125 
z
" id="DejaVuSans-51"/>
      </defs>
      <g transform="translate(654.812473 304.759219)scale(0.1 -0.1)">
       <use xlink:href="#DejaVuSans-48"/>
       <use x="63.623047" xlink:href="#DejaVuSans-46"/>
       <use x="95.410156" xlink:href="#DejaVuSans-51"/>
       <use x="159.033203" xlink:href="#DejaVuSans-55"/>
      </g>
     </g>
    </g>
    <g id="ytick_13">
     <g id="line2d_19">
      <g>
       <use style="stroke:#000000;stroke-width:0.8;" x="647.812473" xlink:href="#m7e966d8d79" y="239.976"/>
      </g>
     </g>
     <g id="text_22">
      <!-- 1.00 -->
      <g transform="translate(654.812473 243.775219)scale(0.1 -0.1)">
       <use xlink:href="#DejaVuSans-49"/>
       <use x="63.623047" xlink:href="#DejaVuSans-46"/>
       <use x="95.410156" xlink:href="#DejaVuSans-48"/>
       <use x="159.033203" xlink:href="#DejaVuSans-48"/>
      </g>
     </g>
    </g>
    <g id="ytick_14">
     <g id="line2d_20">
      <g>
       <use style="stroke:#000000;stroke-width:0.8;" x="647.812473" xlink:href="#m7e966d8d79" y="178.992"/>
      </g>
     </g>
     <g id="text_23">
      <!-- 2.72 -->
      <g transform="translate(654.812473 182.791219)scale(0.1 -0.1)">
       <use xlink:href="#DejaVuSans-50"/>
       <use x="63.623047" xlink:href="#DejaVuSans-46"/>
       <use x="95.410156" xlink:href="#DejaVuSans-55"/>
       <use x="159.033203" xlink:href="#DejaVuSans-50"/>
      </g>
     </g>
    </g>
    <g id="ytick_15">
     <g id="line2d_21">
      <g>
       <use style="stroke:#000000;stroke-width:0.8;" x="647.812473" xlink:href="#m7e966d8d79" y="118.008"/>
      </g>
     </g>
     <g id="text_24">
      <!-- 7.39 -->
      <defs>
       <path d="M 10.984375 1.515625 
L 10.984375 10.5 
Q 14.703125 8.734375 18.5 7.8125 
Q 22.3125 6.890625 25.984375 6.890625 
Q 35.75 6.890625 40.890625 13.453125 
Q 46.046875 20.015625 46.78125 33.40625 
Q 43.953125 29.203125 39.59375 26.953125 
Q 35.25 24.703125 29.984375 24.703125 
Q 19.046875 24.703125 12.671875 31.3125 
Q 6.296875 37.9375 6.296875 49.421875 
Q 6.296875 60.640625 12.9375 67.421875 
Q 19.578125 74.21875 30.609375 74.21875 
Q 43.265625 74.21875 49.921875 64.515625 
Q 56.59375 54.828125 56.59375 36.375 
Q 56.59375 19.140625 48.40625 8.859375 
Q 40.234375 -1.421875 26.421875 -1.421875 
Q 22.703125 -1.421875 18.890625 -0.6875 
Q 15.09375 0.046875 10.984375 1.515625 
z
M 30.609375 32.421875 
Q 37.25 32.421875 41.125 36.953125 
Q 45.015625 41.5 45.015625 49.421875 
Q 45.015625 57.28125 41.125 61.84375 
Q 37.25 66.40625 30.609375 66.40625 
Q 23.96875 66.40625 20.09375 61.84375 
Q 16.21875 57.28125 16.21875 49.421875 
Q 16.21875 41.5 20.09375 36.953125 
Q 23.96875 32.421875 30.609375 32.421875 
z
" id="DejaVuSans-57"/>
      </defs>
      <g transform="translate(654.812473 121.807219)scale(0.1 -0.1)">
       <use xlink:href="#DejaVuSans-55"/>
       <use x="63.623047" xlink:href="#DejaVuSans-46"/>
       <use x="95.410156" xlink:href="#DejaVuSans-51"/>
       <use x="159.033203" xlink:href="#DejaVuSans-57"/>
      </g>
     </g>
    </g>
    <g id="ytick_16">
     <g id="line2d_22">
      <g>
       <use style="stroke:#000000;stroke-width:0.8;" x="647.812473" xlink:href="#m7e966d8d79" y="57.024"/>
      </g>
     </g>
     <g id="text_25">
      <!-- 20.09 -->
      <g transform="translate(654.812473 60.823219)scale(0.1 -0.1)">
       <use xlink:href="#DejaVuSans-50"/>
       <use x="63.623047" xlink:href="#DejaVuSans-48"/>
       <use x="127.246094" xlink:href="#DejaVuSans-46"/>
       <use x="159.033203" xlink:href="#DejaVuSans-48"/>
       <use x="222.65625" xlink:href="#DejaVuSans-57"/>
      </g>
     </g>
    </g>
   </g>
   <g id="LineCollection_14">
    <path clip-path="url(#p5f1e98317c)" d="M 629.517273 422.928 
L 647.812473 422.928 
" style="fill:none;stroke:#440154;stroke-width:1.5;"/>
    <path clip-path="url(#p5f1e98317c)" d="M 629.517273 392.436 
L 647.812473 392.436 
" style="fill:none;stroke:#440154;stroke-width:1.5;"/>
    <path clip-path="url(#p5f1e98317c)" d="M 629.517273 361.944 
L 647.812473 361.944 
" style="fill:none;stroke:#440256;stroke-width:1.5;"/>
    <path clip-path="url(#p5f1e98317c)" d="M 629.517273 331.452 
L 647.812473 331.452 
" style="fill:none;stroke:#450457;stroke-width:1.5;"/>
    <path clip-path="url(#p5f1e98317c)" d="M 629.517273 300.96 
L 647.812473 300.96 
" style="fill:none;stroke:#46075a;stroke-width:1.5;"/>
    <path clip-path="url(#p5f1e98317c)" d="M 629.517273 270.468 
L 647.812473 270.468 
" style="fill:none;stroke:#460b5e;stroke-width:1.5;"/>
    <path clip-path="url(#p5f1e98317c)" d="M 629.517273 239.976 
L 647.812473 239.976 
" style="fill:none;stroke:#471365;stroke-width:1.5;"/>
    <path clip-path="url(#p5f1e98317c)" d="M 629.517273 209.484 
L 647.812473 209.484 
" style="fill:none;stroke:#481d6f;stroke-width:1.5;"/>
    <path clip-path="url(#p5f1e98317c)" d="M 629.517273 178.992 
L 647.812473 178.992 
" style="fill:none;stroke:#472f7d;stroke-width:1.5;"/>
    <path clip-path="url(#p5f1e98317c)" d="M 629.517273 148.5 
L 647.812473 148.5 
" style="fill:none;stroke:#3e4989;stroke-width:1.5;"/>
    <path clip-path="url(#p5f1e98317c)" d="M 629.517273 118.008 
L 647.812473 118.008 
" style="fill:none;stroke:#2d708e;stroke-width:1.5;"/>
    <path clip-path="url(#p5f1e98317c)" d="M 629.517273 87.516 
L 647.812473 87.516 
" style="fill:none;stroke:#24aa83;stroke-width:1.5;"/>
    <path clip-path="url(#p5f1e98317c)" d="M 629.517273 57.024 
L 647.812473 57.024 
" style="fill:none;stroke:#fde725;stroke-width:1.5;"/>
   </g>
   <g id="patch_8">
    <path d="M 629.517273 422.928 
L 629.517273 392.436 
L 629.517273 87.516 
L 629.517273 57.024 
L 647.812473 57.024 
L 647.812473 87.516 
L 647.812473 392.436 
L 647.812473 422.928 
z
" style="fill:none;stroke:#000000;stroke-linejoin:miter;stroke-width:0.8;"/>
   </g>
  </g>
  <g id="axes_3">
   <g id="patch_9">
    <path d="M 812.389091 422.928 
L 1334.88 422.928 
L 1334.88 57.024 
L 812.389091 57.024 
z
" style="fill:none;"/>
   </g>
   <g id="PathCollection_2">
    <defs>
     <path d="M -3 3 
L 3 -3 
M -3 -3 
L 3 3 
" id="mbc21c7b3b3" style="stroke:#b22222;stroke-width:1.5;"/>
    </defs>
    <g clip-path="url(#p25add5a16c)">
     <use style="fill:#b22222;stroke:#b22222;stroke-width:1.5;" x="843.617116" xlink:href="#mbc21c7b3b3" y="344.508226"/>
     <use style="fill:#b22222;stroke:#b22222;stroke-width:1.5;" x="889.066475" xlink:href="#mbc21c7b3b3" y="340.392223"/>
     <use style="fill:#b22222;stroke:#b22222;stroke-width:1.5;" x="938.374616" xlink:href="#mbc21c7b3b3" y="316.711146"/>
     <use style="fill:#b22222;stroke:#b22222;stroke-width:1.5;" x="1000.482678" xlink:href="#mbc21c7b3b3" y="293.205567"/>
     <use style="fill:#b22222;stroke:#b22222;stroke-width:1.5;" x="1051.031788" xlink:href="#mbc21c7b3b3" y="243.697779"/>
     <use style="fill:#b22222;stroke:#b22222;stroke-width:1.5;" x="1091.794788" xlink:href="#mbc21c7b3b3" y="230.611478"/>
     <use style="fill:#b22222;stroke:#b22222;stroke-width:1.5;" x="1140.910174" xlink:href="#mbc21c7b3b3" y="195.594286"/>
     <use style="fill:#b22222;stroke:#b22222;stroke-width:1.5;" x="1197.58654" xlink:href="#mbc21c7b3b3" y="152.264104"/>
     <use style="fill:#b22222;stroke:#b22222;stroke-width:1.5;" x="1245.346975" xlink:href="#mbc21c7b3b3" y="97.333833"/>
     <use style="fill:#b22222;stroke:#b22222;stroke-width:1.5;" x="1290.135156" xlink:href="#mbc21c7b3b3" y="79.89371"/>
    </g>
   </g>
   <g id="matplotlib.axis_5">
    <g id="xtick_7">
     <g id="line2d_23">
      <g>
       <use style="stroke:#000000;stroke-width:0.8;" x="837.26961" xlink:href="#m7659ee2c2d" y="422.928"/>
      </g>
     </g>
     <g id="text_26">
      <!-- 0 -->
      <g transform="translate(834.08836 437.526437)scale(0.1 -0.1)">
       <use xlink:href="#DejaVuSans-48"/>
      </g>
     </g>
    </g>
    <g id="xtick_8">
     <g id="line2d_24">
      <g>
       <use style="stroke:#000000;stroke-width:0.8;" x="936.791688" xlink:href="#m7659ee2c2d" y="422.928"/>
      </g>
     </g>
     <g id="text_27">
      <!-- 2 -->
      <g transform="translate(933.610438 437.526437)scale(0.1 -0.1)">
       <use xlink:href="#DejaVuSans-50"/>
      </g>
     </g>
    </g>
    <g id="xtick_9">
     <g id="line2d_25">
      <g>
       <use style="stroke:#000000;stroke-width:0.8;" x="1036.313766" xlink:href="#m7659ee2c2d" y="422.928"/>
      </g>
     </g>
     <g id="text_28">
      <!-- 4 -->
      <g transform="translate(1033.132516 437.526437)scale(0.1 -0.1)">
       <use xlink:href="#DejaVuSans-52"/>
      </g>
     </g>
    </g>
    <g id="xtick_10">
     <g id="line2d_26">
      <g>
       <use style="stroke:#000000;stroke-width:0.8;" x="1135.835844" xlink:href="#m7659ee2c2d" y="422.928"/>
      </g>
     </g>
     <g id="text_29">
      <!-- 6 -->
      <g transform="translate(1132.654594 437.526437)scale(0.1 -0.1)">
       <use xlink:href="#DejaVuSans-54"/>
      </g>
     </g>
    </g>
    <g id="xtick_11">
     <g id="line2d_27">
      <g>
       <use style="stroke:#000000;stroke-width:0.8;" x="1235.357922" xlink:href="#m7659ee2c2d" y="422.928"/>
      </g>
     </g>
     <g id="text_30">
      <!-- 8 -->
      <defs>
       <path d="M 31.78125 34.625 
Q 24.75 34.625 20.71875 30.859375 
Q 16.703125 27.09375 16.703125 20.515625 
Q 16.703125 13.921875 20.71875 10.15625 
Q 24.75 6.390625 31.78125 6.390625 
Q 38.8125 6.390625 42.859375 10.171875 
Q 46.921875 13.96875 46.921875 20.515625 
Q 46.921875 27.09375 42.890625 30.859375 
Q 38.875 34.625 31.78125 34.625 
z
M 21.921875 38.8125 
Q 15.578125 40.375 12.03125 44.71875 
Q 8.5 49.078125 8.5 55.328125 
Q 8.5 64.0625 14.71875 69.140625 
Q 20.953125 74.21875 31.78125 74.21875 
Q 42.671875 74.21875 48.875 69.140625 
Q 55.078125 64.0625 55.078125 55.328125 
Q 55.078125 49.078125 51.53125 44.71875 
Q 48 40.375 41.703125 38.8125 
Q 48.828125 37.15625 52.796875 32.3125 
Q 56.78125 27.484375 56.78125 20.515625 
Q 56.78125 9.90625 50.3125 4.234375 
Q 43.84375 -1.421875 31.78125 -1.421875 
Q 19.734375 -1.421875 13.25 4.234375 
Q 6.78125 9.90625 6.78125 20.515625 
Q 6.78125 27.484375 10.78125 32.3125 
Q 14.796875 37.15625 21.921875 38.8125 
z
M 18.3125 54.390625 
Q 18.3125 48.734375 21.84375 45.5625 
Q 25.390625 42.390625 31.78125 42.390625 
Q 38.140625 42.390625 41.71875 45.5625 
Q 45.3125 48.734375 45.3125 54.390625 
Q 45.3125 60.0625 41.71875 63.234375 
Q 38.140625 66.40625 31.78125 66.40625 
Q 25.390625 66.40625 21.84375 63.234375 
Q 18.3125 60.0625 18.3125 54.390625 
z
" id="DejaVuSans-56"/>
      </defs>
      <g transform="translate(1232.176672 437.526437)scale(0.1 -0.1)">
       <use xlink:href="#DejaVuSans-56"/>
      </g>
     </g>
    </g>
    <g id="xtick_12">
     <g id="line2d_28">
      <g>
       <use style="stroke:#000000;stroke-width:0.8;" x="1334.88" xlink:href="#m7659ee2c2d" y="422.928"/>
      </g>
     </g>
     <g id="text_31">
      <!-- 10 -->
      <g transform="translate(1328.5175 437.526437)scale(0.1 -0.1)">
       <use xlink:href="#DejaVuSans-49"/>
       <use x="63.623047" xlink:href="#DejaVuSans-48"/>
      </g>
     </g>
    </g>
    <g id="text_32">
     <!-- x -->
     <defs>
      <path d="M 54.890625 54.6875 
L 35.109375 28.078125 
L 55.90625 0 
L 45.3125 0 
L 29.390625 21.484375 
L 13.484375 0 
L 2.875 0 
L 24.125 28.609375 
L 4.6875 54.6875 
L 15.28125 54.6875 
L 29.78125 35.203125 
L 44.28125 54.6875 
z
" id="DejaVuSans-120"/>
     </defs>
     <g transform="translate(1070.67517 451.204563)scale(0.1 -0.1)">
      <use xlink:href="#DejaVuSans-120"/>
     </g>
    </g>
   </g>
   <g id="matplotlib.axis_6">
    <g id="ytick_17">
     <g id="line2d_29">
      <g>
       <use style="stroke:#000000;stroke-width:0.8;" x="812.389091" xlink:href="#m1ba8a44bd9" y="407.01913"/>
      </g>
     </g>
     <g id="text_33">
      <!-- 0 -->
      <g transform="translate(799.026591 410.818349)scale(0.1 -0.1)">
       <use xlink:href="#DejaVuSans-48"/>
      </g>
     </g>
    </g>
    <g id="ytick_18">
     <g id="line2d_30">
      <g>
       <use style="stroke:#000000;stroke-width:0.8;" x="812.389091" xlink:href="#m1ba8a44bd9" y="343.383652"/>
      </g>
     </g>
     <g id="text_34">
      <!-- 2 -->
      <g transform="translate(799.026591 347.182871)scale(0.1 -0.1)">
       <use xlink:href="#DejaVuSans-50"/>
      </g>
     </g>
    </g>
    <g id="ytick_19">
     <g id="line2d_31">
      <g>
       <use style="stroke:#000000;stroke-width:0.8;" x="812.389091" xlink:href="#m1ba8a44bd9" y="279.748174"/>
      </g>
     </g>
     <g id="text_35">
      <!-- 4 -->
      <g transform="translate(799.026591 283.547393)scale(0.1 -0.1)">
       <use xlink:href="#DejaVuSans-52"/>
      </g>
     </g>
    </g>
    <g id="ytick_20">
     <g id="line2d_32">
      <g>
       <use style="stroke:#000000;stroke-width:0.8;" x="812.389091" xlink:href="#m1ba8a44bd9" y="216.112696"/>
      </g>
     </g>
     <g id="text_36">
      <!-- 6 -->
      <g transform="translate(799.026591 219.911914)scale(0.1 -0.1)">
       <use xlink:href="#DejaVuSans-54"/>
      </g>
     </g>
    </g>
    <g id="ytick_21">
     <g id="line2d_33">
      <g>
       <use style="stroke:#000000;stroke-width:0.8;" x="812.389091" xlink:href="#m1ba8a44bd9" y="152.477217"/>
      </g>
     </g>
     <g id="text_37">
      <!-- 8 -->
      <g transform="translate(799.026591 156.276436)scale(0.1 -0.1)">
       <use xlink:href="#DejaVuSans-56"/>
      </g>
     </g>
    </g>
    <g id="ytick_22">
     <g id="line2d_34">
      <g>
       <use style="stroke:#000000;stroke-width:0.8;" x="812.389091" xlink:href="#m1ba8a44bd9" y="88.841739"/>
      </g>
     </g>
     <g id="text_38">
      <!-- 10 -->
      <g transform="translate(792.664091 92.640958)scale(0.1 -0.1)">
       <use xlink:href="#DejaVuSans-49"/>
       <use x="63.623047" xlink:href="#DejaVuSans-48"/>
      </g>
     </g>
    </g>
    <g id="text_39">
     <!-- y -->
     <g transform="translate(786.584403 242.935375)rotate(-90)scale(0.1 -0.1)">
      <use xlink:href="#DejaVuSans-121"/>
     </g>
    </g>
   </g>
   <g id="line2d_35">
    <path clip-path="url(#p25add5a16c)" d="M 843.617116 371.2104 
L 889.066475 342.597054 
L 938.374616 311.554352 
L 1000.482678 272.453263 
L 1051.031788 240.62929 
L 1091.794788 214.966314 
L 1140.910174 184.044963 
L 1197.58654 148.363482 
L 1245.346975 118.295162 
L 1290.135156 90.098071 
" style="fill:none;stroke:#008080;stroke-linecap:square;stroke-width:1.5;"/>
    <defs>
     <path d="M 0 3 
C 0.795609 3 1.55874 2.683901 2.12132 2.12132 
C 2.683901 1.55874 3 0.795609 3 0 
C 3 -0.795609 2.683901 -1.55874 2.12132 -2.12132 
C 1.55874 -2.683901 0.795609 -3 0 -3 
C -0.795609 -3 -1.55874 -2.683901 -2.12132 -2.12132 
C -2.683901 -1.55874 -3 -0.795609 -3 0 
C -3 0.795609 -2.683901 1.55874 -2.12132 2.12132 
C -1.55874 2.683901 -0.795609 3 0 3 
z
" id="m112b4300d2" style="stroke:#008080;"/>
    </defs>
    <g clip-path="url(#p25add5a16c)">
     <use style="fill:#008080;stroke:#008080;" x="843.617116" xlink:href="#m112b4300d2" y="371.2104"/>
     <use style="fill:#008080;stroke:#008080;" x="889.066475" xlink:href="#m112b4300d2" y="342.597054"/>
     <use style="fill:#008080;stroke:#008080;" x="938.374616" xlink:href="#m112b4300d2" y="311.554352"/>
     <use style="fill:#008080;stroke:#008080;" x="1000.482678" xlink:href="#m112b4300d2" y="272.453263"/>
     <use style="fill:#008080;stroke:#008080;" x="1051.031788" xlink:href="#m112b4300d2" y="240.62929"/>
     <use style="fill:#008080;stroke:#008080;" x="1091.794788" xlink:href="#m112b4300d2" y="214.966314"/>
     <use style="fill:#008080;stroke:#008080;" x="1140.910174" xlink:href="#m112b4300d2" y="184.044963"/>
     <use style="fill:#008080;stroke:#008080;" x="1197.58654" xlink:href="#m112b4300d2" y="148.363482"/>
     <use style="fill:#008080;stroke:#008080;" x="1245.346975" xlink:href="#m112b4300d2" y="118.295162"/>
     <use style="fill:#008080;stroke:#008080;" x="1290.135156" xlink:href="#m112b4300d2" y="90.098071"/>
    </g>
   </g>
   <g id="patch_10">
    <path d="M 812.389091 422.928 
L 812.389091 57.024 
" style="fill:none;stroke:#000000;stroke-linecap:square;stroke-linejoin:miter;stroke-width:0.8;"/>
   </g>
   <g id="patch_11">
    <path d="M 1334.88 422.928 
L 1334.88 57.024 
" style="fill:none;stroke:#000000;stroke-linecap:square;stroke-linejoin:miter;stroke-width:0.8;"/>
   </g>
   <g id="patch_12">
    <path d="M 812.389091 422.928 
L 1334.88 422.928 
" style="fill:none;stroke:#000000;stroke-linecap:square;stroke-linejoin:miter;stroke-width:0.8;"/>
   </g>
   <g id="patch_13">
    <path d="M 812.389091 57.024 
L 1334.88 57.024 
" style="fill:none;stroke:#000000;stroke-linecap:square;stroke-linejoin:miter;stroke-width:0.8;"/>
   </g>
   <g id="text_40">
    <!-- $\theta_0=1.00, \theta_1=0.98$ -->
    <defs>
     <path d="M 10.59375 45.40625 
L 73.1875 45.40625 
L 73.1875 37.203125 
L 10.59375 37.203125 
z
M 10.59375 25.484375 
L 73.1875 25.484375 
L 73.1875 17.1875 
L 10.59375 17.1875 
z
" id="DejaVuSans-61"/>
     <path d="M 11.71875 12.40625 
L 22.015625 12.40625 
L 22.015625 4 
L 14.015625 -11.625 
L 7.71875 -11.625 
L 11.71875 4 
z
" id="DejaVuSans-44"/>
    </defs>
    <g transform="translate(1016.094545 51.024)scale(0.12 -0.12)">
     <use transform="translate(0 0.234375)" xlink:href="#DejaVuSans-Oblique-952"/>
     <use transform="translate(61.181641 -16.171875)scale(0.7)" xlink:href="#DejaVuSans-48"/>
     <use transform="translate(127.93457 0.234375)" xlink:href="#DejaVuSans-61"/>
     <use transform="translate(231.206055 0.234375)" xlink:href="#DejaVuSans-49"/>
     <use transform="translate(294.829102 0.234375)" xlink:href="#DejaVuSans-46"/>
     <use transform="translate(326.616211 0.234375)" xlink:href="#DejaVuSans-48"/>
     <use transform="translate(390.239258 0.234375)" xlink:href="#DejaVuSans-48"/>
     <use transform="translate(453.862305 0.234375)" xlink:href="#DejaVuSans-44"/>
     <use transform="translate(505.131836 0.234375)" xlink:href="#DejaVuSans-Oblique-952"/>
     <use transform="translate(566.313477 -16.171875)scale(0.7)" xlink:href="#DejaVuSans-49"/>
     <use transform="translate(633.066406 0.234375)" xlink:href="#DejaVuSans-61"/>
     <use transform="translate(736.337891 0.234375)" xlink:href="#DejaVuSans-48"/>
     <use transform="translate(799.960938 0.234375)" xlink:href="#DejaVuSans-46"/>
     <use transform="translate(831.748047 0.234375)" xlink:href="#DejaVuSans-57"/>
     <use transform="translate(895.371094 0.234375)" xlink:href="#DejaVuSans-56"/>
    </g>
   </g>
   <g id="legend_1">
    <g id="patch_14">
     <path d="M 819.389091 94.38025 
L 901.457841 94.38025 
Q 903.457841 94.38025 903.457841 92.38025 
L 903.457841 64.024 
Q 903.457841 62.024 901.457841 62.024 
L 819.389091 62.024 
Q 817.389091 62.024 817.389091 64.024 
L 817.389091 92.38025 
Q 817.389091 94.38025 819.389091 94.38025 
z
" style="fill:#ffffff;opacity:0.8;stroke:#cccccc;stroke-linejoin:miter;"/>
    </g>
    <g id="line2d_36">
     <path d="M 821.389091 70.122437 
L 841.389091 70.122437 
" style="fill:none;stroke:#008080;stroke-linecap:square;stroke-width:1.5;"/>
    </g>
    <g id="line2d_37">
     <g>
      <use style="fill:#008080;stroke:#008080;" x="831.389091" xlink:href="#m112b4300d2" y="70.122437"/>
     </g>
    </g>
    <g id="text_41">
     <!-- Prediction -->
     <defs>
      <path d="M 19.671875 64.796875 
L 19.671875 37.40625 
L 32.078125 37.40625 
Q 38.96875 37.40625 42.71875 40.96875 
Q 46.484375 44.53125 46.484375 51.125 
Q 46.484375 57.671875 42.71875 61.234375 
Q 38.96875 64.796875 32.078125 64.796875 
z
M 9.8125 72.90625 
L 32.078125 72.90625 
Q 44.34375 72.90625 50.609375 67.359375 
Q 56.890625 61.8125 56.890625 51.125 
Q 56.890625 40.328125 50.609375 34.8125 
Q 44.34375 29.296875 32.078125 29.296875 
L 19.671875 29.296875 
L 19.671875 0 
L 9.8125 0 
z
" id="DejaVuSans-80"/>
      <path d="M 45.40625 46.390625 
L 45.40625 75.984375 
L 54.390625 75.984375 
L 54.390625 0 
L 45.40625 0 
L 45.40625 8.203125 
Q 42.578125 3.328125 38.25 0.953125 
Q 33.9375 -1.421875 27.875 -1.421875 
Q 17.96875 -1.421875 11.734375 6.484375 
Q 5.515625 14.40625 5.515625 27.296875 
Q 5.515625 40.1875 11.734375 48.09375 
Q 17.96875 56 27.875 56 
Q 33.9375 56 38.25 53.625 
Q 42.578125 51.265625 45.40625 46.390625 
z
M 14.796875 27.296875 
Q 14.796875 17.390625 18.875 11.75 
Q 22.953125 6.109375 30.078125 6.109375 
Q 37.203125 6.109375 41.296875 11.75 
Q 45.40625 17.390625 45.40625 27.296875 
Q 45.40625 37.203125 41.296875 42.84375 
Q 37.203125 48.484375 30.078125 48.484375 
Q 22.953125 48.484375 18.875 42.84375 
Q 14.796875 37.203125 14.796875 27.296875 
z
" id="DejaVuSans-100"/>
      <path d="M 9.421875 54.6875 
L 18.40625 54.6875 
L 18.40625 0 
L 9.421875 0 
z
M 9.421875 75.984375 
L 18.40625 75.984375 
L 18.40625 64.59375 
L 9.421875 64.59375 
z
" id="DejaVuSans-105"/>
      <path d="M 54.890625 33.015625 
L 54.890625 0 
L 45.90625 0 
L 45.90625 32.71875 
Q 45.90625 40.484375 42.875 44.328125 
Q 39.84375 48.1875 33.796875 48.1875 
Q 26.515625 48.1875 22.3125 43.546875 
Q 18.109375 38.921875 18.109375 30.90625 
L 18.109375 0 
L 9.078125 0 
L 9.078125 54.6875 
L 18.109375 54.6875 
L 18.109375 46.1875 
Q 21.34375 51.125 25.703125 53.5625 
Q 30.078125 56 35.796875 56 
Q 45.21875 56 50.046875 50.171875 
Q 54.890625 44.34375 54.890625 33.015625 
z
" id="DejaVuSans-110"/>
     </defs>
     <g transform="translate(849.389091 73.622437)scale(0.1 -0.1)">
      <use xlink:href="#DejaVuSans-80"/>
      <use x="60.287109" xlink:href="#DejaVuSans-114"/>
      <use x="101.369141" xlink:href="#DejaVuSans-101"/>
      <use x="162.892578" xlink:href="#DejaVuSans-100"/>
      <use x="226.369141" xlink:href="#DejaVuSans-105"/>
      <use x="254.152344" xlink:href="#DejaVuSans-99"/>
      <use x="309.132812" xlink:href="#DejaVuSans-116"/>
      <use x="348.341797" xlink:href="#DejaVuSans-105"/>
      <use x="376.125" xlink:href="#DejaVuSans-111"/>
      <use x="437.306641" xlink:href="#DejaVuSans-110"/>
     </g>
    </g>
    <g id="PathCollection_3">
     <g>
      <use style="fill:#b22222;stroke:#b22222;stroke-width:1.5;" x="831.389091" xlink:href="#mbc21c7b3b3" y="85.675563"/>
     </g>
    </g>
    <g id="text_42">
     <!-- Raw Data -->
     <defs>
      <path d="M 44.390625 34.1875 
Q 47.5625 33.109375 50.5625 29.59375 
Q 53.5625 26.078125 56.59375 19.921875 
L 66.609375 0 
L 56 0 
L 46.6875 18.703125 
Q 43.0625 26.03125 39.671875 28.421875 
Q 36.28125 30.8125 30.421875 30.8125 
L 19.671875 30.8125 
L 19.671875 0 
L 9.8125 0 
L 9.8125 72.90625 
L 32.078125 72.90625 
Q 44.578125 72.90625 50.734375 67.671875 
Q 56.890625 62.453125 56.890625 51.90625 
Q 56.890625 45.015625 53.6875 40.46875 
Q 50.484375 35.9375 44.390625 34.1875 
z
M 19.671875 64.796875 
L 19.671875 38.921875 
L 32.078125 38.921875 
Q 39.203125 38.921875 42.84375 42.21875 
Q 46.484375 45.515625 46.484375 51.90625 
Q 46.484375 58.296875 42.84375 61.546875 
Q 39.203125 64.796875 32.078125 64.796875 
z
" id="DejaVuSans-82"/>
      <path d="M 4.203125 54.6875 
L 13.1875 54.6875 
L 24.421875 12.015625 
L 35.59375 54.6875 
L 46.1875 54.6875 
L 57.421875 12.015625 
L 68.609375 54.6875 
L 77.59375 54.6875 
L 63.28125 0 
L 52.6875 0 
L 40.921875 44.828125 
L 29.109375 0 
L 18.5 0 
z
" id="DejaVuSans-119"/>
      <path d="M 19.671875 64.796875 
L 19.671875 8.109375 
L 31.59375 8.109375 
Q 46.6875 8.109375 53.6875 14.9375 
Q 60.6875 21.78125 60.6875 36.53125 
Q 60.6875 51.171875 53.6875 57.984375 
Q 46.6875 64.796875 31.59375 64.796875 
z
M 9.8125 72.90625 
L 30.078125 72.90625 
Q 51.265625 72.90625 61.171875 64.09375 
Q 71.09375 55.28125 71.09375 36.53125 
Q 71.09375 17.671875 61.125 8.828125 
Q 51.171875 0 30.078125 0 
L 9.8125 0 
z
" id="DejaVuSans-68"/>
     </defs>
     <g transform="translate(849.389091 88.300563)scale(0.1 -0.1)">
      <use xlink:href="#DejaVuSans-82"/>
      <use x="69.451172" xlink:href="#DejaVuSans-97"/>
      <use x="130.730469" xlink:href="#DejaVuSans-119"/>
      <use x="212.517578" xlink:href="#DejaVuSans-32"/>
      <use x="244.304688" xlink:href="#DejaVuSans-68"/>
      <use x="321.306641" xlink:href="#DejaVuSans-97"/>
      <use x="382.585938" xlink:href="#DejaVuSans-116"/>
      <use x="421.794922" xlink:href="#DejaVuSans-97"/>
     </g>
    </g>
   </g>
  </g>
 </g>
 <defs>
  <clipPath id="p580a3bf977">
   <rect height="365.904" width="417.992727" x="185.4" y="57.024"/>
  </clipPath>
  <clipPath id="p5f1e98317c">
   <rect height="365.904" width="18.2952" x="629.517273" y="57.024"/>
  </clipPath>
  <clipPath id="p25add5a16c">
   <rect height="365.904" width="522.490909" x="812.389091" y="57.024"/>
  </clipPath>
 </defs>
</svg>
