<?xml version="1.0" encoding="utf-8" standalone="no"?>
<!DOCTYPE svg PUBLIC "-//W3C//DTD SVG 1.1//EN"
  "http://www.w3.org/Graphics/SVG/1.1/DTD/svg11.dtd">
<!-- Created with matplotlib (https://matplotlib.org/) -->
<svg height="403.2pt" version="1.1" viewBox="0 0 907.2 403.2" width="907.2pt" xmlns="http://www.w3.org/2000/svg" xmlns:xlink="http://www.w3.org/1999/xlink">
 <defs>
  <style type="text/css">
*{stroke-linecap:butt;stroke-linejoin:round;}
  </style>
 </defs>
 <g id="figure_1">
  <g id="patch_1">
   <path d="M 0 403.2 
L 907.2 403.2 
L 907.2 0 
L 0 0 
z
" style="fill:none;"/>
  </g>
  <g id="axes_1">
   <g id="patch_2">
    <path d="M 113.4 358.848 
L 369.065455 358.848 
L 369.065455 48.384 
L 113.4 48.384 
z
" style="fill:none;"/>
   </g>
   <g id="PathCollection_1">
    <defs>
     <path d="M -5 5 
L 5 -5 
M -5 -5 
L 5 5 
" id="m446ae09a6c" style="stroke:#b22222;stroke-width:3;"/>
    </defs>
    <g clip-path="url(#pff79ef90c7)">
     <use style="fill:#b22222;stroke:#b22222;stroke-width:3;" x="138.966545" xlink:href="#m446ae09a6c" y="126"/>
     <use style="fill:#b22222;stroke:#b22222;stroke-width:3;" x="164.941365" xlink:href="#m446ae09a6c" y="113.446393"/>
     <use style="fill:#b22222;stroke:#b22222;stroke-width:3;" x="184.145366" xlink:href="#m446ae09a6c" y="133.54906"/>
     <use style="fill:#b22222;stroke:#b22222;stroke-width:3;" x="198.859144" xlink:href="#m446ae09a6c" y="148.951381"/>
     <use style="fill:#b22222;stroke:#b22222;stroke-width:3;" x="210.132591" xlink:href="#m446ae09a6c" y="160.752378"/>
     <use style="fill:#b22222;stroke:#b22222;stroke-width:3;" x="218.770114" xlink:href="#m446ae09a6c" y="169.7941"/>
     <use style="fill:#b22222;stroke:#b22222;stroke-width:3;" x="225.388037" xlink:href="#m446ae09a6c" y="176.721714"/>
     <use style="fill:#b22222;stroke:#b22222;stroke-width:3;" x="230.458577" xlink:href="#m446ae09a6c" y="182.029534"/>
     <use style="fill:#b22222;stroke:#b22222;stroke-width:3;" x="234.343538" xlink:href="#m446ae09a6c" y="186.096295"/>
     <use style="fill:#b22222;stroke:#b22222;stroke-width:3;" x="237.320129" xlink:href="#m446ae09a6c" y="189.212179"/>
     <use style="fill:#b22222;stroke:#b22222;stroke-width:3;" x="239.600743" xlink:href="#m446ae09a6c" y="191.599515"/>
     <use style="fill:#b22222;stroke:#b22222;stroke-width:3;" x="241.34811" xlink:href="#m446ae09a6c" y="193.428652"/>
     <use style="fill:#b22222;stroke:#b22222;stroke-width:3;" x="242.686913" xlink:href="#m446ae09a6c" y="194.830106"/>
     <use style="fill:#b22222;stroke:#b22222;stroke-width:3;" x="243.712682" xlink:href="#m446ae09a6c" y="195.903875"/>
     <use style="fill:#b22222;stroke:#b22222;stroke-width:3;" x="244.498608" xlink:href="#m446ae09a6c" y="196.726579"/>
     <use style="fill:#b22222;stroke:#b22222;stroke-width:3;" x="245.100771" xlink:href="#m446ae09a6c" y="197.356921"/>
     <use style="fill:#b22222;stroke:#b22222;stroke-width:3;" x="245.562138" xlink:href="#m446ae09a6c" y="197.839879"/>
     <use style="fill:#b22222;stroke:#b22222;stroke-width:3;" x="245.91563" xlink:href="#m446ae09a6c" y="198.209912"/>
     <use style="fill:#b22222;stroke:#b22222;stroke-width:3;" x="246.186469" xlink:href="#m446ae09a6c" y="198.493426"/>
     <use style="fill:#b22222;stroke:#b22222;stroke-width:3;" x="246.393982" xlink:href="#m446ae09a6c" y="198.710649"/>
     <use style="fill:#b22222;stroke:#b22222;stroke-width:3;" x="246.552974" xlink:href="#m446ae09a6c" y="198.877082"/>
     <use style="fill:#b22222;stroke:#b22222;stroke-width:3;" x="246.674791" xlink:href="#m446ae09a6c" y="199.004599"/>
     <use style="fill:#b22222;stroke:#b22222;stroke-width:3;" x="246.768126" xlink:href="#m446ae09a6c" y="199.102301"/>
     <use style="fill:#b22222;stroke:#b22222;stroke-width:3;" x="246.839637" xlink:href="#m446ae09a6c" y="199.177159"/>
     <use style="fill:#b22222;stroke:#b22222;stroke-width:3;" x="246.894428" xlink:href="#m446ae09a6c" y="199.234514"/>
     <use style="fill:#b22222;stroke:#b22222;stroke-width:3;" x="246.936407" xlink:href="#m446ae09a6c" y="199.278458"/>
     <use style="fill:#b22222;stroke:#b22222;stroke-width:3;" x="246.968572" xlink:href="#m446ae09a6c" y="199.312127"/>
     <use style="fill:#b22222;stroke:#b22222;stroke-width:3;" x="246.993215" xlink:href="#m446ae09a6c" y="199.337924"/>
     <use style="fill:#b22222;stroke:#b22222;stroke-width:3;" x="247.012097" xlink:href="#m446ae09a6c" y="199.357689"/>
     <use style="fill:#b22222;stroke:#b22222;stroke-width:3;" x="247.026563" xlink:href="#m446ae09a6c" y="199.372833"/>
     <use style="fill:#b22222;stroke:#b22222;stroke-width:3;" x="247.037648" xlink:href="#m446ae09a6c" y="199.384436"/>
     <use style="fill:#b22222;stroke:#b22222;stroke-width:3;" x="247.04614" xlink:href="#m446ae09a6c" y="199.393325"/>
     <use style="fill:#b22222;stroke:#b22222;stroke-width:3;" x="247.052647" xlink:href="#m446ae09a6c" y="199.400137"/>
     <use style="fill:#b22222;stroke:#b22222;stroke-width:3;" x="247.057632" xlink:href="#m446ae09a6c" y="199.405355"/>
     <use style="fill:#b22222;stroke:#b22222;stroke-width:3;" x="247.061452" xlink:href="#m446ae09a6c" y="199.409354"/>
     <use style="fill:#b22222;stroke:#b22222;stroke-width:3;" x="247.064379" xlink:href="#m446ae09a6c" y="199.412417"/>
     <use style="fill:#b22222;stroke:#b22222;stroke-width:3;" x="247.066621" xlink:href="#m446ae09a6c" y="199.414765"/>
     <use style="fill:#b22222;stroke:#b22222;stroke-width:3;" x="247.068339" xlink:href="#m446ae09a6c" y="199.416563"/>
     <use style="fill:#b22222;stroke:#b22222;stroke-width:3;" x="247.069655" xlink:href="#m446ae09a6c" y="199.417941"/>
     <use style="fill:#b22222;stroke:#b22222;stroke-width:3;" x="247.070664" xlink:href="#m446ae09a6c" y="199.418997"/>
     <use style="fill:#b22222;stroke:#b22222;stroke-width:3;" x="247.071436" xlink:href="#m446ae09a6c" y="199.419806"/>
     <use style="fill:#b22222;stroke:#b22222;stroke-width:3;" x="247.072028" xlink:href="#m446ae09a6c" y="199.420425"/>
     <use style="fill:#b22222;stroke:#b22222;stroke-width:3;" x="247.072482" xlink:href="#m446ae09a6c" y="199.4209"/>
     <use style="fill:#b22222;stroke:#b22222;stroke-width:3;" x="247.07283" xlink:href="#m446ae09a6c" y="199.421264"/>
     <use style="fill:#b22222;stroke:#b22222;stroke-width:3;" x="247.073096" xlink:href="#m446ae09a6c" y="199.421543"/>
     <use style="fill:#b22222;stroke:#b22222;stroke-width:3;" x="247.0733" xlink:href="#m446ae09a6c" y="199.421756"/>
     <use style="fill:#b22222;stroke:#b22222;stroke-width:3;" x="247.073456" xlink:href="#m446ae09a6c" y="199.42192"/>
     <use style="fill:#b22222;stroke:#b22222;stroke-width:3;" x="247.073576" xlink:href="#m446ae09a6c" y="199.422045"/>
     <use style="fill:#b22222;stroke:#b22222;stroke-width:3;" x="247.073668" xlink:href="#m446ae09a6c" y="199.422142"/>
     <use style="fill:#b22222;stroke:#b22222;stroke-width:3;" x="247.073738" xlink:href="#m446ae09a6c" y="199.422215"/>
     <use style="fill:#b22222;stroke:#b22222;stroke-width:3;" x="247.073792" xlink:href="#m446ae09a6c" y="199.422272"/>
     <use style="fill:#b22222;stroke:#b22222;stroke-width:3;" x="247.073833" xlink:href="#m446ae09a6c" y="199.422315"/>
     <use style="fill:#b22222;stroke:#b22222;stroke-width:3;" x="247.073865" xlink:href="#m446ae09a6c" y="199.422348"/>
     <use style="fill:#b22222;stroke:#b22222;stroke-width:3;" x="247.073889" xlink:href="#m446ae09a6c" y="199.422373"/>
     <use style="fill:#b22222;stroke:#b22222;stroke-width:3;" x="247.073908" xlink:href="#m446ae09a6c" y="199.422393"/>
     <use style="fill:#b22222;stroke:#b22222;stroke-width:3;" x="247.073922" xlink:href="#m446ae09a6c" y="199.422408"/>
     <use style="fill:#b22222;stroke:#b22222;stroke-width:3;" x="247.073933" xlink:href="#m446ae09a6c" y="199.422419"/>
     <use style="fill:#b22222;stroke:#b22222;stroke-width:3;" x="247.073941" xlink:href="#m446ae09a6c" y="199.422428"/>
     <use style="fill:#b22222;stroke:#b22222;stroke-width:3;" x="247.073948" xlink:href="#m446ae09a6c" y="199.422434"/>
     <use style="fill:#b22222;stroke:#b22222;stroke-width:3;" x="247.073952" xlink:href="#m446ae09a6c" y="199.422439"/>
     <use style="fill:#b22222;stroke:#b22222;stroke-width:3;" x="247.073956" xlink:href="#m446ae09a6c" y="199.422443"/>
     <use style="fill:#b22222;stroke:#b22222;stroke-width:3;" x="247.073959" xlink:href="#m446ae09a6c" y="199.422446"/>
     <use style="fill:#b22222;stroke:#b22222;stroke-width:3;" x="247.073961" xlink:href="#m446ae09a6c" y="199.422449"/>
     <use style="fill:#b22222;stroke:#b22222;stroke-width:3;" x="247.073963" xlink:href="#m446ae09a6c" y="199.422451"/>
     <use style="fill:#b22222;stroke:#b22222;stroke-width:3;" x="247.073964" xlink:href="#m446ae09a6c" y="199.422452"/>
     <use style="fill:#b22222;stroke:#b22222;stroke-width:3;" x="247.073965" xlink:href="#m446ae09a6c" y="199.422453"/>
     <use style="fill:#b22222;stroke:#b22222;stroke-width:3;" x="247.073966" xlink:href="#m446ae09a6c" y="199.422454"/>
     <use style="fill:#b22222;stroke:#b22222;stroke-width:3;" x="247.073967" xlink:href="#m446ae09a6c" y="199.422454"/>
     <use style="fill:#b22222;stroke:#b22222;stroke-width:3;" x="247.073967" xlink:href="#m446ae09a6c" y="199.422455"/>
     <use style="fill:#b22222;stroke:#b22222;stroke-width:3;" x="247.073967" xlink:href="#m446ae09a6c" y="199.422455"/>
     <use style="fill:#b22222;stroke:#b22222;stroke-width:3;" x="247.073968" xlink:href="#m446ae09a6c" y="199.422455"/>
     <use style="fill:#b22222;stroke:#b22222;stroke-width:3;" x="247.073968" xlink:href="#m446ae09a6c" y="199.422456"/>
     <use style="fill:#b22222;stroke:#b22222;stroke-width:3;" x="247.073968" xlink:href="#m446ae09a6c" y="199.422456"/>
     <use style="fill:#b22222;stroke:#b22222;stroke-width:3;" x="247.073968" xlink:href="#m446ae09a6c" y="199.422456"/>
     <use style="fill:#b22222;stroke:#b22222;stroke-width:3;" x="247.073968" xlink:href="#m446ae09a6c" y="199.422456"/>
     <use style="fill:#b22222;stroke:#b22222;stroke-width:3;" x="247.073968" xlink:href="#m446ae09a6c" y="199.422456"/>
     <use style="fill:#b22222;stroke:#b22222;stroke-width:3;" x="247.073968" xlink:href="#m446ae09a6c" y="199.422456"/>
     <use style="fill:#b22222;stroke:#b22222;stroke-width:3;" x="247.073968" xlink:href="#m446ae09a6c" y="199.422456"/>
     <use style="fill:#b22222;stroke:#b22222;stroke-width:3;" x="247.073968" xlink:href="#m446ae09a6c" y="199.422456"/>
     <use style="fill:#b22222;stroke:#b22222;stroke-width:3;" x="247.073968" xlink:href="#m446ae09a6c" y="199.422456"/>
     <use style="fill:#b22222;stroke:#b22222;stroke-width:3;" x="247.073969" xlink:href="#m446ae09a6c" y="199.422456"/>
     <use style="fill:#b22222;stroke:#b22222;stroke-width:3;" x="247.073969" xlink:href="#m446ae09a6c" y="199.422456"/>
     <use style="fill:#b22222;stroke:#b22222;stroke-width:3;" x="247.073969" xlink:href="#m446ae09a6c" y="199.422456"/>
     <use style="fill:#b22222;stroke:#b22222;stroke-width:3;" x="247.073969" xlink:href="#m446ae09a6c" y="199.422456"/>
     <use style="fill:#b22222;stroke:#b22222;stroke-width:3;" x="247.073969" xlink:href="#m446ae09a6c" y="199.422456"/>
     <use style="fill:#b22222;stroke:#b22222;stroke-width:3;" x="247.073969" xlink:href="#m446ae09a6c" y="199.422456"/>
     <use style="fill:#b22222;stroke:#b22222;stroke-width:3;" x="247.073969" xlink:href="#m446ae09a6c" y="199.422456"/>
     <use style="fill:#b22222;stroke:#b22222;stroke-width:3;" x="247.073969" xlink:href="#m446ae09a6c" y="199.422456"/>
     <use style="fill:#b22222;stroke:#b22222;stroke-width:3;" x="247.073969" xlink:href="#m446ae09a6c" y="199.422456"/>
     <use style="fill:#b22222;stroke:#b22222;stroke-width:3;" x="247.073969" xlink:href="#m446ae09a6c" y="199.422456"/>
     <use style="fill:#b22222;stroke:#b22222;stroke-width:3;" x="247.073969" xlink:href="#m446ae09a6c" y="199.422456"/>
     <use style="fill:#b22222;stroke:#b22222;stroke-width:3;" x="247.073969" xlink:href="#m446ae09a6c" y="199.422456"/>
     <use style="fill:#b22222;stroke:#b22222;stroke-width:3;" x="247.073969" xlink:href="#m446ae09a6c" y="199.422456"/>
     <use style="fill:#b22222;stroke:#b22222;stroke-width:3;" x="247.073969" xlink:href="#m446ae09a6c" y="199.422456"/>
     <use style="fill:#b22222;stroke:#b22222;stroke-width:3;" x="247.073969" xlink:href="#m446ae09a6c" y="199.422456"/>
     <use style="fill:#b22222;stroke:#b22222;stroke-width:3;" x="247.073969" xlink:href="#m446ae09a6c" y="199.422456"/>
     <use style="fill:#b22222;stroke:#b22222;stroke-width:3;" x="247.073969" xlink:href="#m446ae09a6c" y="199.422456"/>
     <use style="fill:#b22222;stroke:#b22222;stroke-width:3;" x="247.073969" xlink:href="#m446ae09a6c" y="199.422456"/>
     <use style="fill:#b22222;stroke:#b22222;stroke-width:3;" x="247.073969" xlink:href="#m446ae09a6c" y="199.422456"/>
     <use style="fill:#b22222;stroke:#b22222;stroke-width:3;" x="247.073969" xlink:href="#m446ae09a6c" y="199.422456"/>
     <use style="fill:#b22222;stroke:#b22222;stroke-width:3;" x="247.073969" xlink:href="#m446ae09a6c" y="199.422456"/>
    </g>
   </g>
   <g id="matplotlib.axis_1">
    <g id="xtick_1">
     <g id="line2d_1">
      <defs>
       <path d="M 0 0 
L 0 3.5 
" id="m276992d867" style="stroke:#000000;stroke-width:0.8;"/>
      </defs>
      <g>
       <use style="stroke:#000000;stroke-width:0.8;" x="136.642314" xlink:href="#m276992d867" y="358.848"/>
      </g>
     </g>
     <g id="text_1">
      <!-- −4 -->
      <defs>
       <path d="M 10.59375 35.5 
L 73.1875 35.5 
L 73.1875 27.203125 
L 10.59375 27.203125 
z
" id="DejaVuSans-8722"/>
       <path d="M 37.796875 64.3125 
L 12.890625 25.390625 
L 37.796875 25.390625 
z
M 35.203125 72.90625 
L 47.609375 72.90625 
L 47.609375 25.390625 
L 58.015625 25.390625 
L 58.015625 17.1875 
L 47.609375 17.1875 
L 47.609375 0 
L 37.796875 0 
L 37.796875 17.1875 
L 4.890625 17.1875 
L 4.890625 26.703125 
z
" id="DejaVuSans-52"/>
      </defs>
      <g transform="translate(129.27122 373.446438)scale(0.1 -0.1)">
       <use xlink:href="#DejaVuSans-8722"/>
       <use x="83.789062" xlink:href="#DejaVuSans-52"/>
      </g>
     </g>
    </g>
    <g id="xtick_2">
     <g id="line2d_2">
      <g>
       <use style="stroke:#000000;stroke-width:0.8;" x="183.126942" xlink:href="#m276992d867" y="358.848"/>
      </g>
     </g>
     <g id="text_2">
      <!-- −2 -->
      <defs>
       <path d="M 19.1875 8.296875 
L 53.609375 8.296875 
L 53.609375 0 
L 7.328125 0 
L 7.328125 8.296875 
Q 12.9375 14.109375 22.625 23.890625 
Q 32.328125 33.6875 34.8125 36.53125 
Q 39.546875 41.84375 41.421875 45.53125 
Q 43.3125 49.21875 43.3125 52.78125 
Q 43.3125 58.59375 39.234375 62.25 
Q 35.15625 65.921875 28.609375 65.921875 
Q 23.96875 65.921875 18.8125 64.3125 
Q 13.671875 62.703125 7.8125 59.421875 
L 7.8125 69.390625 
Q 13.765625 71.78125 18.9375 73 
Q 24.125 74.21875 28.421875 74.21875 
Q 39.75 74.21875 46.484375 68.546875 
Q 53.21875 62.890625 53.21875 53.421875 
Q 53.21875 48.921875 51.53125 44.890625 
Q 49.859375 40.875 45.40625 35.40625 
Q 44.1875 33.984375 37.640625 27.21875 
Q 31.109375 20.453125 19.1875 8.296875 
z
" id="DejaVuSans-50"/>
      </defs>
      <g transform="translate(175.755848 373.446438)scale(0.1 -0.1)">
       <use xlink:href="#DejaVuSans-8722"/>
       <use x="83.789062" xlink:href="#DejaVuSans-50"/>
      </g>
     </g>
    </g>
    <g id="xtick_3">
     <g id="line2d_3">
      <g>
       <use style="stroke:#000000;stroke-width:0.8;" x="229.61157" xlink:href="#m276992d867" y="358.848"/>
      </g>
     </g>
     <g id="text_3">
      <!-- 0 -->
      <defs>
       <path d="M 31.78125 66.40625 
Q 24.171875 66.40625 20.328125 58.90625 
Q 16.5 51.421875 16.5 36.375 
Q 16.5 21.390625 20.328125 13.890625 
Q 24.171875 6.390625 31.78125 6.390625 
Q 39.453125 6.390625 43.28125 13.890625 
Q 47.125 21.390625 47.125 36.375 
Q 47.125 51.421875 43.28125 58.90625 
Q 39.453125 66.40625 31.78125 66.40625 
z
M 31.78125 74.21875 
Q 44.046875 74.21875 50.515625 64.515625 
Q 56.984375 54.828125 56.984375 36.375 
Q 56.984375 17.96875 50.515625 8.265625 
Q 44.046875 -1.421875 31.78125 -1.421875 
Q 19.53125 -1.421875 13.0625 8.265625 
Q 6.59375 17.96875 6.59375 36.375 
Q 6.59375 54.828125 13.0625 64.515625 
Q 19.53125 74.21875 31.78125 74.21875 
z
" id="DejaVuSans-48"/>
      </defs>
      <g transform="translate(226.43032 373.446438)scale(0.1 -0.1)">
       <use xlink:href="#DejaVuSans-48"/>
      </g>
     </g>
    </g>
    <g id="xtick_4">
     <g id="line2d_4">
      <g>
       <use style="stroke:#000000;stroke-width:0.8;" x="276.096198" xlink:href="#m276992d867" y="358.848"/>
      </g>
     </g>
     <g id="text_4">
      <!-- 2 -->
      <g transform="translate(272.914948 373.446438)scale(0.1 -0.1)">
       <use xlink:href="#DejaVuSans-50"/>
      </g>
     </g>
    </g>
    <g id="xtick_5">
     <g id="line2d_5">
      <g>
       <use style="stroke:#000000;stroke-width:0.8;" x="322.580826" xlink:href="#m276992d867" y="358.848"/>
      </g>
     </g>
     <g id="text_5">
      <!-- 4 -->
      <g transform="translate(319.399576 373.446438)scale(0.1 -0.1)">
       <use xlink:href="#DejaVuSans-52"/>
      </g>
     </g>
    </g>
    <g id="xtick_6">
     <g id="line2d_6">
      <g>
       <use style="stroke:#000000;stroke-width:0.8;" x="369.065455" xlink:href="#m276992d867" y="358.848"/>
      </g>
     </g>
     <g id="text_6">
      <!-- 6 -->
      <defs>
       <path d="M 33.015625 40.375 
Q 26.375 40.375 22.484375 35.828125 
Q 18.609375 31.296875 18.609375 23.390625 
Q 18.609375 15.53125 22.484375 10.953125 
Q 26.375 6.390625 33.015625 6.390625 
Q 39.65625 6.390625 43.53125 10.953125 
Q 47.40625 15.53125 47.40625 23.390625 
Q 47.40625 31.296875 43.53125 35.828125 
Q 39.65625 40.375 33.015625 40.375 
z
M 52.59375 71.296875 
L 52.59375 62.3125 
Q 48.875 64.0625 45.09375 64.984375 
Q 41.3125 65.921875 37.59375 65.921875 
Q 27.828125 65.921875 22.671875 59.328125 
Q 17.53125 52.734375 16.796875 39.40625 
Q 19.671875 43.65625 24.015625 45.921875 
Q 28.375 48.1875 33.59375 48.1875 
Q 44.578125 48.1875 50.953125 41.515625 
Q 57.328125 34.859375 57.328125 23.390625 
Q 57.328125 12.15625 50.6875 5.359375 
Q 44.046875 -1.421875 33.015625 -1.421875 
Q 20.359375 -1.421875 13.671875 8.265625 
Q 6.984375 17.96875 6.984375 36.375 
Q 6.984375 53.65625 15.1875 63.9375 
Q 23.390625 74.21875 37.203125 74.21875 
Q 40.921875 74.21875 44.703125 73.484375 
Q 48.484375 72.75 52.59375 71.296875 
z
" id="DejaVuSans-54"/>
      </defs>
      <g transform="translate(365.884205 373.446438)scale(0.1 -0.1)">
       <use xlink:href="#DejaVuSans-54"/>
      </g>
     </g>
    </g>
    <g id="text_7">
     <!-- $\theta_0$ -->
     <defs>
      <path d="M 45.515625 34.671875 
L 14.453125 34.671875 
Q 12.359375 20.0625 14.5 13.875 
Q 17.1875 6.25 24.46875 6.25 
Q 31.78125 6.25 37.359375 13.921875 
Q 42.234375 20.65625 45.515625 34.671875 
z
M 47.015625 42.96875 
Q 48.34375 56.84375 46.625 61.71875 
Q 43.953125 69.4375 36.765625 69.4375 
Q 29.296875 69.4375 23.828125 61.8125 
Q 19.53125 55.671875 16.15625 42.96875 
z
M 38.1875 76.765625 
Q 49.90625 76.765625 54.59375 66.40625 
Q 59.28125 56.109375 55.71875 37.84375 
Q 52.203125 19.625 43.453125 9.28125 
Q 34.765625 -1.125 23.046875 -1.125 
Q 11.28125 -1.125 6.640625 9.28125 
Q 2 19.625 5.515625 37.84375 
Q 9.078125 56.109375 17.71875 66.40625 
Q 26.421875 76.765625 38.1875 76.765625 
z
" id="DejaVuSans-Oblique-952"/>
     </defs>
     <g transform="translate(230.332727 394.723)scale(0.2 -0.2)">
      <use transform="translate(0 0.234375)" xlink:href="#DejaVuSans-Oblique-952"/>
      <use transform="translate(61.181641 -16.171875)scale(0.7)" xlink:href="#DejaVuSans-48"/>
     </g>
    </g>
   </g>
   <g id="matplotlib.axis_2">
    <g id="ytick_1">
     <g id="line2d_7">
      <defs>
       <path d="M 0 0 
L -3.5 0 
" id="m2643767a01" style="stroke:#000000;stroke-width:0.8;"/>
      </defs>
      <g>
       <use style="stroke:#000000;stroke-width:0.8;" x="113.4" xlink:href="#m2643767a01" y="358.848"/>
      </g>
     </g>
     <g id="text_8">
      <!-- 0.00 -->
      <defs>
       <path d="M 10.6875 12.40625 
L 21 12.40625 
L 21 0 
L 10.6875 0 
z
" id="DejaVuSans-46"/>
      </defs>
      <g transform="translate(84.134375 362.647219)scale(0.1 -0.1)">
       <use xlink:href="#DejaVuSans-48"/>
       <use x="63.623047" xlink:href="#DejaVuSans-46"/>
       <use x="95.410156" xlink:href="#DejaVuSans-48"/>
       <use x="159.033203" xlink:href="#DejaVuSans-48"/>
      </g>
     </g>
    </g>
    <g id="ytick_2">
     <g id="line2d_8">
      <g>
       <use style="stroke:#000000;stroke-width:0.8;" x="113.4" xlink:href="#m2643767a01" y="320.04"/>
      </g>
     </g>
     <g id="text_9">
      <!-- 0.25 -->
      <defs>
       <path d="M 10.796875 72.90625 
L 49.515625 72.90625 
L 49.515625 64.59375 
L 19.828125 64.59375 
L 19.828125 46.734375 
Q 21.96875 47.46875 24.109375 47.828125 
Q 26.265625 48.1875 28.421875 48.1875 
Q 40.625 48.1875 47.75 41.5 
Q 54.890625 34.8125 54.890625 23.390625 
Q 54.890625 11.625 47.5625 5.09375 
Q 40.234375 -1.421875 26.90625 -1.421875 
Q 22.3125 -1.421875 17.546875 -0.640625 
Q 12.796875 0.140625 7.71875 1.703125 
L 7.71875 11.625 
Q 12.109375 9.234375 16.796875 8.0625 
Q 21.484375 6.890625 26.703125 6.890625 
Q 35.15625 6.890625 40.078125 11.328125 
Q 45.015625 15.765625 45.015625 23.390625 
Q 45.015625 31 40.078125 35.4375 
Q 35.15625 39.890625 26.703125 39.890625 
Q 22.75 39.890625 18.8125 39.015625 
Q 14.890625 38.140625 10.796875 36.28125 
z
" id="DejaVuSans-53"/>
      </defs>
      <g transform="translate(84.134375 323.839219)scale(0.1 -0.1)">
       <use xlink:href="#DejaVuSans-48"/>
       <use x="63.623047" xlink:href="#DejaVuSans-46"/>
       <use x="95.410156" xlink:href="#DejaVuSans-50"/>
       <use x="159.033203" xlink:href="#DejaVuSans-53"/>
      </g>
     </g>
    </g>
    <g id="ytick_3">
     <g id="line2d_9">
      <g>
       <use style="stroke:#000000;stroke-width:0.8;" x="113.4" xlink:href="#m2643767a01" y="281.232"/>
      </g>
     </g>
     <g id="text_10">
      <!-- 0.50 -->
      <g transform="translate(84.134375 285.031219)scale(0.1 -0.1)">
       <use xlink:href="#DejaVuSans-48"/>
       <use x="63.623047" xlink:href="#DejaVuSans-46"/>
       <use x="95.410156" xlink:href="#DejaVuSans-53"/>
       <use x="159.033203" xlink:href="#DejaVuSans-48"/>
      </g>
     </g>
    </g>
    <g id="ytick_4">
     <g id="line2d_10">
      <g>
       <use style="stroke:#000000;stroke-width:0.8;" x="113.4" xlink:href="#m2643767a01" y="242.424"/>
      </g>
     </g>
     <g id="text_11">
      <!-- 0.75 -->
      <defs>
       <path d="M 8.203125 72.90625 
L 55.078125 72.90625 
L 55.078125 68.703125 
L 28.609375 0 
L 18.3125 0 
L 43.21875 64.59375 
L 8.203125 64.59375 
z
" id="DejaVuSans-55"/>
      </defs>
      <g transform="translate(84.134375 246.223219)scale(0.1 -0.1)">
       <use xlink:href="#DejaVuSans-48"/>
       <use x="63.623047" xlink:href="#DejaVuSans-46"/>
       <use x="95.410156" xlink:href="#DejaVuSans-55"/>
       <use x="159.033203" xlink:href="#DejaVuSans-53"/>
      </g>
     </g>
    </g>
    <g id="ytick_5">
     <g id="line2d_11">
      <g>
       <use style="stroke:#000000;stroke-width:0.8;" x="113.4" xlink:href="#m2643767a01" y="203.616"/>
      </g>
     </g>
     <g id="text_12">
      <!-- 1.00 -->
      <defs>
       <path d="M 12.40625 8.296875 
L 28.515625 8.296875 
L 28.515625 63.921875 
L 10.984375 60.40625 
L 10.984375 69.390625 
L 28.421875 72.90625 
L 38.28125 72.90625 
L 38.28125 8.296875 
L 54.390625 8.296875 
L 54.390625 0 
L 12.40625 0 
z
" id="DejaVuSans-49"/>
      </defs>
      <g transform="translate(84.134375 207.415219)scale(0.1 -0.1)">
       <use xlink:href="#DejaVuSans-49"/>
       <use x="63.623047" xlink:href="#DejaVuSans-46"/>
       <use x="95.410156" xlink:href="#DejaVuSans-48"/>
       <use x="159.033203" xlink:href="#DejaVuSans-48"/>
      </g>
     </g>
    </g>
    <g id="ytick_6">
     <g id="line2d_12">
      <g>
       <use style="stroke:#000000;stroke-width:0.8;" x="113.4" xlink:href="#m2643767a01" y="164.808"/>
      </g>
     </g>
     <g id="text_13">
      <!-- 1.25 -->
      <g transform="translate(84.134375 168.607219)scale(0.1 -0.1)">
       <use xlink:href="#DejaVuSans-49"/>
       <use x="63.623047" xlink:href="#DejaVuSans-46"/>
       <use x="95.410156" xlink:href="#DejaVuSans-50"/>
       <use x="159.033203" xlink:href="#DejaVuSans-53"/>
      </g>
     </g>
    </g>
    <g id="ytick_7">
     <g id="line2d_13">
      <g>
       <use style="stroke:#000000;stroke-width:0.8;" x="113.4" xlink:href="#m2643767a01" y="126"/>
      </g>
     </g>
     <g id="text_14">
      <!-- 1.50 -->
      <g transform="translate(84.134375 129.799219)scale(0.1 -0.1)">
       <use xlink:href="#DejaVuSans-49"/>
       <use x="63.623047" xlink:href="#DejaVuSans-46"/>
       <use x="95.410156" xlink:href="#DejaVuSans-53"/>
       <use x="159.033203" xlink:href="#DejaVuSans-48"/>
      </g>
     </g>
    </g>
    <g id="ytick_8">
     <g id="line2d_14">
      <g>
       <use style="stroke:#000000;stroke-width:0.8;" x="113.4" xlink:href="#m2643767a01" y="87.192"/>
      </g>
     </g>
     <g id="text_15">
      <!-- 1.75 -->
      <g transform="translate(84.134375 90.991219)scale(0.1 -0.1)">
       <use xlink:href="#DejaVuSans-49"/>
       <use x="63.623047" xlink:href="#DejaVuSans-46"/>
       <use x="95.410156" xlink:href="#DejaVuSans-55"/>
       <use x="159.033203" xlink:href="#DejaVuSans-53"/>
      </g>
     </g>
    </g>
    <g id="ytick_9">
     <g id="line2d_15">
      <g>
       <use style="stroke:#000000;stroke-width:0.8;" x="113.4" xlink:href="#m2643767a01" y="48.384"/>
      </g>
     </g>
     <g id="text_16">
      <!-- 2.00 -->
      <g transform="translate(84.134375 52.183219)scale(0.1 -0.1)">
       <use xlink:href="#DejaVuSans-50"/>
       <use x="63.623047" xlink:href="#DejaVuSans-46"/>
       <use x="95.410156" xlink:href="#DejaVuSans-48"/>
       <use x="159.033203" xlink:href="#DejaVuSans-48"/>
      </g>
     </g>
    </g>
    <g id="text_17">
     <!-- $\theta_1$ -->
     <g transform="translate(75.975 214.516)rotate(-90)scale(0.2 -0.2)">
      <use transform="translate(0 0.234375)" xlink:href="#DejaVuSans-Oblique-952"/>
      <use transform="translate(61.181641 -16.171875)scale(0.7)" xlink:href="#DejaVuSans-49"/>
     </g>
    </g>
   </g>
   <g id="LineCollection_1"/>
   <g id="LineCollection_2">
    <path clip-path="url(#pff79ef90c7)" d="M 235.754293 188.0928 
L 236.351841 190.512963 
L 236.816688 191.759323 
L 237.987033 194.30208 
L 241.46515 199.813479 
L 243.116422 202.06368 
L 247.740575 207.264056 
L 250.529653 209.862074 
L 253.551154 212.004286 
L 255.410539 212.950617 
L 256.572655 213.171343 
L 257.269924 213.113831 
L 257.746775 212.92992 
L 257.967193 212.631946 
L 258.199617 212.126158 
L 258.409803 211.3776 
L 258.199617 209.656655 
L 257.269924 206.885165 
L 257.037501 206.381389 
L 255.410539 203.236253 
L 253.086307 199.603294 
L 251.459345 197.33957 
L 247.043306 192.227478 
L 244.254228 189.533801 
L 241.232727 187.238294 
L 239.605765 186.285492 
L 238.211226 185.801704 
L 237.281534 185.713856 
L 236.584264 185.910394 
L 236.119418 186.284707 
L 235.886995 186.770235 
L 235.754293 188.0928 
L 235.754293 188.0928 
" style="fill:none;stroke:#440154;stroke-width:1.5;"/>
   </g>
   <g id="LineCollection_3">
    <path clip-path="url(#pff79ef90c7)" d="M 223.620869 175.67424 
L 224.033415 178.265374 
L 224.265838 179.207858 
L 225.195531 182.093705 
L 226.822493 185.906024 
L 227.984608 188.273533 
L 231.006109 193.587404 
L 233.097917 196.872052 
L 234.957302 199.591882 
L 237.978803 203.719166 
L 243.092112 209.971303 
L 248.205421 215.463516 
L 250.762076 217.952485 
L 254.713269 221.419229 
L 257.784733 223.79616 
L 260.988694 225.840165 
L 263.312926 227.024016 
L 265.172311 227.658606 
L 266.56685 227.91656 
L 267.728965 227.892952 
L 268.658658 227.621503 
L 269.355927 227.187571 
L 269.820774 226.655659 
L 270.384362 225.34848 
L 270.518043 223.434927 
L 270.28562 221.432732 
L 270.053197 220.302525 
L 269.262891 217.58688 
L 267.264119 212.783967 
L 264.707464 207.904183 
L 261.918387 203.297164 
L 258.199617 197.862314 
L 256.107808 195.06228 
L 253.038528 191.19744 
L 247.508152 184.973011 
L 242.394843 179.977955 
L 238.676073 176.809422 
L 235.189726 174.246987 
L 233.562764 173.241525 
L 231.470955 172.121912 
L 229.379147 171.289006 
L 227.984608 170.950115 
L 226.822493 170.88811 
L 225.8928 171.024911 
L 225.195531 171.363446 
L 224.498261 171.989525 
L 224.033415 172.706528 
L 223.65623 174.12192 
L 223.620869 175.67424 
L 223.620869 175.67424 
" style="fill:none;stroke:#440256;stroke-width:1.5;"/>
   </g>
   <g id="LineCollection_4">
    <path clip-path="url(#pff79ef90c7)" d="M 211.884948 164.808 
L 212.449591 167.91264 
L 213.574374 171.721334 
L 214.504066 174.285464 
L 216.595874 179.10987 
L 219.152529 184.160659 
L 221.47676 188.303504 
L 225.427954 194.668955 
L 229.61157 200.785729 
L 234.492456 207.307178 
L 238.908496 212.760882 
L 241.722615 216.03456 
L 247.972998 222.759609 
L 252.621461 227.312879 
L 257.37423 231.55776 
L 262.15081 235.328491 
L 265.649958 237.76704 
L 269.123504 239.801505 
L 271.912582 241.123955 
L 274.236813 241.917622 
L 276.096198 242.304965 
L 277.490737 242.372676 
L 278.652853 242.212569 
L 279.582545 241.882409 
L 280.512238 241.297855 
L 280.982722 240.87168 
L 281.674354 239.759074 
L 281.906777 239.245732 
L 282.272302 237.76704 
L 282.371623 235.806355 
L 282.326782 234.6624 
L 281.840778 231.55776 
L 280.744661 227.637674 
L 279.814969 225.012069 
L 277.955583 220.592008 
L 274.934083 214.55241 
L 273.539544 212.054811 
L 271.215312 208.111014 
L 266.799273 201.304944 
L 263.545349 196.692295 
L 259.826579 191.756764 
L 256.572655 187.691352 
L 251.459345 181.727446 
L 245.648767 175.542614 
L 240.070612 170.19148 
L 236.584264 167.141251 
L 233.097917 164.340845 
L 229.379147 161.658883 
L 225.660377 159.390152 
L 223.103722 158.100355 
L 220.547068 157.098809 
L 218.920106 156.689368 
L 217.293144 156.493407 
L 215.898605 156.5652 
L 214.736489 156.87053 
L 214.03922 157.234495 
L 213.34195 157.828584 
L 212.644681 158.724564 
L 212.065035 160.15104 
L 211.802884 161.70336 
L 211.76604 163.25568 
L 211.884948 164.808 
L 211.884948 164.808 
" style="fill:none;stroke:#450457;stroke-width:1.5;"/>
   </g>
   <g id="LineCollection_5">
    <path clip-path="url(#pff79ef90c7)" d="M 198.143576 149.2848 
L 198.433155 152.38944 
L 199.164139 156.015726 
L 200.093831 159.350894 
L 201.023524 162.14027 
L 202.650486 166.369655 
L 205.445073 172.5696 
L 209.158334 179.716512 
L 211.714988 184.205952 
L 215.019228 189.64512 
L 220.547068 198.002273 
L 224.963107 204.193339 
L 229.61157 210.324263 
L 234.957302 216.9481 
L 239.373342 222.117086 
L 242.859689 225.999501 
L 248.10329 231.55776 
L 254.713269 238.03667 
L 260.291425 243.046494 
L 264.939888 246.884809 
L 267.961388 249.186853 
L 272.145005 252.114395 
L 276.096198 254.548524 
L 278.652853 255.916807 
L 281.209507 257.094726 
L 283.766162 258.052684 
L 286.090393 258.647998 
L 287.949779 258.9059 
L 289.57674 258.909208 
L 290.971279 258.686051 
L 292.133395 258.285611 
L 293.063088 257.755328 
L 293.99278 256.913242 
L 294.69005 255.975253 
L 295.264279 254.84256 
L 295.721855 253.29024 
L 295.949141 251.73792 
L 296.014488 250.1856 
L 295.80115 247.08096 
L 295.154896 243.550859 
L 294.457626 240.814786 
L 292.955872 236.21472 
L 290.506433 230.1717 
L 289.003548 226.9008 
L 285.393124 219.866098 
L 282.836469 215.328671 
L 279.521119 209.82528 
L 274.00439 201.428673 
L 269.820774 195.516906 
L 264.2084 188.0928 
L 257.269924 179.618537 
L 252.389038 174.048208 
L 245.648767 166.891121 
L 241.46515 162.741845 
L 236.351841 157.987499 
L 231.470955 153.784157 
L 226.357646 149.784072 
L 222.871299 147.310787 
L 218.920106 144.797759 
L 216.363451 143.371036 
L 213.806797 142.126666 
L 211.250142 141.09264 
L 208.925911 140.387454 
L 206.834102 139.984779 
L 205.20714 139.893908 
L 203.812602 140.008294 
L 202.650486 140.30631 
L 201.48837 140.843128 
L 200.531921 141.5232 
L 199.628985 142.60461 
L 199.164139 143.399468 
L 198.66476 144.62784 
L 198.31153 146.18016 
L 198.155593 147.73248 
L 198.143576 149.2848 
L 198.143576 149.2848 
" style="fill:none;stroke:#46075a;stroke-width:1.5;"/>
   </g>
   <g id="LineCollection_6">
    <path clip-path="url(#pff79ef90c7)" d="M 181.682529 133.7616 
L 182.050187 136.86624 
L 182.894519 141.054146 
L 183.591788 143.724684 
L 184.823063 147.73248 
L 187.12214 153.94176 
L 190.099636 160.7884 
L 192.794194 166.36032 
L 197.072331 174.382985 
L 201.48837 181.970645 
L 207.066526 190.820547 
L 210.552873 196.036237 
L 216.828298 204.912677 
L 220.547068 209.910506 
L 227.783224 219.1392 
L 235.654572 228.513225 
L 243.324536 237.034016 
L 248.670268 242.640151 
L 255.410539 249.303931 
L 260.988694 254.482258 
L 265.404734 258.350888 
L 270.982889 262.931011 
L 276.328621 266.968292 
L 280.047392 269.547424 
L 284.231008 272.205253 
L 288.414625 274.551891 
L 291.436126 276.0241 
L 294.225203 277.185659 
L 297.014281 278.130911 
L 299.570936 278.731699 
L 301.662744 279.012099 
L 303.522129 279.050293 
L 305.149091 278.871714 
L 306.54363 278.516301 
L 307.705745 278.031049 
L 308.867861 277.272718 
L 309.797554 276.434644 
L 310.849773 275.02272 
L 311.592476 273.4704 
L 312.121785 271.660156 
L 312.361585 270.36576 
L 312.555916 267.26112 
L 312.354208 263.936013 
L 311.889362 260.782679 
L 311.192093 257.534216 
L 310.025173 253.29024 
L 308.170592 247.873992 
L 306.54363 243.731488 
L 303.920286 237.76704 
L 300.035782 229.924772 
L 295.619742 221.896155 
L 291.197538 214.48224 
L 285.160701 205.119746 
L 278.652853 195.766143 
L 271.680159 186.424792 
L 264.336069 177.22656 
L 256.572655 168.144112 
L 252.156615 163.244381 
L 244.486651 155.197639 
L 237.978803 148.817569 
L 231.935802 143.267947 
L 227.984608 139.846967 
L 221.941607 134.958602 
L 216.828298 131.171586 
L 212.877104 128.492 
L 208.693488 125.91533 
L 204.509871 123.673517 
L 201.255947 122.189265 
L 198.234446 121.059487 
L 195.445369 120.290076 
L 193.121137 119.884557 
L 191.261752 119.769254 
L 189.63479 119.864067 
L 188.240251 120.136258 
L 186.845712 120.632417 
L 185.562594 121.34304 
L 184.521481 122.246836 
L 183.824212 123.042562 
L 182.894519 124.592202 
L 182.19725 126.514993 
L 181.941505 127.55232 
L 181.710161 129.10464 
L 181.601788 132.20928 
L 181.682529 133.7616 
L 181.682529 133.7616 
" style="fill:none;stroke:#460b5e;stroke-width:1.5;"/>
   </g>
   <g id="LineCollection_7">
    <path clip-path="url(#pff79ef90c7)" d="M 161.003354 110.4768 
L 161.158791 113.58144 
L 161.526022 116.68608 
L 162.391911 121.34304 
L 163.603398 126.145236 
L 165.23036 131.406935 
L 166.857322 135.991543 
L 168.949131 141.29373 
L 170.808516 145.616078 
L 173.208266 150.83712 
L 177.548787 159.494829 
L 180.802711 165.526683 
L 184.819847 172.5696 
L 190.796906 182.376314 
L 196.142638 190.628029 
L 200.791101 197.477531 
L 208.228641 207.882116 
L 213.173678 214.48224 
L 221.47676 225.038351 
L 226.357646 230.966987 
L 232.168225 237.781771 
L 240.767881 247.380058 
L 248.437845 255.476229 
L 255.178116 262.235057 
L 260.523848 267.355742 
L 268.193812 274.310034 
L 273.771967 279.073072 
L 279.117699 283.386533 
L 284.695855 287.608889 
L 290.506433 291.664015 
L 294.69005 294.346968 
L 299.106089 296.940562 
L 303.522129 299.240681 
L 307.008476 300.825267 
L 310.2624 302.084741 
L 313.516324 303.09936 
L 316.305402 303.717012 
L 318.862056 304.049525 
L 320.953864 304.10896 
L 322.81325 303.958991 
L 324.440212 303.633511 
L 326.067174 303.0837 
L 327.229289 302.488985 
L 328.623828 301.513499 
L 329.553521 300.606133 
L 330.483213 299.436798 
L 331.412906 297.818925 
L 332.110175 296.072912 
L 332.575021 294.374817 
L 332.963513 292.09824 
L 333.14529 288.9936 
L 333.039322 285.88896 
L 332.575021 281.894214 
L 332.110175 279.226657 
L 331.167514 275.02272 
L 329.785944 270.129338 
L 327.926559 264.582061 
L 326.299597 260.27716 
L 324.207788 255.210807 
L 322.11598 250.523734 
L 319.740724 245.52864 
L 315.375709 237.042313 
L 311.656939 230.308787 
L 308.403015 224.717101 
L 303.754552 217.10999 
L 298.40882 208.824717 
L 293.760357 201.951094 
L 286.55524 191.830284 
L 281.209507 184.674734 
L 274.00439 175.460164 
L 266.334426 166.144027 
L 258.43204 157.034363 
L 249.832383 147.662639 
L 241.697574 139.305396 
L 235.189726 132.969984 
L 229.146724 127.371862 
L 221.941607 121.080121 
L 215.433759 115.775143 
L 210.32045 111.872709 
L 204.277448 107.60513 
L 200.326255 105.03757 
L 195.910215 102.393961 
L 191.494175 100.031324 
L 188.007828 98.391013 
L 184.753904 97.073221 
L 181.732403 96.060142 
L 178.710902 95.292389 
L 176.154248 94.872487 
L 173.830017 94.727951 
L 171.738208 94.828236 
L 170.111246 95.103543 
L 168.484284 95.606413 
L 167.089745 96.253278 
L 165.92763 97.019272 
L 164.745742 98.05824 
L 163.603398 99.487177 
L 162.906129 100.68211 
L 162.20886 102.27452 
L 161.744013 103.760824 
L 161.309093 105.81984 
L 161.046744 108.524124 
L 161.003354 110.4768 
L 161.003354 110.4768 
" style="fill:none;stroke:#471365;stroke-width:1.5;"/>
   </g>
   <g id="LineCollection_8">
    <path clip-path="url(#pff79ef90c7)" d="M 135.196148 87.192 
L 135.73353 91.84896 
L 136.642314 96.844325 
L 137.80443 101.758744 
L 139.198969 106.701454 
L 140.593507 111.06493 
L 142.685316 116.948103 
L 145.474393 123.988555 
L 147.798625 129.392036 
L 151.517395 137.413996 
L 155.236165 144.882455 
L 160.117051 154.058295 
L 165.695207 163.879455 
L 170.908066 172.5696 
L 178.013633 183.783602 
L 184.753904 193.877354 
L 189.867213 201.230246 
L 196.375061 210.255571 
L 203.812602 220.155027 
L 210.088026 228.196884 
L 215.898605 235.402303 
L 223.103722 244.043953 
L 232.505455 254.84256 
L 241.929997 265.146242 
L 248.670268 272.208811 
L 257.037501 280.614198 
L 263.777772 287.095554 
L 269.820774 292.677962 
L 277.025891 299.045805 
L 283.766162 304.707842 
L 291.203702 310.597773 
L 296.317012 314.411374 
L 302.360013 318.659187 
L 308.403015 322.586454 
L 313.283901 325.503764 
L 317.932364 328.045815 
L 322.580826 330.318754 
L 326.53202 332.015624 
L 330.018367 333.301959 
L 333.504714 334.363664 
L 336.758638 335.1106 
L 339.547716 335.536325 
L 342.10437 335.70445 
L 344.428602 335.644042 
L 346.52041 335.370854 
L 348.379795 334.911765 
L 350.23918 334.209527 
L 351.633719 333.459967 
L 353.063075 332.45856 
L 354.422797 331.169175 
L 355.352489 330.035277 
L 356.282182 328.612515 
L 357.211874 326.737241 
L 357.909144 324.825616 
L 358.37399 323.070491 
L 358.880288 320.04 
L 359.097828 316.93536 
L 359.07126 313.670264 
L 358.838836 310.421695 
L 358.269869 306.06912 
L 357.383217 301.41216 
L 356.049759 295.980266 
L 354.65522 291.185334 
L 353.028258 286.234743 
L 351.214282 281.232 
L 347.914949 273.053514 
L 344.654345 265.7088 
L 340.151382 256.39488 
L 334.899253 246.37973 
L 330.483213 238.471914 
L 326.067174 230.937652 
L 320.721441 222.224521 
L 313.516324 211.082249 
L 306.311207 200.500834 
L 297.943974 188.823037 
L 291.436126 180.126929 
L 283.068893 169.401266 
L 274.00439 158.312656 
L 265.404734 148.26425 
L 258.896886 140.950687 
L 250.994499 132.395701 
L 244.860529 126 
L 235.654572 116.805921 
L 229.843993 111.255926 
L 222.871299 104.854511 
L 216.595874 99.344847 
L 209.158334 93.142532 
L 201.953217 87.493627 
L 196.839907 83.716071 
L 190.564483 79.362428 
L 184.521481 75.504871 
L 179.640595 72.648642 
L 174.759709 70.054306 
L 170.111246 67.874302 
L 166.160053 66.267248 
L 162.441283 64.998075 
L 158.954936 64.059087 
L 156.165858 63.522064 
L 153.37678 63.206103 
L 150.820126 63.149986 
L 148.495894 63.338148 
L 146.404086 63.746504 
L 144.777124 64.271993 
L 143.150162 65.018212 
L 141.755623 65.884923 
L 140.361084 67.022599 
L 138.966545 68.567339 
L 137.80443 70.329717 
L 136.874737 72.256469 
L 136.177468 74.240297 
L 135.655248 76.32576 
L 135.202054 79.4304 
L 135.036474 82.53504 
L 135.095884 85.63968 
L 135.196148 87.192 
L 135.196148 87.192 
" style="fill:none;stroke:#481d6f;stroke-width:1.5;"/>
   </g>
   <g id="LineCollection_9">
    <path clip-path="url(#pff79ef90c7)" d="M 113.4 96.460197 
L 115.724231 102.186229 
L 118.628838 108.92448 
L 123.161772 118.710933 
L 127.577812 127.628299 
L 133.261494 138.41856 
L 139.663815 149.856598 
L 145.474393 159.723258 
L 150.587702 168.067203 
L 158.257666 180.072102 
L 163.835821 188.469596 
L 171.738208 199.946348 
L 178.246056 209.066056 
L 185.683597 219.160108 
L 195.445369 231.910447 
L 204.509871 243.291658 
L 212.412258 252.878012 
L 219.617375 261.357553 
L 229.146724 272.203937 
L 238.908496 282.893606 
L 249.143497 293.65056 
L 259.361732 303.927799 
L 267.031696 311.340852 
L 275.398929 319.125097 
L 283.533739 326.383641 
L 292.499296 334.01088 
L 300.965474 340.831853 
L 308.298268 346.42944 
L 315.840555 351.849584 
L 322.11598 356.086291 
L 326.439152 358.848 
L 326.439152 358.848 
" style="fill:none;stroke:#472f7d;stroke-width:1.5;"/>
    <path clip-path="url(#pff79ef90c7)" d="M 369.065455 276.19077 
L 364.416992 267.050449 
L 358.838836 256.696496 
L 354.65522 249.285997 
L 349.541911 240.567672 
L 342.80164 229.566425 
L 335.828945 218.680182 
L 328.623828 207.883665 
L 320.721441 196.505342 
L 313.748747 186.821025 
L 307.473322 178.368084 
L 298.873666 167.154491 
L 290.849221 157.0464 
L 280.512238 144.508221 
L 270.28562 132.605193 
L 262.848079 124.246554 
L 252.853884 113.403713 
L 242.859689 103.000501 
L 235.886995 96.002285 
L 227.054916 87.444489 
L 220.082221 80.935819 
L 210.785296 72.612802 
L 202.882909 65.86262 
L 196.142638 60.355453 
L 188.472674 54.383074 
L 180.802711 48.749887 
L 180.29086 48.384 
L 180.29086 48.384 
" style="fill:none;stroke:#472f7d;stroke-width:1.5;"/>
   </g>
   <g id="LineCollection_10">
    <path clip-path="url(#pff79ef90c7)" d="M 113.4 143.880893 
L 119.675425 154.274123 
L 127.577812 166.879677 
L 135.480198 179.020702 
L 144.544701 192.442483 
L 151.517395 202.439309 
L 160.814321 215.367132 
L 168.949131 226.333718 
L 177.08394 237.00036 
L 186.148443 248.557239 
L 193.818407 258.07542 
L 204.974717 271.516772 
L 213.34195 281.29932 
L 224.730684 294.21017 
L 234.724879 305.170571 
L 244.486651 315.548139 
L 255.410539 326.774418 
L 265.404734 336.690798 
L 273.927253 344.87712 
L 284.463431 354.640929 
L 289.137609 358.848 
L 289.137609 358.848 
" style="fill:none;stroke:#3e4989;stroke-width:1.5;"/>
    <path clip-path="url(#pff79ef90c7)" d="M 369.065455 235.891657 
L 360.930645 223.257637 
L 352.795835 211.072475 
L 343.731332 197.96663 
L 336.061369 187.225831 
L 327.926559 176.15385 
L 320.024172 165.692589 
L 310.727246 153.73001 
L 300.035782 140.410856 
L 291.668549 130.294325 
L 281.209507 118.012366 
L 270.28562 105.602214 
L 259.129309 93.355188 
L 247.508152 81.051195 
L 239.373342 72.712969 
L 229.379147 62.774883 
L 220.881411 54.59328 
L 214.248723 48.384 
L 214.248723 48.384 
" style="fill:none;stroke:#3e4989;stroke-width:1.5;"/>
   </g>
   <g id="LineCollection_11">
    <path clip-path="url(#pff79ef90c7)" d="M 113.4 188.049216 
L 121.069964 199.121804 
L 132.006238 214.48224 
L 143.847431 230.587228 
L 154.306473 244.396256 
L 165.462783 258.721117 
L 175.921825 271.794297 
L 184.986327 282.855359 
L 197.7696 298.046756 
L 207.298949 309.072735 
L 216.828298 319.848221 
L 226.357646 330.378047 
L 236.584264 341.41052 
L 246.346036 351.682811 
L 253.298597 358.848 
L 253.298597 358.848 
" style="fill:none;stroke:#2d708e;stroke-width:1.5;"/>
    <path clip-path="url(#pff79ef90c7)" d="M 369.065455 194.031507 
L 358.37399 179.182471 
L 349.541911 167.243399 
L 339.315293 153.763032 
L 327.337623 138.41856 
L 314.67844 122.692864 
L 302.360013 107.84944 
L 292.365818 96.125337 
L 280.473577 82.53504 
L 267.496542 68.145888 
L 255.642962 55.393838 
L 248.977379 48.384 
L 248.977379 48.384 
" style="fill:none;stroke:#2d708e;stroke-width:1.5;"/>
   </g>
   <g id="LineCollection_12">
    <path clip-path="url(#pff79ef90c7)" d="M 113.4 238.312704 
L 125.25358 254.016345 
L 136.874737 269.053248 
L 150.208225 285.88896 
L 164.300668 303.219534 
L 177.78121 319.371839 
L 189.63479 333.242578 
L 201.953217 347.335934 
L 212.229107 358.848 
L 212.229107 358.848 
" style="fill:none;stroke:#24aa83;stroke-width:1.5;"/>
    <path clip-path="url(#pff79ef90c7)" d="M 369.065455 145.052222 
L 358.606413 131.499914 
L 346.752833 116.472492 
L 333.272291 99.794858 
L 322.580826 86.867841 
L 309.100284 70.933722 
L 296.781858 56.719151 
L 289.425759 48.384 
L 289.425759 48.384 
" style="fill:none;stroke:#24aa83;stroke-width:1.5;"/>
   </g>
   <g id="LineCollection_13">
    <path clip-path="url(#pff79ef90c7)" d="M 113.4 299.065546 
L 126.880542 315.929538 
L 141.058354 333.30513 
L 154.571331 349.53408 
L 162.449039 358.848 
L 162.449039 358.848 
" style="fill:none;stroke:#fde725;stroke-width:1.5;"/>
    <path clip-path="url(#pff79ef90c7)" d="M 369.065455 85.145088 
L 354.65522 67.440546 
L 341.871947 52.045898 
L 338.796715 48.384 
L 338.796715 48.384 
" style="fill:none;stroke:#fde725;stroke-width:1.5;"/>
   </g>
   <g id="patch_3">
    <path d="M 113.4 358.848 
L 113.4 48.384 
" style="fill:none;stroke:#000000;stroke-linecap:square;stroke-linejoin:miter;stroke-width:0.8;"/>
   </g>
   <g id="patch_4">
    <path d="M 369.065455 358.848 
L 369.065455 48.384 
" style="fill:none;stroke:#000000;stroke-linecap:square;stroke-linejoin:miter;stroke-width:0.8;"/>
   </g>
   <g id="patch_5">
    <path d="M 113.4 358.848 
L 369.065455 358.848 
" style="fill:none;stroke:#000000;stroke-linecap:square;stroke-linejoin:miter;stroke-width:0.8;"/>
   </g>
   <g id="patch_6">
    <path d="M 113.4 48.384 
L 369.065455 48.384 
" style="fill:none;stroke:#000000;stroke-linecap:square;stroke-linejoin:miter;stroke-width:0.8;"/>
   </g>
   <g id="text_18">
    <!-- Trajectory of $\vec\theta$ -->
    <defs>
     <path d="M -0.296875 72.90625 
L 61.375 72.90625 
L 61.375 64.59375 
L 35.5 64.59375 
L 35.5 0 
L 25.59375 0 
L 25.59375 64.59375 
L -0.296875 64.59375 
z
" id="DejaVuSans-84"/>
     <path d="M 41.109375 46.296875 
Q 39.59375 47.171875 37.8125 47.578125 
Q 36.03125 48 33.890625 48 
Q 26.265625 48 22.1875 43.046875 
Q 18.109375 38.09375 18.109375 28.8125 
L 18.109375 0 
L 9.078125 0 
L 9.078125 54.6875 
L 18.109375 54.6875 
L 18.109375 46.1875 
Q 20.953125 51.171875 25.484375 53.578125 
Q 30.03125 56 36.53125 56 
Q 37.453125 56 38.578125 55.875 
Q 39.703125 55.765625 41.0625 55.515625 
z
" id="DejaVuSans-114"/>
     <path d="M 34.28125 27.484375 
Q 23.390625 27.484375 19.1875 25 
Q 14.984375 22.515625 14.984375 16.5 
Q 14.984375 11.71875 18.140625 8.90625 
Q 21.296875 6.109375 26.703125 6.109375 
Q 34.1875 6.109375 38.703125 11.40625 
Q 43.21875 16.703125 43.21875 25.484375 
L 43.21875 27.484375 
z
M 52.203125 31.203125 
L 52.203125 0 
L 43.21875 0 
L 43.21875 8.296875 
Q 40.140625 3.328125 35.546875 0.953125 
Q 30.953125 -1.421875 24.3125 -1.421875 
Q 15.921875 -1.421875 10.953125 3.296875 
Q 6 8.015625 6 15.921875 
Q 6 25.140625 12.171875 29.828125 
Q 18.359375 34.515625 30.609375 34.515625 
L 43.21875 34.515625 
L 43.21875 35.40625 
Q 43.21875 41.609375 39.140625 45 
Q 35.0625 48.390625 27.6875 48.390625 
Q 23 48.390625 18.546875 47.265625 
Q 14.109375 46.140625 10.015625 43.890625 
L 10.015625 52.203125 
Q 14.9375 54.109375 19.578125 55.046875 
Q 24.21875 56 28.609375 56 
Q 40.484375 56 46.34375 49.84375 
Q 52.203125 43.703125 52.203125 31.203125 
z
" id="DejaVuSans-97"/>
     <path d="M 9.421875 54.6875 
L 18.40625 54.6875 
L 18.40625 -0.984375 
Q 18.40625 -11.421875 14.421875 -16.109375 
Q 10.453125 -20.796875 1.609375 -20.796875 
L -1.8125 -20.796875 
L -1.8125 -13.1875 
L 0.59375 -13.1875 
Q 5.71875 -13.1875 7.5625 -10.8125 
Q 9.421875 -8.453125 9.421875 -0.984375 
z
M 9.421875 75.984375 
L 18.40625 75.984375 
L 18.40625 64.59375 
L 9.421875 64.59375 
z
" id="DejaVuSans-106"/>
     <path d="M 56.203125 29.59375 
L 56.203125 25.203125 
L 14.890625 25.203125 
Q 15.484375 15.921875 20.484375 11.0625 
Q 25.484375 6.203125 34.421875 6.203125 
Q 39.59375 6.203125 44.453125 7.46875 
Q 49.3125 8.734375 54.109375 11.28125 
L 54.109375 2.78125 
Q 49.265625 0.734375 44.1875 -0.34375 
Q 39.109375 -1.421875 33.890625 -1.421875 
Q 20.796875 -1.421875 13.15625 6.1875 
Q 5.515625 13.8125 5.515625 26.8125 
Q 5.515625 40.234375 12.765625 48.109375 
Q 20.015625 56 32.328125 56 
Q 43.359375 56 49.78125 48.890625 
Q 56.203125 41.796875 56.203125 29.59375 
z
M 47.21875 32.234375 
Q 47.125 39.59375 43.09375 43.984375 
Q 39.0625 48.390625 32.421875 48.390625 
Q 24.90625 48.390625 20.390625 44.140625 
Q 15.875 39.890625 15.1875 32.171875 
z
" id="DejaVuSans-101"/>
     <path d="M 48.78125 52.59375 
L 48.78125 44.1875 
Q 44.96875 46.296875 41.140625 47.34375 
Q 37.3125 48.390625 33.40625 48.390625 
Q 24.65625 48.390625 19.8125 42.84375 
Q 14.984375 37.3125 14.984375 27.296875 
Q 14.984375 17.28125 19.8125 11.734375 
Q 24.65625 6.203125 33.40625 6.203125 
Q 37.3125 6.203125 41.140625 7.25 
Q 44.96875 8.296875 48.78125 10.40625 
L 48.78125 2.09375 
Q 45.015625 0.34375 40.984375 -0.53125 
Q 36.96875 -1.421875 32.421875 -1.421875 
Q 20.0625 -1.421875 12.78125 6.34375 
Q 5.515625 14.109375 5.515625 27.296875 
Q 5.515625 40.671875 12.859375 48.328125 
Q 20.21875 56 33.015625 56 
Q 37.15625 56 41.109375 55.140625 
Q 45.0625 54.296875 48.78125 52.59375 
z
" id="DejaVuSans-99"/>
     <path d="M 18.3125 70.21875 
L 18.3125 54.6875 
L 36.8125 54.6875 
L 36.8125 47.703125 
L 18.3125 47.703125 
L 18.3125 18.015625 
Q 18.3125 11.328125 20.140625 9.421875 
Q 21.96875 7.515625 27.59375 7.515625 
L 36.8125 7.515625 
L 36.8125 0 
L 27.59375 0 
Q 17.1875 0 13.234375 3.875 
Q 9.28125 7.765625 9.28125 18.015625 
L 9.28125 47.703125 
L 2.6875 47.703125 
L 2.6875 54.6875 
L 9.28125 54.6875 
L 9.28125 70.21875 
z
" id="DejaVuSans-116"/>
     <path d="M 30.609375 48.390625 
Q 23.390625 48.390625 19.1875 42.75 
Q 14.984375 37.109375 14.984375 27.296875 
Q 14.984375 17.484375 19.15625 11.84375 
Q 23.34375 6.203125 30.609375 6.203125 
Q 37.796875 6.203125 41.984375 11.859375 
Q 46.1875 17.53125 46.1875 27.296875 
Q 46.1875 37.015625 41.984375 42.703125 
Q 37.796875 48.390625 30.609375 48.390625 
z
M 30.609375 56 
Q 42.328125 56 49.015625 48.375 
Q 55.71875 40.765625 55.71875 27.296875 
Q 55.71875 13.875 49.015625 6.21875 
Q 42.328125 -1.421875 30.609375 -1.421875 
Q 18.84375 -1.421875 12.171875 6.21875 
Q 5.515625 13.875 5.515625 27.296875 
Q 5.515625 40.765625 12.171875 48.375 
Q 18.84375 56 30.609375 56 
z
" id="DejaVuSans-111"/>
     <path d="M 32.171875 -5.078125 
Q 28.375 -14.84375 24.75 -17.8125 
Q 21.140625 -20.796875 15.09375 -20.796875 
L 7.90625 -20.796875 
L 7.90625 -13.28125 
L 13.1875 -13.28125 
Q 16.890625 -13.28125 18.9375 -11.515625 
Q 21 -9.765625 23.484375 -3.21875 
L 25.09375 0.875 
L 2.984375 54.6875 
L 12.5 54.6875 
L 29.59375 11.921875 
L 46.6875 54.6875 
L 56.203125 54.6875 
z
" id="DejaVuSans-121"/>
     <path id="DejaVuSans-32"/>
     <path d="M 37.109375 75.984375 
L 37.109375 68.5 
L 28.515625 68.5 
Q 23.6875 68.5 21.796875 66.546875 
Q 19.921875 64.59375 19.921875 59.515625 
L 19.921875 54.6875 
L 34.71875 54.6875 
L 34.71875 47.703125 
L 19.921875 47.703125 
L 19.921875 0 
L 10.890625 0 
L 10.890625 47.703125 
L 2.296875 47.703125 
L 2.296875 54.6875 
L 10.890625 54.6875 
L 10.890625 58.5 
Q 10.890625 67.625 15.140625 71.796875 
Q 19.390625 75.984375 28.609375 75.984375 
z
" id="DejaVuSans-102"/>
     <path d="M -47.015625 63.53125 
L -47.015625 68.40625 
L -10.84375 68.40625 
L -17.28125 75.984375 
L -11.140625 75.984375 
L -2.59375 65.96875 
L -11.140625 55.953125 
L -17.28125 55.953125 
L -10.84375 63.53125 
z
" id="DejaVuSans-8407"/>
    </defs>
    <g transform="translate(168.232727 42.384)scale(0.2 -0.2)">
     <use transform="translate(0 0.703125)" xlink:href="#DejaVuSans-84"/>
     <use transform="translate(61.083984 0.703125)" xlink:href="#DejaVuSans-114"/>
     <use transform="translate(102.197266 0.703125)" xlink:href="#DejaVuSans-97"/>
     <use transform="translate(163.476562 0.703125)" xlink:href="#DejaVuSans-106"/>
     <use transform="translate(191.259766 0.703125)" xlink:href="#DejaVuSans-101"/>
     <use transform="translate(252.783203 0.703125)" xlink:href="#DejaVuSans-99"/>
     <use transform="translate(307.763672 0.703125)" xlink:href="#DejaVuSans-116"/>
     <use transform="translate(346.972656 0.703125)" xlink:href="#DejaVuSans-111"/>
     <use transform="translate(408.154297 0.703125)" xlink:href="#DejaVuSans-114"/>
     <use transform="translate(449.267578 0.703125)" xlink:href="#DejaVuSans-121"/>
     <use transform="translate(508.447266 0.703125)" xlink:href="#DejaVuSans-32"/>
     <use transform="translate(540.234375 0.703125)" xlink:href="#DejaVuSans-111"/>
     <use transform="translate(601.416016 0.703125)" xlink:href="#DejaVuSans-102"/>
     <use transform="translate(636.621094 0.703125)" xlink:href="#DejaVuSans-32"/>
     <use transform="translate(728.740234 34.015625)" xlink:href="#DejaVuSans-8407"/>
     <use transform="translate(668.408203 0.703125)" xlink:href="#DejaVuSans-Oblique-952"/>
    </g>
   </g>
  </g>
  <g id="axes_2">
   <g id="patch_7">
    <path clip-path="url(#p44494064dc)" d="M 385.044545 358.848 
L 385.044545 332.976 
L 385.044545 74.256 
L 385.044545 48.384 
L 400.567745 48.384 
L 400.567745 74.256 
L 400.567745 332.976 
L 400.567745 358.848 
z
" style="fill:#ffffff;stroke:#ffffff;stroke-linejoin:miter;stroke-width:0.01;"/>
   </g>
   <g id="matplotlib.axis_3"/>
   <g id="matplotlib.axis_4">
    <g id="ytick_10">
     <g id="line2d_16">
      <defs>
       <path d="M 0 0 
L 3.5 0 
" id="m9b2fce04a9" style="stroke:#000000;stroke-width:0.8;"/>
      </defs>
      <g>
       <use style="stroke:#000000;stroke-width:0.8;" x="400.567745" xlink:href="#m9b2fce04a9" y="358.848"/>
      </g>
     </g>
     <g id="text_19">
      <!-- 0.05 -->
      <g transform="translate(407.567745 362.647219)scale(0.1 -0.1)">
       <use xlink:href="#DejaVuSans-48"/>
       <use x="63.623047" xlink:href="#DejaVuSans-46"/>
       <use x="95.410156" xlink:href="#DejaVuSans-48"/>
       <use x="159.033203" xlink:href="#DejaVuSans-53"/>
      </g>
     </g>
    </g>
    <g id="ytick_11">
     <g id="line2d_17">
      <g>
       <use style="stroke:#000000;stroke-width:0.8;" x="400.567745" xlink:href="#m9b2fce04a9" y="307.104"/>
      </g>
     </g>
     <g id="text_20">
      <!-- 0.14 -->
      <g transform="translate(407.567745 310.903219)scale(0.1 -0.1)">
       <use xlink:href="#DejaVuSans-48"/>
       <use x="63.623047" xlink:href="#DejaVuSans-46"/>
       <use x="95.410156" xlink:href="#DejaVuSans-49"/>
       <use x="159.033203" xlink:href="#DejaVuSans-52"/>
      </g>
     </g>
    </g>
    <g id="ytick_12">
     <g id="line2d_18">
      <g>
       <use style="stroke:#000000;stroke-width:0.8;" x="400.567745" xlink:href="#m9b2fce04a9" y="255.36"/>
      </g>
     </g>
     <g id="text_21">
      <!-- 0.37 -->
      <defs>
       <path d="M 40.578125 39.3125 
Q 47.65625 37.796875 51.625 33 
Q 55.609375 28.21875 55.609375 21.1875 
Q 55.609375 10.40625 48.1875 4.484375 
Q 40.765625 -1.421875 27.09375 -1.421875 
Q 22.515625 -1.421875 17.65625 -0.515625 
Q 12.796875 0.390625 7.625 2.203125 
L 7.625 11.71875 
Q 11.71875 9.328125 16.59375 8.109375 
Q 21.484375 6.890625 26.8125 6.890625 
Q 36.078125 6.890625 40.9375 10.546875 
Q 45.796875 14.203125 45.796875 21.1875 
Q 45.796875 27.640625 41.28125 31.265625 
Q 36.765625 34.90625 28.71875 34.90625 
L 20.21875 34.90625 
L 20.21875 43.015625 
L 29.109375 43.015625 
Q 36.375 43.015625 40.234375 45.921875 
Q 44.09375 48.828125 44.09375 54.296875 
Q 44.09375 59.90625 40.109375 62.90625 
Q 36.140625 65.921875 28.71875 65.921875 
Q 24.65625 65.921875 20.015625 65.03125 
Q 15.375 64.15625 9.8125 62.3125 
L 9.8125 71.09375 
Q 15.4375 72.65625 20.34375 73.4375 
Q 25.25 74.21875 29.59375 74.21875 
Q 40.828125 74.21875 47.359375 69.109375 
Q 53.90625 64.015625 53.90625 55.328125 
Q 53.90625 49.265625 50.4375 45.09375 
Q 46.96875 40.921875 40.578125 39.3125 
z
" id="DejaVuSans-51"/>
      </defs>
      <g transform="translate(407.567745 259.159219)scale(0.1 -0.1)">
       <use xlink:href="#DejaVuSans-48"/>
       <use x="63.623047" xlink:href="#DejaVuSans-46"/>
       <use x="95.410156" xlink:href="#DejaVuSans-51"/>
       <use x="159.033203" xlink:href="#DejaVuSans-55"/>
      </g>
     </g>
    </g>
    <g id="ytick_13">
     <g id="line2d_19">
      <g>
       <use style="stroke:#000000;stroke-width:0.8;" x="400.567745" xlink:href="#m9b2fce04a9" y="203.616"/>
      </g>
     </g>
     <g id="text_22">
      <!-- 1.00 -->
      <g transform="translate(407.567745 207.415219)scale(0.1 -0.1)">
       <use xlink:href="#DejaVuSans-49"/>
       <use x="63.623047" xlink:href="#DejaVuSans-46"/>
       <use x="95.410156" xlink:href="#DejaVuSans-48"/>
       <use x="159.033203" xlink:href="#DejaVuSans-48"/>
      </g>
     </g>
    </g>
    <g id="ytick_14">
     <g id="line2d_20">
      <g>
       <use style="stroke:#000000;stroke-width:0.8;" x="400.567745" xlink:href="#m9b2fce04a9" y="151.872"/>
      </g>
     </g>
     <g id="text_23">
      <!-- 2.72 -->
      <g transform="translate(407.567745 155.671219)scale(0.1 -0.1)">
       <use xlink:href="#DejaVuSans-50"/>
       <use x="63.623047" xlink:href="#DejaVuSans-46"/>
       <use x="95.410156" xlink:href="#DejaVuSans-55"/>
       <use x="159.033203" xlink:href="#DejaVuSans-50"/>
      </g>
     </g>
    </g>
    <g id="ytick_15">
     <g id="line2d_21">
      <g>
       <use style="stroke:#000000;stroke-width:0.8;" x="400.567745" xlink:href="#m9b2fce04a9" y="100.128"/>
      </g>
     </g>
     <g id="text_24">
      <!-- 7.39 -->
      <defs>
       <path d="M 10.984375 1.515625 
L 10.984375 10.5 
Q 14.703125 8.734375 18.5 7.8125 
Q 22.3125 6.890625 25.984375 6.890625 
Q 35.75 6.890625 40.890625 13.453125 
Q 46.046875 20.015625 46.78125 33.40625 
Q 43.953125 29.203125 39.59375 26.953125 
Q 35.25 24.703125 29.984375 24.703125 
Q 19.046875 24.703125 12.671875 31.3125 
Q 6.296875 37.9375 6.296875 49.421875 
Q 6.296875 60.640625 12.9375 67.421875 
Q 19.578125 74.21875 30.609375 74.21875 
Q 43.265625 74.21875 49.921875 64.515625 
Q 56.59375 54.828125 56.59375 36.375 
Q 56.59375 19.140625 48.40625 8.859375 
Q 40.234375 -1.421875 26.421875 -1.421875 
Q 22.703125 -1.421875 18.890625 -0.6875 
Q 15.09375 0.046875 10.984375 1.515625 
z
M 30.609375 32.421875 
Q 37.25 32.421875 41.125 36.953125 
Q 45.015625 41.5 45.015625 49.421875 
Q 45.015625 57.28125 41.125 61.84375 
Q 37.25 66.40625 30.609375 66.40625 
Q 23.96875 66.40625 20.09375 61.84375 
Q 16.21875 57.28125 16.21875 49.421875 
Q 16.21875 41.5 20.09375 36.953125 
Q 23.96875 32.421875 30.609375 32.421875 
z
" id="DejaVuSans-57"/>
      </defs>
      <g transform="translate(407.567745 103.927219)scale(0.1 -0.1)">
       <use xlink:href="#DejaVuSans-55"/>
       <use x="63.623047" xlink:href="#DejaVuSans-46"/>
       <use x="95.410156" xlink:href="#DejaVuSans-51"/>
       <use x="159.033203" xlink:href="#DejaVuSans-57"/>
      </g>
     </g>
    </g>
    <g id="ytick_16">
     <g id="line2d_22">
      <g>
       <use style="stroke:#000000;stroke-width:0.8;" x="400.567745" xlink:href="#m9b2fce04a9" y="48.384"/>
      </g>
     </g>
     <g id="text_25">
      <!-- 20.09 -->
      <g transform="translate(407.567745 52.183219)scale(0.1 -0.1)">
       <use xlink:href="#DejaVuSans-50"/>
       <use x="63.623047" xlink:href="#DejaVuSans-48"/>
       <use x="127.246094" xlink:href="#DejaVuSans-46"/>
       <use x="159.033203" xlink:href="#DejaVuSans-48"/>
       <use x="222.65625" xlink:href="#DejaVuSans-57"/>
      </g>
     </g>
    </g>
   </g>
   <g id="LineCollection_14">
    <path clip-path="url(#p44494064dc)" d="M 385.044545 358.848 
L 400.567745 358.848 
" style="fill:none;stroke:#440154;stroke-width:1.5;"/>
    <path clip-path="url(#p44494064dc)" d="M 385.044545 332.976 
L 400.567745 332.976 
" style="fill:none;stroke:#440154;stroke-width:1.5;"/>
    <path clip-path="url(#p44494064dc)" d="M 385.044545 307.104 
L 400.567745 307.104 
" style="fill:none;stroke:#440256;stroke-width:1.5;"/>
    <path clip-path="url(#p44494064dc)" d="M 385.044545 281.232 
L 400.567745 281.232 
" style="fill:none;stroke:#450457;stroke-width:1.5;"/>
    <path clip-path="url(#p44494064dc)" d="M 385.044545 255.36 
L 400.567745 255.36 
" style="fill:none;stroke:#46075a;stroke-width:1.5;"/>
    <path clip-path="url(#p44494064dc)" d="M 385.044545 229.488 
L 400.567745 229.488 
" style="fill:none;stroke:#460b5e;stroke-width:1.5;"/>
    <path clip-path="url(#p44494064dc)" d="M 385.044545 203.616 
L 400.567745 203.616 
" style="fill:none;stroke:#471365;stroke-width:1.5;"/>
    <path clip-path="url(#p44494064dc)" d="M 385.044545 177.744 
L 400.567745 177.744 
" style="fill:none;stroke:#481d6f;stroke-width:1.5;"/>
    <path clip-path="url(#p44494064dc)" d="M 385.044545 151.872 
L 400.567745 151.872 
" style="fill:none;stroke:#472f7d;stroke-width:1.5;"/>
    <path clip-path="url(#p44494064dc)" d="M 385.044545 126 
L 400.567745 126 
" style="fill:none;stroke:#3e4989;stroke-width:1.5;"/>
    <path clip-path="url(#p44494064dc)" d="M 385.044545 100.128 
L 400.567745 100.128 
" style="fill:none;stroke:#2d708e;stroke-width:1.5;"/>
    <path clip-path="url(#p44494064dc)" d="M 385.044545 74.256 
L 400.567745 74.256 
" style="fill:none;stroke:#24aa83;stroke-width:1.5;"/>
    <path clip-path="url(#p44494064dc)" d="M 385.044545 48.384 
L 400.567745 48.384 
" style="fill:none;stroke:#fde725;stroke-width:1.5;"/>
   </g>
   <g id="patch_8">
    <path d="M 385.044545 358.848 
L 385.044545 332.976 
L 385.044545 74.256 
L 385.044545 48.384 
L 400.567745 48.384 
L 400.567745 74.256 
L 400.567745 332.976 
L 400.567745 358.848 
z
" style="fill:none;stroke:#000000;stroke-linejoin:miter;stroke-width:0.8;"/>
   </g>
  </g>
  <g id="axes_3">
   <g id="patch_9">
    <path d="M 496.898182 358.848 
L 816.48 358.848 
L 816.48 48.384 
L 496.898182 48.384 
z
" style="fill:none;"/>
   </g>
   <g id="PathCollection_2">
    <g clip-path="url(#p721ac7f416)">
     <use style="fill:#b22222;stroke:#b22222;stroke-width:3;" x="519.043355" xlink:href="#m446ae09a6c" y="325.594275"/>
     <use style="fill:#b22222;stroke:#b22222;stroke-width:3;" x="548.241505" xlink:href="#m446ae09a6c" y="288.290384"/>
     <use style="fill:#b22222;stroke:#b22222;stroke-width:3;" x="578.972352" xlink:href="#m446ae09a6c" y="261.6381"/>
     <use style="fill:#b22222;stroke:#b22222;stroke-width:3;" x="606.539208" xlink:href="#m446ae09a6c" y="233.491706"/>
     <use style="fill:#b22222;stroke:#b22222;stroke-width:3;" x="641.725282" xlink:href="#m446ae09a6c" y="228.408123"/>
     <use style="fill:#b22222;stroke:#b22222;stroke-width:3;" x="672.852018" xlink:href="#m446ae09a6c" y="157.103895"/>
     <use style="fill:#b22222;stroke:#b22222;stroke-width:3;" x="696.121689" xlink:href="#m446ae09a6c" y="145.909222"/>
     <use style="fill:#b22222;stroke:#b22222;stroke-width:3;" x="728.200898" xlink:href="#m446ae09a6c" y="151.969093"/>
     <use style="fill:#b22222;stroke:#b22222;stroke-width:3;" x="760.827357" xlink:href="#m446ae09a6c" y="85.592009"/>
     <use style="fill:#b22222;stroke:#b22222;stroke-width:3;" x="794.052711" xlink:href="#m446ae09a6c" y="74.178183"/>
    </g>
   </g>
   <g id="matplotlib.axis_5">
    <g id="xtick_7">
     <g id="line2d_23">
      <g>
       <use style="stroke:#000000;stroke-width:0.8;" x="512.116364" xlink:href="#m276992d867" y="358.848"/>
      </g>
     </g>
     <g id="text_26">
      <!-- 0 -->
      <g transform="translate(508.935114 373.446438)scale(0.1 -0.1)">
       <use xlink:href="#DejaVuSans-48"/>
      </g>
     </g>
    </g>
    <g id="xtick_8">
     <g id="line2d_24">
      <g>
       <use style="stroke:#000000;stroke-width:0.8;" x="572.989091" xlink:href="#m276992d867" y="358.848"/>
      </g>
     </g>
     <g id="text_27">
      <!-- 2 -->
      <g transform="translate(569.807841 373.446438)scale(0.1 -0.1)">
       <use xlink:href="#DejaVuSans-50"/>
      </g>
     </g>
    </g>
    <g id="xtick_9">
     <g id="line2d_25">
      <g>
       <use style="stroke:#000000;stroke-width:0.8;" x="633.861818" xlink:href="#m276992d867" y="358.848"/>
      </g>
     </g>
     <g id="text_28">
      <!-- 4 -->
      <g transform="translate(630.680568 373.446438)scale(0.1 -0.1)">
       <use xlink:href="#DejaVuSans-52"/>
      </g>
     </g>
    </g>
    <g id="xtick_10">
     <g id="line2d_26">
      <g>
       <use style="stroke:#000000;stroke-width:0.8;" x="694.734545" xlink:href="#m276992d867" y="358.848"/>
      </g>
     </g>
     <g id="text_29">
      <!-- 6 -->
      <g transform="translate(691.553295 373.446438)scale(0.1 -0.1)">
       <use xlink:href="#DejaVuSans-54"/>
      </g>
     </g>
    </g>
    <g id="xtick_11">
     <g id="line2d_27">
      <g>
       <use style="stroke:#000000;stroke-width:0.8;" x="755.607273" xlink:href="#m276992d867" y="358.848"/>
      </g>
     </g>
     <g id="text_30">
      <!-- 8 -->
      <defs>
       <path d="M 31.78125 34.625 
Q 24.75 34.625 20.71875 30.859375 
Q 16.703125 27.09375 16.703125 20.515625 
Q 16.703125 13.921875 20.71875 10.15625 
Q 24.75 6.390625 31.78125 6.390625 
Q 38.8125 6.390625 42.859375 10.171875 
Q 46.921875 13.96875 46.921875 20.515625 
Q 46.921875 27.09375 42.890625 30.859375 
Q 38.875 34.625 31.78125 34.625 
z
M 21.921875 38.8125 
Q 15.578125 40.375 12.03125 44.71875 
Q 8.5 49.078125 8.5 55.328125 
Q 8.5 64.0625 14.71875 69.140625 
Q 20.953125 74.21875 31.78125 74.21875 
Q 42.671875 74.21875 48.875 69.140625 
Q 55.078125 64.0625 55.078125 55.328125 
Q 55.078125 49.078125 51.53125 44.71875 
Q 48 40.375 41.703125 38.8125 
Q 48.828125 37.15625 52.796875 32.3125 
Q 56.78125 27.484375 56.78125 20.515625 
Q 56.78125 9.90625 50.3125 4.234375 
Q 43.84375 -1.421875 31.78125 -1.421875 
Q 19.734375 -1.421875 13.25 4.234375 
Q 6.78125 9.90625 6.78125 20.515625 
Q 6.78125 27.484375 10.78125 32.3125 
Q 14.796875 37.15625 21.921875 38.8125 
z
M 18.3125 54.390625 
Q 18.3125 48.734375 21.84375 45.5625 
Q 25.390625 42.390625 31.78125 42.390625 
Q 38.140625 42.390625 41.71875 45.5625 
Q 45.3125 48.734375 45.3125 54.390625 
Q 45.3125 60.0625 41.71875 63.234375 
Q 38.140625 66.40625 31.78125 66.40625 
Q 25.390625 66.40625 21.84375 63.234375 
Q 18.3125 60.0625 18.3125 54.390625 
z
" id="DejaVuSans-56"/>
      </defs>
      <g transform="translate(752.426023 373.446438)scale(0.1 -0.1)">
       <use xlink:href="#DejaVuSans-56"/>
      </g>
     </g>
    </g>
    <g id="xtick_12">
     <g id="line2d_28">
      <g>
       <use style="stroke:#000000;stroke-width:0.8;" x="816.48" xlink:href="#m276992d867" y="358.848"/>
      </g>
     </g>
     <g id="text_31">
      <!-- 10 -->
      <g transform="translate(810.1175 373.446438)scale(0.1 -0.1)">
       <use xlink:href="#DejaVuSans-49"/>
       <use x="63.623047" xlink:href="#DejaVuSans-48"/>
      </g>
     </g>
    </g>
    <g id="text_32">
     <!-- x -->
     <defs>
      <path d="M 54.890625 54.6875 
L 35.109375 28.078125 
L 55.90625 0 
L 45.3125 0 
L 29.390625 21.484375 
L 13.484375 0 
L 2.875 0 
L 24.125 28.609375 
L 4.6875 54.6875 
L 15.28125 54.6875 
L 29.78125 35.203125 
L 44.28125 54.6875 
z
" id="DejaVuSans-120"/>
     </defs>
     <g transform="translate(650.770341 394.723)scale(0.2 -0.2)">
      <use xlink:href="#DejaVuSans-120"/>
     </g>
    </g>
   </g>
   <g id="matplotlib.axis_6">
    <g id="ytick_17">
     <g id="line2d_29">
      <g>
       <use style="stroke:#000000;stroke-width:0.8;" x="496.898182" xlink:href="#m2643767a01" y="345.349565"/>
      </g>
     </g>
     <g id="text_33">
      <!-- 0 -->
      <g transform="translate(483.535682 349.148784)scale(0.1 -0.1)">
       <use xlink:href="#DejaVuSans-48"/>
      </g>
     </g>
    </g>
    <g id="ytick_18">
     <g id="line2d_30">
      <g>
       <use style="stroke:#000000;stroke-width:0.8;" x="496.898182" xlink:href="#m2643767a01" y="291.355826"/>
      </g>
     </g>
     <g id="text_34">
      <!-- 2 -->
      <g transform="translate(483.535682 295.155045)scale(0.1 -0.1)">
       <use xlink:href="#DejaVuSans-50"/>
      </g>
     </g>
    </g>
    <g id="ytick_19">
     <g id="line2d_31">
      <g>
       <use style="stroke:#000000;stroke-width:0.8;" x="496.898182" xlink:href="#m2643767a01" y="237.362087"/>
      </g>
     </g>
     <g id="text_35">
      <!-- 4 -->
      <g transform="translate(483.535682 241.161306)scale(0.1 -0.1)">
       <use xlink:href="#DejaVuSans-52"/>
      </g>
     </g>
    </g>
    <g id="ytick_20">
     <g id="line2d_32">
      <g>
       <use style="stroke:#000000;stroke-width:0.8;" x="496.898182" xlink:href="#m2643767a01" y="183.368348"/>
      </g>
     </g>
     <g id="text_36">
      <!-- 6 -->
      <g transform="translate(483.535682 187.167567)scale(0.1 -0.1)">
       <use xlink:href="#DejaVuSans-54"/>
      </g>
     </g>
    </g>
    <g id="ytick_21">
     <g id="line2d_33">
      <g>
       <use style="stroke:#000000;stroke-width:0.8;" x="496.898182" xlink:href="#m2643767a01" y="129.374609"/>
      </g>
     </g>
     <g id="text_37">
      <!-- 8 -->
      <g transform="translate(483.535682 133.173827)scale(0.1 -0.1)">
       <use xlink:href="#DejaVuSans-56"/>
      </g>
     </g>
    </g>
    <g id="ytick_22">
     <g id="line2d_34">
      <g>
       <use style="stroke:#000000;stroke-width:0.8;" x="496.898182" xlink:href="#m2643767a01" y="75.38087"/>
      </g>
     </g>
     <g id="text_38">
      <!-- 10 -->
      <g transform="translate(477.173182 79.180088)scale(0.1 -0.1)">
       <use xlink:href="#DejaVuSans-49"/>
       <use x="63.623047" xlink:href="#DejaVuSans-48"/>
      </g>
     </g>
    </g>
    <g id="text_39">
     <!-- y -->
     <g transform="translate(469.013807 209.53475)rotate(-90)scale(0.2 -0.2)">
      <use xlink:href="#DejaVuSans-121"/>
     </g>
    </g>
   </g>
   <g id="line2d_35">
    <path clip-path="url(#p721ac7f416)" d="M 519.043355 318.756114 
L 548.241505 292.157891 
L 578.972352 264.163448 
L 606.539208 239.051261 
L 641.725282 206.998303 
L 672.852018 178.643223 
L 696.121689 157.445582 
L 728.200898 128.22284 
L 760.827357 98.501579 
L 794.052711 68.23475 
" style="fill:none;stroke:#008080;stroke-linecap:square;stroke-width:1.5;"/>
    <defs>
     <path d="M 0 3 
C 0.795609 3 1.55874 2.683901 2.12132 2.12132 
C 2.683901 1.55874 3 0.795609 3 0 
C 3 -0.795609 2.683901 -1.55874 2.12132 -2.12132 
C 1.55874 -2.683901 0.795609 -3 0 -3 
C -0.795609 -3 -1.55874 -2.683901 -2.12132 -2.12132 
C -2.683901 -1.55874 -3 -0.795609 -3 0 
C -3 0.795609 -2.683901 1.55874 -2.12132 2.12132 
C -1.55874 2.683901 -0.795609 3 0 3 
z
" id="m0673574be6" style="stroke:#008080;"/>
    </defs>
    <g clip-path="url(#p721ac7f416)">
     <use style="fill:#008080;stroke:#008080;" x="519.043355" xlink:href="#m0673574be6" y="318.756114"/>
     <use style="fill:#008080;stroke:#008080;" x="548.241505" xlink:href="#m0673574be6" y="292.157891"/>
     <use style="fill:#008080;stroke:#008080;" x="578.972352" xlink:href="#m0673574be6" y="264.163448"/>
     <use style="fill:#008080;stroke:#008080;" x="606.539208" xlink:href="#m0673574be6" y="239.051261"/>
     <use style="fill:#008080;stroke:#008080;" x="641.725282" xlink:href="#m0673574be6" y="206.998303"/>
     <use style="fill:#008080;stroke:#008080;" x="672.852018" xlink:href="#m0673574be6" y="178.643223"/>
     <use style="fill:#008080;stroke:#008080;" x="696.121689" xlink:href="#m0673574be6" y="157.445582"/>
     <use style="fill:#008080;stroke:#008080;" x="728.200898" xlink:href="#m0673574be6" y="128.22284"/>
     <use style="fill:#008080;stroke:#008080;" x="760.827357" xlink:href="#m0673574be6" y="98.501579"/>
     <use style="fill:#008080;stroke:#008080;" x="794.052711" xlink:href="#m0673574be6" y="68.23475"/>
    </g>
   </g>
   <g id="patch_10">
    <path d="M 496.898182 358.848 
L 496.898182 48.384 
" style="fill:none;stroke:#000000;stroke-linecap:square;stroke-linejoin:miter;stroke-width:0.8;"/>
   </g>
   <g id="patch_11">
    <path d="M 816.48 358.848 
L 816.48 48.384 
" style="fill:none;stroke:#000000;stroke-linecap:square;stroke-linejoin:miter;stroke-width:0.8;"/>
   </g>
   <g id="patch_12">
    <path d="M 496.898182 358.848 
L 816.48 358.848 
" style="fill:none;stroke:#000000;stroke-linecap:square;stroke-linejoin:miter;stroke-width:0.8;"/>
   </g>
   <g id="patch_13">
    <path d="M 496.898182 48.384 
L 816.48 48.384 
" style="fill:none;stroke:#000000;stroke-linecap:square;stroke-linejoin:miter;stroke-width:0.8;"/>
   </g>
   <g id="text_40">
    <!-- $\theta_0=0.75, \theta_1=1.02$ -->
    <defs>
     <path d="M 10.59375 45.40625 
L 73.1875 45.40625 
L 73.1875 37.203125 
L 10.59375 37.203125 
z
M 10.59375 25.484375 
L 73.1875 25.484375 
L 73.1875 17.1875 
L 10.59375 17.1875 
z
" id="DejaVuSans-61"/>
     <path d="M 11.71875 12.40625 
L 22.015625 12.40625 
L 22.015625 4 
L 14.015625 -11.625 
L 7.71875 -11.625 
L 11.71875 4 
z
" id="DejaVuSans-44"/>
    </defs>
    <g transform="translate(560.789091 42.384)scale(0.2 -0.2)">
     <use transform="translate(0 0.234375)" xlink:href="#DejaVuSans-Oblique-952"/>
     <use transform="translate(61.181641 -16.171875)scale(0.7)" xlink:href="#DejaVuSans-48"/>
     <use transform="translate(127.93457 0.234375)" xlink:href="#DejaVuSans-61"/>
     <use transform="translate(231.206055 0.234375)" xlink:href="#DejaVuSans-48"/>
     <use transform="translate(294.829102 0.234375)" xlink:href="#DejaVuSans-46"/>
     <use transform="translate(326.506836 0.234375)" xlink:href="#DejaVuSans-55"/>
     <use transform="translate(390.129883 0.234375)" xlink:href="#DejaVuSans-53"/>
     <use transform="translate(453.75293 0.234375)" xlink:href="#DejaVuSans-44"/>
     <use transform="translate(505.022461 0.234375)" xlink:href="#DejaVuSans-Oblique-952"/>
     <use transform="translate(566.204102 -16.171875)scale(0.7)" xlink:href="#DejaVuSans-49"/>
     <use transform="translate(632.957031 0.234375)" xlink:href="#DejaVuSans-61"/>
     <use transform="translate(736.228516 0.234375)" xlink:href="#DejaVuSans-49"/>
     <use transform="translate(799.851562 0.234375)" xlink:href="#DejaVuSans-46"/>
     <use transform="translate(831.638672 0.234375)" xlink:href="#DejaVuSans-48"/>
     <use transform="translate(895.261719 0.234375)" xlink:href="#DejaVuSans-50"/>
    </g>
   </g>
   <g id="legend_1">
    <g id="patch_14">
     <path d="M 507.398182 104.418375 
L 630.501307 104.418375 
Q 633.501307 104.418375 633.501307 101.418375 
L 633.501307 58.884 
Q 633.501307 55.884 630.501307 55.884 
L 507.398182 55.884 
Q 504.398182 55.884 504.398182 58.884 
L 504.398182 101.418375 
Q 504.398182 104.418375 507.398182 104.418375 
z
" style="fill:#ffffff;opacity:0.8;stroke:#cccccc;stroke-linejoin:miter;"/>
    </g>
    <g id="line2d_36">
     <path d="M 510.398182 68.031656 
L 540.398182 68.031656 
" style="fill:none;stroke:#008080;stroke-linecap:square;stroke-width:1.5;"/>
    </g>
    <g id="line2d_37">
     <g>
      <use style="fill:#008080;stroke:#008080;" x="525.398182" xlink:href="#m0673574be6" y="68.031656"/>
     </g>
    </g>
    <g id="text_41">
     <!-- Prediction -->
     <defs>
      <path d="M 19.671875 64.796875 
L 19.671875 37.40625 
L 32.078125 37.40625 
Q 38.96875 37.40625 42.71875 40.96875 
Q 46.484375 44.53125 46.484375 51.125 
Q 46.484375 57.671875 42.71875 61.234375 
Q 38.96875 64.796875 32.078125 64.796875 
z
M 9.8125 72.90625 
L 32.078125 72.90625 
Q 44.34375 72.90625 50.609375 67.359375 
Q 56.890625 61.8125 56.890625 51.125 
Q 56.890625 40.328125 50.609375 34.8125 
Q 44.34375 29.296875 32.078125 29.296875 
L 19.671875 29.296875 
L 19.671875 0 
L 9.8125 0 
z
" id="DejaVuSans-80"/>
      <path d="M 45.40625 46.390625 
L 45.40625 75.984375 
L 54.390625 75.984375 
L 54.390625 0 
L 45.40625 0 
L 45.40625 8.203125 
Q 42.578125 3.328125 38.25 0.953125 
Q 33.9375 -1.421875 27.875 -1.421875 
Q 17.96875 -1.421875 11.734375 6.484375 
Q 5.515625 14.40625 5.515625 27.296875 
Q 5.515625 40.1875 11.734375 48.09375 
Q 17.96875 56 27.875 56 
Q 33.9375 56 38.25 53.625 
Q 42.578125 51.265625 45.40625 46.390625 
z
M 14.796875 27.296875 
Q 14.796875 17.390625 18.875 11.75 
Q 22.953125 6.109375 30.078125 6.109375 
Q 37.203125 6.109375 41.296875 11.75 
Q 45.40625 17.390625 45.40625 27.296875 
Q 45.40625 37.203125 41.296875 42.84375 
Q 37.203125 48.484375 30.078125 48.484375 
Q 22.953125 48.484375 18.875 42.84375 
Q 14.796875 37.203125 14.796875 27.296875 
z
" id="DejaVuSans-100"/>
      <path d="M 9.421875 54.6875 
L 18.40625 54.6875 
L 18.40625 0 
L 9.421875 0 
z
M 9.421875 75.984375 
L 18.40625 75.984375 
L 18.40625 64.59375 
L 9.421875 64.59375 
z
" id="DejaVuSans-105"/>
      <path d="M 54.890625 33.015625 
L 54.890625 0 
L 45.90625 0 
L 45.90625 32.71875 
Q 45.90625 40.484375 42.875 44.328125 
Q 39.84375 48.1875 33.796875 48.1875 
Q 26.515625 48.1875 22.3125 43.546875 
Q 18.109375 38.921875 18.109375 30.90625 
L 18.109375 0 
L 9.078125 0 
L 9.078125 54.6875 
L 18.109375 54.6875 
L 18.109375 46.1875 
Q 21.34375 51.125 25.703125 53.5625 
Q 30.078125 56 35.796875 56 
Q 45.21875 56 50.046875 50.171875 
Q 54.890625 44.34375 54.890625 33.015625 
z
" id="DejaVuSans-110"/>
     </defs>
     <g transform="translate(552.398182 73.281656)scale(0.15 -0.15)">
      <use xlink:href="#DejaVuSans-80"/>
      <use x="60.287109" xlink:href="#DejaVuSans-114"/>
      <use x="101.369141" xlink:href="#DejaVuSans-101"/>
      <use x="162.892578" xlink:href="#DejaVuSans-100"/>
      <use x="226.369141" xlink:href="#DejaVuSans-105"/>
      <use x="254.152344" xlink:href="#DejaVuSans-99"/>
      <use x="309.132812" xlink:href="#DejaVuSans-116"/>
      <use x="348.341797" xlink:href="#DejaVuSans-105"/>
      <use x="376.125" xlink:href="#DejaVuSans-111"/>
      <use x="437.306641" xlink:href="#DejaVuSans-110"/>
     </g>
    </g>
    <g id="PathCollection_3">
     <g>
      <use style="fill:#b22222;stroke:#b22222;stroke-width:3;" x="525.398182" xlink:href="#m446ae09a6c" y="91.361344"/>
     </g>
    </g>
    <g id="text_42">
     <!-- Raw Data -->
     <defs>
      <path d="M 44.390625 34.1875 
Q 47.5625 33.109375 50.5625 29.59375 
Q 53.5625 26.078125 56.59375 19.921875 
L 66.609375 0 
L 56 0 
L 46.6875 18.703125 
Q 43.0625 26.03125 39.671875 28.421875 
Q 36.28125 30.8125 30.421875 30.8125 
L 19.671875 30.8125 
L 19.671875 0 
L 9.8125 0 
L 9.8125 72.90625 
L 32.078125 72.90625 
Q 44.578125 72.90625 50.734375 67.671875 
Q 56.890625 62.453125 56.890625 51.90625 
Q 56.890625 45.015625 53.6875 40.46875 
Q 50.484375 35.9375 44.390625 34.1875 
z
M 19.671875 64.796875 
L 19.671875 38.921875 
L 32.078125 38.921875 
Q 39.203125 38.921875 42.84375 42.21875 
Q 46.484375 45.515625 46.484375 51.90625 
Q 46.484375 58.296875 42.84375 61.546875 
Q 39.203125 64.796875 32.078125 64.796875 
z
" id="DejaVuSans-82"/>
      <path d="M 4.203125 54.6875 
L 13.1875 54.6875 
L 24.421875 12.015625 
L 35.59375 54.6875 
L 46.1875 54.6875 
L 57.421875 12.015625 
L 68.609375 54.6875 
L 77.59375 54.6875 
L 63.28125 0 
L 52.6875 0 
L 40.921875 44.828125 
L 29.109375 0 
L 18.5 0 
z
" id="DejaVuSans-119"/>
      <path d="M 19.671875 64.796875 
L 19.671875 8.109375 
L 31.59375 8.109375 
Q 46.6875 8.109375 53.6875 14.9375 
Q 60.6875 21.78125 60.6875 36.53125 
Q 60.6875 51.171875 53.6875 57.984375 
Q 46.6875 64.796875 31.59375 64.796875 
z
M 9.8125 72.90625 
L 30.078125 72.90625 
Q 51.265625 72.90625 61.171875 64.09375 
Q 71.09375 55.28125 71.09375 36.53125 
Q 71.09375 17.671875 61.125 8.828125 
Q 51.171875 0 30.078125 0 
L 9.8125 0 
z
" id="DejaVuSans-68"/>
     </defs>
     <g transform="translate(552.398182 95.298844)scale(0.15 -0.15)">
      <use xlink:href="#DejaVuSans-82"/>
      <use x="69.451172" xlink:href="#DejaVuSans-97"/>
      <use x="130.730469" xlink:href="#DejaVuSans-119"/>
      <use x="212.517578" xlink:href="#DejaVuSans-32"/>
      <use x="244.304688" xlink:href="#DejaVuSans-68"/>
      <use x="321.306641" xlink:href="#DejaVuSans-97"/>
      <use x="382.585938" xlink:href="#DejaVuSans-116"/>
      <use x="421.794922" xlink:href="#DejaVuSans-97"/>
     </g>
    </g>
   </g>
  </g>
 </g>
 <defs>
  <clipPath id="pff79ef90c7">
   <rect height="310.464" width="255.665455" x="113.4" y="48.384"/>
  </clipPath>
  <clipPath id="p44494064dc">
   <rect height="310.464" width="15.5232" x="385.044545" y="48.384"/>
  </clipPath>
  <clipPath id="p721ac7f416">
   <rect height="310.464" width="319.581818" x="496.898182" y="48.384"/>
  </clipPath>
 </defs>
</svg>
