<?xml version="1.0" encoding="utf-8" standalone="no"?>
<!DOCTYPE svg PUBLIC "-//W3C//DTD SVG 1.1//EN"
  "http://www.w3.org/Graphics/SVG/1.1/DTD/svg11.dtd">
<!-- Created with matplotlib (https://matplotlib.org/) -->
<svg height="403.2pt" version="1.1" viewBox="0 0 907.2 403.2" width="907.2pt" xmlns="http://www.w3.org/2000/svg" xmlns:xlink="http://www.w3.org/1999/xlink">
 <defs>
  <style type="text/css">
*{stroke-linecap:butt;stroke-linejoin:round;}
  </style>
 </defs>
 <g id="figure_1">
  <g id="patch_1">
   <path d="M 0 403.2 
L 907.2 403.2 
L 907.2 0 
L 0 0 
z
" style="fill:none;"/>
  </g>
  <g id="axes_1">
   <g id="patch_2">
    <path d="M 113.4 358.848 
L 816.48 358.848 
L 816.48 48.384 
L 113.4 48.384 
z
" style="fill:none;"/>
   </g>
   <g id="PathCollection_1">
    <defs>
     <path d="M 0 5 
C 1.326016 5 2.597899 4.473168 3.535534 3.535534 
C 4.473168 2.597899 5 1.326016 5 0 
C 5 -1.326016 4.473168 -2.597899 3.535534 -3.535534 
C 2.597899 -4.473168 1.326016 -5 0 -5 
C -1.326016 -5 -2.597899 -4.473168 -3.535534 -3.535534 
C -4.473168 -2.597899 -5 -1.326016 -5 0 
C -5 1.326016 -4.473168 2.597899 -3.535534 3.535534 
C -2.597899 4.473168 -1.326016 5 0 5 
z
" id="m2b07986079" style="stroke:#b22222;"/>
    </defs>
    <g clip-path="url(#p46b70d84d5)">
     <use style="fill:#b22222;stroke:#b22222;" x="282.321818" xlink:href="#m2b07986079" y="267.682648"/>
    </g>
   </g>
   <g id="PathCollection_2">
    <defs>
     <path d="M 0 5 
C 1.326016 5 2.597899 4.473168 3.535534 3.535534 
C 4.473168 2.597899 5 1.326016 5 0 
C 5 -1.326016 4.473168 -2.597899 3.535534 -3.535534 
C 2.597899 -4.473168 1.326016 -5 0 -5 
C -1.326016 -5 -2.597899 -4.473168 -3.535534 -3.535534 
C -4.473168 -2.597899 -5 -1.326016 -5 0 
C -5 1.326016 -4.473168 2.597899 -3.535534 3.535534 
C -2.597899 4.473168 -1.326016 5 0 5 
z
" id="m342e47a381" style="stroke:#000080;"/>
    </defs>
    <g clip-path="url(#p46b70d84d5)">
     <use style="fill:#000080;stroke:#000080;" x="670.385455" xlink:href="#m342e47a381" y="341.176234"/>
    </g>
   </g>
   <g id="matplotlib.axis_1"/>
   <g id="matplotlib.axis_2"/>
   <g id="line2d_1">
    <path clip-path="url(#p46b70d84d5)" d="M 145.358182 152.71706 
L 150.836727 161.67631 
L 156.315273 170.200317 
L 161.793818 178.298647 
L 167.272364 185.980745 
L 172.750909 193.255956 
L 178.229455 200.133554 
L 183.708 206.62276 
L 189.186545 212.732764 
L 194.665091 218.472749 
L 200.143636 223.851902 
L 205.622182 228.879441 
L 211.100727 233.564622 
L 216.579273 237.916759 
L 222.057818 241.945239 
L 227.536364 245.659529 
L 233.014909 249.069191 
L 238.493455 252.183892 
L 243.972 255.01341 
L 249.450545 257.567642 
L 254.929091 259.856612 
L 260.407636 261.890475 
L 265.886182 263.679518 
L 271.364727 265.234164 
L 276.843273 266.564975 
L 282.321818 267.682648 
L 287.800364 268.598015 
L 294.192 269.424886 
L 300.583636 270.008954 
L 306.975273 270.368075 
L 313.366909 270.520313 
L 320.671636 270.4644 
L 327.976364 270.189642 
L 336.194182 269.653523 
L 345.325091 268.822611 
L 355.369091 267.685981 
L 369.065455 265.888566 
L 402.849818 261.327188 
L 413.806909 260.137059 
L 422.937818 259.360572 
L 431.155636 258.869505 
L 439.373455 258.607709 
L 446.678182 258.591 
L 453.982909 258.797168 
L 461.287636 259.243243 
L 467.679273 259.842299 
L 474.070909 260.645476 
L 480.462545 261.660281 
L 486.854182 262.892796 
L 493.245818 264.347572 
L 499.637455 266.027522 
L 506.029091 267.93381 
L 512.420727 270.065731 
L 518.812364 272.420601 
L 525.204 274.993628 
L 532.508727 278.192251 
L 539.813455 281.652304 
L 547.118182 285.355249 
L 555.336 289.782473 
L 564.466909 294.978617 
L 575.424 301.506143 
L 611.947636 323.570394 
L 619.252364 327.579061 
L 625.644 330.833301 
L 631.122545 333.386263 
L 636.601091 335.677723 
L 641.166545 337.356002 
L 645.732 338.79552 
L 650.297455 339.968117 
L 653.949818 340.694198 
L 657.602182 341.21477 
L 661.254545 341.513444 
L 664.906909 341.57322 
L 668.559273 341.376479 
L 672.211636 340.904964 
L 674.950909 340.359663 
L 677.690182 339.640966 
L 680.429455 338.740446 
L 683.168727 337.64946 
L 685.908 336.35915 
L 688.647273 334.860435 
L 691.386545 333.144013 
L 694.125818 331.200354 
L 696.865091 329.019699 
L 699.604364 326.592057 
L 702.343636 323.907201 
L 705.082909 320.954666 
L 707.822182 317.723743 
L 710.561455 314.203482 
L 713.300727 310.38268 
L 716.04 306.249886 
L 718.779273 301.793394 
L 721.518545 297.001238 
L 724.257818 291.861193 
L 726.997091 286.36077 
L 730.649455 278.444193 
L 734.301818 269.833238 
L 737.954182 260.496045 
L 741.606545 250.399865 
L 745.258909 239.511052 
L 748.911273 227.795046 
L 752.563636 215.216359 
L 756.216 201.73856 
L 759.868364 187.32426 
L 763.520727 171.935098 
L 767.173091 155.531726 
L 770.825455 138.073794 
L 774.477818 119.519931 
L 778.130182 99.827738 
L 781.782545 78.953763 
L 784.521818 62.496 
L 784.521818 62.496 
" style="fill:none;stroke:#008080;stroke-linecap:square;stroke-width:1.5;"/>
   </g>
   <g id="legend_1">
    <g id="patch_3">
     <path d="M 123.9 104.418375 
L 294.028125 104.418375 
Q 297.028125 104.418375 297.028125 101.418375 
L 297.028125 58.884 
Q 297.028125 55.884 294.028125 55.884 
L 123.9 55.884 
Q 120.9 55.884 120.9 58.884 
L 120.9 101.418375 
Q 120.9 104.418375 123.9 104.418375 
z
" style="fill:#ffffff;opacity:0.8;stroke:#cccccc;stroke-linejoin:miter;"/>
    </g>
    <g id="PathCollection_3">
     <g>
      <use style="fill:#b22222;stroke:#b22222;" x="141.9" xlink:href="#m2b07986079" y="69.344156"/>
     </g>
    </g>
    <g id="text_1">
     <!-- Local Minimum -->
     <defs>
      <path d="M 9.8125 72.90625 
L 19.671875 72.90625 
L 19.671875 8.296875 
L 55.171875 8.296875 
L 55.171875 0 
L 9.8125 0 
z
" id="DejaVuSans-76"/>
      <path d="M 30.609375 48.390625 
Q 23.390625 48.390625 19.1875 42.75 
Q 14.984375 37.109375 14.984375 27.296875 
Q 14.984375 17.484375 19.15625 11.84375 
Q 23.34375 6.203125 30.609375 6.203125 
Q 37.796875 6.203125 41.984375 11.859375 
Q 46.1875 17.53125 46.1875 27.296875 
Q 46.1875 37.015625 41.984375 42.703125 
Q 37.796875 48.390625 30.609375 48.390625 
z
M 30.609375 56 
Q 42.328125 56 49.015625 48.375 
Q 55.71875 40.765625 55.71875 27.296875 
Q 55.71875 13.875 49.015625 6.21875 
Q 42.328125 -1.421875 30.609375 -1.421875 
Q 18.84375 -1.421875 12.171875 6.21875 
Q 5.515625 13.875 5.515625 27.296875 
Q 5.515625 40.765625 12.171875 48.375 
Q 18.84375 56 30.609375 56 
z
" id="DejaVuSans-111"/>
      <path d="M 48.78125 52.59375 
L 48.78125 44.1875 
Q 44.96875 46.296875 41.140625 47.34375 
Q 37.3125 48.390625 33.40625 48.390625 
Q 24.65625 48.390625 19.8125 42.84375 
Q 14.984375 37.3125 14.984375 27.296875 
Q 14.984375 17.28125 19.8125 11.734375 
Q 24.65625 6.203125 33.40625 6.203125 
Q 37.3125 6.203125 41.140625 7.25 
Q 44.96875 8.296875 48.78125 10.40625 
L 48.78125 2.09375 
Q 45.015625 0.34375 40.984375 -0.53125 
Q 36.96875 -1.421875 32.421875 -1.421875 
Q 20.0625 -1.421875 12.78125 6.34375 
Q 5.515625 14.109375 5.515625 27.296875 
Q 5.515625 40.671875 12.859375 48.328125 
Q 20.21875 56 33.015625 56 
Q 37.15625 56 41.109375 55.140625 
Q 45.0625 54.296875 48.78125 52.59375 
z
" id="DejaVuSans-99"/>
      <path d="M 34.28125 27.484375 
Q 23.390625 27.484375 19.1875 25 
Q 14.984375 22.515625 14.984375 16.5 
Q 14.984375 11.71875 18.140625 8.90625 
Q 21.296875 6.109375 26.703125 6.109375 
Q 34.1875 6.109375 38.703125 11.40625 
Q 43.21875 16.703125 43.21875 25.484375 
L 43.21875 27.484375 
z
M 52.203125 31.203125 
L 52.203125 0 
L 43.21875 0 
L 43.21875 8.296875 
Q 40.140625 3.328125 35.546875 0.953125 
Q 30.953125 -1.421875 24.3125 -1.421875 
Q 15.921875 -1.421875 10.953125 3.296875 
Q 6 8.015625 6 15.921875 
Q 6 25.140625 12.171875 29.828125 
Q 18.359375 34.515625 30.609375 34.515625 
L 43.21875 34.515625 
L 43.21875 35.40625 
Q 43.21875 41.609375 39.140625 45 
Q 35.0625 48.390625 27.6875 48.390625 
Q 23 48.390625 18.546875 47.265625 
Q 14.109375 46.140625 10.015625 43.890625 
L 10.015625 52.203125 
Q 14.9375 54.109375 19.578125 55.046875 
Q 24.21875 56 28.609375 56 
Q 40.484375 56 46.34375 49.84375 
Q 52.203125 43.703125 52.203125 31.203125 
z
" id="DejaVuSans-97"/>
      <path d="M 9.421875 75.984375 
L 18.40625 75.984375 
L 18.40625 0 
L 9.421875 0 
z
" id="DejaVuSans-108"/>
      <path id="DejaVuSans-32"/>
      <path d="M 9.8125 72.90625 
L 24.515625 72.90625 
L 43.109375 23.296875 
L 61.8125 72.90625 
L 76.515625 72.90625 
L 76.515625 0 
L 66.890625 0 
L 66.890625 64.015625 
L 48.09375 14.015625 
L 38.1875 14.015625 
L 19.390625 64.015625 
L 19.390625 0 
L 9.8125 0 
z
" id="DejaVuSans-77"/>
      <path d="M 9.421875 54.6875 
L 18.40625 54.6875 
L 18.40625 0 
L 9.421875 0 
z
M 9.421875 75.984375 
L 18.40625 75.984375 
L 18.40625 64.59375 
L 9.421875 64.59375 
z
" id="DejaVuSans-105"/>
      <path d="M 54.890625 33.015625 
L 54.890625 0 
L 45.90625 0 
L 45.90625 32.71875 
Q 45.90625 40.484375 42.875 44.328125 
Q 39.84375 48.1875 33.796875 48.1875 
Q 26.515625 48.1875 22.3125 43.546875 
Q 18.109375 38.921875 18.109375 30.90625 
L 18.109375 0 
L 9.078125 0 
L 9.078125 54.6875 
L 18.109375 54.6875 
L 18.109375 46.1875 
Q 21.34375 51.125 25.703125 53.5625 
Q 30.078125 56 35.796875 56 
Q 45.21875 56 50.046875 50.171875 
Q 54.890625 44.34375 54.890625 33.015625 
z
" id="DejaVuSans-110"/>
      <path d="M 52 44.1875 
Q 55.375 50.25 60.0625 53.125 
Q 64.75 56 71.09375 56 
Q 79.640625 56 84.28125 50.015625 
Q 88.921875 44.046875 88.921875 33.015625 
L 88.921875 0 
L 79.890625 0 
L 79.890625 32.71875 
Q 79.890625 40.578125 77.09375 44.375 
Q 74.3125 48.1875 68.609375 48.1875 
Q 61.625 48.1875 57.5625 43.546875 
Q 53.515625 38.921875 53.515625 30.90625 
L 53.515625 0 
L 44.484375 0 
L 44.484375 32.71875 
Q 44.484375 40.625 41.703125 44.40625 
Q 38.921875 48.1875 33.109375 48.1875 
Q 26.21875 48.1875 22.15625 43.53125 
Q 18.109375 38.875 18.109375 30.90625 
L 18.109375 0 
L 9.078125 0 
L 9.078125 54.6875 
L 18.109375 54.6875 
L 18.109375 46.1875 
Q 21.1875 51.21875 25.484375 53.609375 
Q 29.78125 56 35.6875 56 
Q 41.65625 56 45.828125 52.96875 
Q 50 49.953125 52 44.1875 
z
" id="DejaVuSans-109"/>
      <path d="M 8.5 21.578125 
L 8.5 54.6875 
L 17.484375 54.6875 
L 17.484375 21.921875 
Q 17.484375 14.15625 20.5 10.265625 
Q 23.53125 6.390625 29.59375 6.390625 
Q 36.859375 6.390625 41.078125 11.03125 
Q 45.3125 15.671875 45.3125 23.6875 
L 45.3125 54.6875 
L 54.296875 54.6875 
L 54.296875 0 
L 45.3125 0 
L 45.3125 8.40625 
Q 42.046875 3.421875 37.71875 1 
Q 33.40625 -1.421875 27.6875 -1.421875 
Q 18.265625 -1.421875 13.375 4.4375 
Q 8.5 10.296875 8.5 21.578125 
z
M 31.109375 56 
z
" id="DejaVuSans-117"/>
     </defs>
     <g transform="translate(168.9 73.281656)scale(0.15 -0.15)">
      <use xlink:href="#DejaVuSans-76"/>
      <use x="55.697266" xlink:href="#DejaVuSans-111"/>
      <use x="116.878906" xlink:href="#DejaVuSans-99"/>
      <use x="171.859375" xlink:href="#DejaVuSans-97"/>
      <use x="233.138672" xlink:href="#DejaVuSans-108"/>
      <use x="260.921875" xlink:href="#DejaVuSans-32"/>
      <use x="292.708984" xlink:href="#DejaVuSans-77"/>
      <use x="378.988281" xlink:href="#DejaVuSans-105"/>
      <use x="406.771484" xlink:href="#DejaVuSans-110"/>
      <use x="470.150391" xlink:href="#DejaVuSans-105"/>
      <use x="497.933594" xlink:href="#DejaVuSans-109"/>
      <use x="595.345703" xlink:href="#DejaVuSans-117"/>
      <use x="658.724609" xlink:href="#DejaVuSans-109"/>
     </g>
    </g>
    <g id="PathCollection_4">
     <g>
      <use style="fill:#000080;stroke:#000080;" x="141.9" xlink:href="#m342e47a381" y="91.361344"/>
     </g>
    </g>
    <g id="text_2">
     <!-- Global Minimum -->
     <defs>
      <path d="M 59.515625 10.40625 
L 59.515625 29.984375 
L 43.40625 29.984375 
L 43.40625 38.09375 
L 69.28125 38.09375 
L 69.28125 6.78125 
Q 63.578125 2.734375 56.6875 0.65625 
Q 49.8125 -1.421875 42 -1.421875 
Q 24.90625 -1.421875 15.25 8.5625 
Q 5.609375 18.5625 5.609375 36.375 
Q 5.609375 54.25 15.25 64.234375 
Q 24.90625 74.21875 42 74.21875 
Q 49.125 74.21875 55.546875 72.453125 
Q 61.96875 70.703125 67.390625 67.28125 
L 67.390625 56.78125 
Q 61.921875 61.421875 55.765625 63.765625 
Q 49.609375 66.109375 42.828125 66.109375 
Q 29.4375 66.109375 22.71875 58.640625 
Q 16.015625 51.171875 16.015625 36.375 
Q 16.015625 21.625 22.71875 14.15625 
Q 29.4375 6.6875 42.828125 6.6875 
Q 48.046875 6.6875 52.140625 7.59375 
Q 56.25 8.5 59.515625 10.40625 
z
" id="DejaVuSans-71"/>
      <path d="M 48.6875 27.296875 
Q 48.6875 37.203125 44.609375 42.84375 
Q 40.53125 48.484375 33.40625 48.484375 
Q 26.265625 48.484375 22.1875 42.84375 
Q 18.109375 37.203125 18.109375 27.296875 
Q 18.109375 17.390625 22.1875 11.75 
Q 26.265625 6.109375 33.40625 6.109375 
Q 40.53125 6.109375 44.609375 11.75 
Q 48.6875 17.390625 48.6875 27.296875 
z
M 18.109375 46.390625 
Q 20.953125 51.265625 25.265625 53.625 
Q 29.59375 56 35.59375 56 
Q 45.5625 56 51.78125 48.09375 
Q 58.015625 40.1875 58.015625 27.296875 
Q 58.015625 14.40625 51.78125 6.484375 
Q 45.5625 -1.421875 35.59375 -1.421875 
Q 29.59375 -1.421875 25.265625 0.953125 
Q 20.953125 3.328125 18.109375 8.203125 
L 18.109375 0 
L 9.078125 0 
L 9.078125 75.984375 
L 18.109375 75.984375 
z
" id="DejaVuSans-98"/>
     </defs>
     <g transform="translate(168.9 95.298844)scale(0.15 -0.15)">
      <use xlink:href="#DejaVuSans-71"/>
      <use x="77.490234" xlink:href="#DejaVuSans-108"/>
      <use x="105.273438" xlink:href="#DejaVuSans-111"/>
      <use x="166.455078" xlink:href="#DejaVuSans-98"/>
      <use x="229.931641" xlink:href="#DejaVuSans-97"/>
      <use x="291.210938" xlink:href="#DejaVuSans-108"/>
      <use x="318.994141" xlink:href="#DejaVuSans-32"/>
      <use x="350.78125" xlink:href="#DejaVuSans-77"/>
      <use x="437.060547" xlink:href="#DejaVuSans-105"/>
      <use x="464.84375" xlink:href="#DejaVuSans-110"/>
      <use x="528.222656" xlink:href="#DejaVuSans-105"/>
      <use x="556.005859" xlink:href="#DejaVuSans-109"/>
      <use x="653.417969" xlink:href="#DejaVuSans-117"/>
      <use x="716.796875" xlink:href="#DejaVuSans-109"/>
     </g>
    </g>
   </g>
  </g>
 </g>
 <defs>
  <clipPath id="p46b70d84d5">
   <rect height="310.464" width="703.08" x="113.4" y="48.384"/>
  </clipPath>
 </defs>
</svg>
